<?xml version="1.0" encoding="UTF-8"?>
<svg version="1.1" viewBox="0 0 2048 1362" width="1280" height="1280" xmlns="http://www.w3.org/2000/svg">
<path transform="translate(0)" d="m0 0h2048v1362h-2048z" fill="#FEFEFE"/>
<path transform="translate(462,468)" d="m0 0 16 1 11 4 10 7 9 9 11 18 10 18 8 16 24 47 13 26 11 23 17 35 13 28 19 40 9 20 14 32 4 14 1 7v17l-4 16-8 16-7 9-10 10-10 6-14 5-12 3h-19l-16-3-13-5-15-8-12-9-13-11-12-11-8-8-3-5 2-5 12-15 7-10 12-19 9-16 10-23 6-19 3-12 1-7v-18l-3-15-6-15-7-12-11-12-9-7-12-6-15-5-11-2h-18l-16 3-15 6-13 8-10 9-8 10-7 14-4 14-2 15 1 14 4 20 7 21 12 26 11 18 8 12 12 17 6 9v5l-13 13-8 7-14 12-14 10-16 8-14 5-15 3h-13l-18-3-12-5-13-9-10-11-8-14-4-11-2-11v-18l4-18 7-19 19-40 16-34 13-27 11-23 11-22 11-23 14-28 10-19 14-28 10-19 11-19 8-10 7-7 10-6 10-3z" fill="#FEFEFE"/>
<path transform="translate(461,435)" d="m0 0 18 1 13 4 16 8 9 7 10 10 12 17 10 18 20 39 12 23 45 90 11 23 16 34 17 36 14 32 7 22 2 10v19l-3 17-6 18-8 15-8 10-9 10-11 9-14 8-14 6-15 4-12 1h-12l-20-3-17-5-23-11-17-12-14-12-12-11-11-12-5 1-8 7-14 14-11 9-15 11-17 10-20 8-14 4-17 2h-13l-14-2-14-4-16-7-11-7-14-13-10-13-9-16-6-18-2-11v-27l4-18 7-19 16-35 13-28 13-27 11-23 19-39 54-108 10-19 12-20 9-11 9-8 14-9 12-5 11-3zm1 33-12 2-9 4-9 6-8 8-9 14-9 16-21 41-10 20-10 19-12 25-25 50-13 28-15 31-13 28-11 24-6 19-2 11v18l3 14 5 12 7 11 10 11 14 9 10 4 18 3h13l15-3 17-6 16-9 13-10 13-11 16-15 4-4-1-7-12-17-11-16-11-18-8-16-8-18-6-20-4-23 1-17 4-16 5-12 7-10 9-10 11-8 14-7 13-4 11-2h18l15 3 16 6 14 9 10 10 9 14 6 14 3 11 1 7v18l-3 15-6 20-8 19-8 16-13 22-8 11-10 13-6 8 2 5 7 8 10 10 11 9 12 10 13 8 15 7 15 4 7 1h19l19-5 14-7 10-9 9-10 8-15 4-13 1-6v-17l-3-15-8-20-9-20-13-28-32-68-22-45-11-23-17-34-10-19-16-31-11-18-9-10-7-6-12-6-12-2z" fill="#FF646D"/>
<path transform="translate(1239,527)" d="m0 0h26l1 101 22-13 13-4 6-1h13l18 4 12 4 17 9 10 8 10 10 9 14 5 11 5 15 2 11v26l-4 17-7 17-8 12-11 12-9 8-14 8-13 6-11 3-6 1h-28l-10-4-11-7-8-6h-4l-3 10-4 3h-29l-9-1-1-1v-272z" fill="#FF646D"/>
<path transform="translate(1622,527)" d="m0 0h45l1 1v100l7-3 14-9 11-4 13-2h9l20 4 14 5 13 7 10 8 11 11 10 15 8 20 4 20v19l-3 16-6 16-7 13-9 11-10 10-14 9-12 6-15 5-25 2-13-2-9-4-12-8-3-3-6-1-2 9-4 4h-34l-6-1-1-273z" fill="#FF646D"/>
<path transform="translate(881,610)" d="m0 0h14l15 4 12 6 10 7 3-1 3-9 1-1h42l1 14-1 172h-39l-4-1-2-9-1-1h-6l-11 7-12 6-9 2h-22l-16-3-15-6-12-7-10-9-5-5-7-8-8-13-6-14-4-17-1-6v-20l3-17 6-16 7-13 8-10 11-11 15-9 16-7 16-4z" fill="#FF646D"/>
<path transform="translate(1517,610)" d="m0 0h10l16 3 12 4 15 8 11 10 9 14 4 10 2 10 1 11v109l-1 13-7 1-39-1-1-93-1-24-2-11-6-9-8-7-7-2h-18l-12 3-11 6-7 7-1 2-1 28-1 99h-46l-1-70v-84l1-31h39l2 1 4 9 9-3 10-6 13-5z" fill="#FF646D"/>
<path transform="translate(455,647)" d="m0 0h20l13 4 10 6 9 9 7 13 2 9v23l-5 20-9 21-11 20-20 30-5 6-4-1-13-18-13-20-13-25-8-24-3-16v-12l3-13 4-8 7-9 8-7 13-6z" fill="#FEFEFE"/>
<path transform="translate(1170,611)" d="m0 0h27l1 3 1 16v24l-1 2h-29l-16 4-11 6-6 5-1 26-1 105h-43l-4-1v-183l1-2h43l2 10 5 1 18-12 9-3z" fill="#FF646D"/>
<path transform="translate(1012,616)" d="m0 0h45l1 11v173l-1 1h-46v-184z" fill="#FF646D"/>
<path transform="translate(890,655)" d="m0 0h9l15 4 11 7 8 9 1 3v60l-3 8-9 8-11 5-12 2h-13l-15-3-13-7-8-8-8-16-3-14v-10l3-14 7-13 6-7 11-7 13-5z" fill="#FEFEFE"/>
<path transform="translate(1707,655)" d="m0 0h9l16 4 11 6 12 11 6 10 3 12v19l-4 13-6 10-7 8-10 7-13 4-5 1h-20l-13-4-9-6-6-8-2-7-1-8v-41l2-10 4-6 9-7 13-6z" fill="#FEFEFE"/>
<path transform="translate(1303,655)" d="m0 0h11l12 3 12 6 10 9 6 7 5 11 2 9v13l-3 14-5 10-7 9-11 8-10 4-9 2h-20l-13-4-9-6-6-7-3-14v-43l2-11 7-8 9-6 10-4z" fill="#FEFEFE"/>
<path transform="translate(1026,527)" d="m0 0h16l10 5 5 4 7 10 3 8 1 9-4 10-6 7-11 8-5 2-10 1-9-2-11-7-6-8-4-11v-7l4-13 6-8 9-6z" fill="#FF646D"/>
</svg>
