<?xml version="1.0" encoding="UTF-8"?>
<svg version="1.1" viewBox="0 0 920 876" width="1280" height="1280" xmlns="http://www.w3.org/2000/svg">
<path transform="translate(0)" d="m0 0h920v876h-920z" fill="#FDFDFD"/>
<path transform="translate(476,180)" d="m0 0 6 1 20 6 21 7 17 5 40 13 36 12 38 14 16 6 25 11 10 6 5 4 2 4 1 7-4 18-4 8-7 6-13 8-11 6-1 2 8 4 36 26 17 12 7 5 3 7v11l-3 17-4 12-4 4-20 5-15 4-1 4 8 12 5 7 2 4v12l-2 3-12 2-25 2v2l8 9 7 10v3l-5 1-66 3-12 2-9 4-11 6-5 3h-2v2l-24 16-3 1v2l-11 7-17 17-7 8-6 7h19l17-1-1 4h-5l-1 2-4 5-8 11-2 4h-2l-2 6h-2v2h-2l-2 5-6 9-8 10v3l-4 4-3 6-2-1v3l-3 7-5-1 2-7 7-10 5-7 1-3h2v-3l2-1 1-3h2l2-5 1-2h2l1-4h2v-3h2l2-5 2-3h2l1-4h2v-3l2-1 1-3h2l1-4h2v-2h2l-1-3-29 2-1 3-22 18-16 10-17 10-9 4-6-2-18-11-8-5-3-1-1-23-3-9-6-5-5-5v-2l-5-2v8l-3 11-1 8 2 2-1 4h-12l-11 3-7 3-3 2-8 2v2h-5l-3-2v-3l-14-2 1-2 13-2 28-3 5-1-2-4-8-7-8-9-8-7-7-7v-3h-2l-3-6-6-5-7-1-8 3-11 2-16 2-3 1v8l-4 4h-5l-19-11-1-2v-6h-2l-2-19-2-21-9-56-7-45-3-29v-13l6-1-14-9-19-11-14-7v-6l1-2 9 3 29 16 5 4 11 6 11 7 10 6 6 3v2h3v2l5 1 5 3v2l5 1 5 4 8 4 5 3v2l5 2 8 4v2l4 1 16 10 15 9 18 11 11 7 23 14 11 8-1-8-1-30-6-2-16-10-21-13-15-9-29-17-22-13-2-1v-2l-7-2-5-3-29-17-16-9-12-6-13-8-10-5v-2l-6-2-19-11-6-4-1-4 38-14 10-3 10-4 39-13 10-4 29-10 24-8 10-4 31-11 16-5 10-4 20-7 29-10z" fill="#701B20"/>
<path transform="translate(671,323)" d="m0 0 10 5 36 26 17 12 7 5 3 7v11l-3 17-4 12-4 4-20 5-15 4-1 4 8 12 5 7 2 4v12l-2 3-12 2-25 2v2l8 9 7 10v3l-5 1-66 3-12 2-9 4-11 6-5 3h-2v2l-24 16-3 1v2l-11 7-17 17-7 8-6 7h19l17-1-1 4h-5l-1 2-4 5-8 11-2 4h-2l-2 6h-2v2h-2l-2 5-6 9-8 10v3l-4 4-3 6-2-1v3l-3 7-5-1 2-7 7-10 5-7 1-3h2v-3l2-1 1-3h2l2-5 1-2h2l1-4h2v-3h2l2-5 2-3h2l1-4h2v-3l2-1 1-3h2l1-4h2v-2h2l-1-3-29 2-1 3-22 18-16 10-17 10-9 4-6-2-18-11-8-5-3-1-1-23-3-9-6-5-5-5v-2l-5-2v8l-3 11-1 8 2 2-1 4h-12l-11 3-7 3-3 2-8 2v2h-5l-3-2v-3l-14-2 1-2 13-2 28-3 5-1-2-4-8-7-8-9-8-7-7-7v-3h-2l-3-6-6-5-7-1-8 3-11 2-16 2-3 1v8l-4 4h-5l-19-11-1-2v-6h-2l-2-19-2-21-9-56-7-45-3-29v-13l8-1 14 8 20 12 2 2v17l-4 73-2 33 1-1v-15l1-1 44-3 33-3 3-2-2-6v-3l-2 1-23 2h-9l-3-12-5-25-1-1-1-10-4-16-2-9v-4h2v2h3l4 4 7 3 16 10 10 7 19 12 24 15 12 8 2 4 6 1 12 8 3 3 6-1 10-7 17-9h5l1-1h11l12-2 10-2 1-1 28-4 20-4 38-6 39-5 10-2 13-2 28-4 26-3 7-2 9-1 3-9 5-19 3-9 3-5h3l-1-2-2 1v-2l-4-2-3-4v-2l-4-2-12-14-9-9-6-8-5-4-2-4z" fill="#CACAC3"/>
<path transform="translate(700,259)" d="m0 0 5 2 5 4 2 4 1 7-4 18-4 8-7 6-13 8-11 6-3 1 4 8 6 5 7 9 9 9 9 11 4 4 4 5 5 2v2l-4 2-3 7-5 21-3 11-2 2-9 1-7 2-40 5-17 3-16 2-21 3-43 6-51 9-14 2-14 4-13 1h-7l-3 1-5 1-20 11-5 4-6 1-7-6-10-6-4-1-5-5-17-11-24-15-20-13-10-7-10-6-7-3-1-3h-3v-2h-2l6 27 1 2 1 10 2 7 6 29v2l34-3 3 10-4 2-33 3-44 3v16h-2v-22l3-45 2-39v-17l-16-10-24-14-16-10-14-8-14-7v-6l1-2 9 3 29 16 5 4 11 6 11 7 10 6 6 3v2h3v2l5 1 5 3v2l5 1 5 4 8 4 5 3v2l5 2 8 4v2l4 1 16 10 15 9 18 11 11 7 23 14 11 8-1-8-1-28-2-9h2l-1-6 9-2 4-3h3v-2l4-4 9-3 18-8 5-3h2l1-3 8-3 10-7 11-6 10-6 7-4 8-4 1-2 16-8 25-12h3l1-2 7-3h4l1-3 12-6 13-6 22-11 18-8 19-9 19-10 8-4 13-2 1-3 1 2h4l-1-4z" fill="#4A161B"/>
<path transform="translate(688,500)" d="m0 0 4 4 12 20-3 25-3 9-1 2-7 2-3 1 1 3-1 5-5 2-35 5-35 2-27 2-7 1h-10v3l-21 3v2h-2l-2 4h-2l-2 4-10 15-20 26-7 9-10 13-7 11-5 1-25-10-26-11-23-10-29-12-21-9-9-4-10-5-10 1-19 3-15 2h-6l-1-11-3-5-2-8-2-4-31-16-20-9-10-3v-3l5-1-1-15 4-8 8-8 10-5 1 4 1 19h2l1 8 5 2 10 6 4 2h5l3-3 1-8 3-2 22-3 12-3 5-1 6 3 6 7v3h2l3 5 10 10 7 6 7 8 7 6-1 3-21 3-20 2-5 1 10 2 3 1v3l8 2v-2l3-2 7-2 5-3 9-3 5-1h12l-1-4-1-3 5-25 5 2 7 8 6 5 2 8v23l5 1 19 12 9 5 6-2 12-6 17-10 11-8 9-7 11-9 1-2 4-1 26-2 1 2-1 2h-2v2h-2l-1 4h-2l-1 4h-2v3l-2 1-1 3h-2l-4 8h-2v3h-2l-1 4h-2l-2 5-1 2h-2l-1 4h-2v3h-2l-1 4-10 15-3 7 4 1 1-2-2-1h3v-2l-2-2h2l1-3h2l4-6h2v-4l6-9 4-4 4-7 3-5h2v-2h2l2-6h2l1-4 11-15v-2l8-1 1-4-4 1-13 1h-21l6-7 7-7 7-8 12-12 9-6h2v-2l21-14 4-3h2v-2l21-12 10-3 8-1 66-3z" fill="#B9C4C9"/>
<path transform="translate(225,382)" d="m0 0h1l3 17 3 22 4 26 3 17 2 9 6 42 3 16 2-1 16-2 44-7 36-6 19-3-1-5v-3l8 9 6 8v2h2l-1 3-12 1-48 9v2l5 2 4 8 4 6v3h2v2l7 2 4 5v3l7 1 18-6 11-3 15-4 8-3 21-7 21-6 64-20 71-23 49-14-39 6-33 5-11 2-56 9-16 5-19 7-6 3-10 3-16 6-7 3-14 4-8 2 1-2 15-5 10-4 26-10 10-3 16-6 10-4 10-3 38-15 12-5 26-10 39-13 10-4 34-11 38-12h4l4 8 10 14 2 4v12l-2 3-12 2-25 2v2l8 9 7 10v3l-5 1-66 3-12 2-9 4-11 6-5 3h-2v2l-24 16-3 1v2l-11 7-17 17-7 8-6 7h19l17-1-1 4h-5l-1 2-4 5-8 11-2 4h-2l-2 6h-2v2h-2l-2 5-6 9-8 10v3l-4 4-3 6-2-1v3l-3 7-5-1 2-7 7-10 5-7 1-3h2v-3l2-1 1-3h2l2-5 1-2h2l1-4h2v-3h2l2-5 2-3h2l1-4h2v-3l2-1 1-3h2l1-4h2v-2h2l-1-3-29 2-1 3-22 18-16 10-17 10-9 4-6-2-18-11-8-5-3-1-1-23-3-9-6-5-5-5v-2l-5-2v8l-3 11-1 8 2 2-1 4h-12l-11 3-7 3-3 2-8 2v2h-5l-3-2v-3l-14-2 1-2 13-2 28-3 5-1-2-4-8-7-8-9-8-7-7-7v-3h-2l-3-6-6-5-7-1-8 3-11 2-16 2-3 1v8l-4 4h-5l-19-11-1-2v-6h-2l-2-19-2-21-9-56-7-45-1-10z" fill="#82A8BC"/>
<path transform="translate(671,323)" d="m0 0 10 5 36 26 17 12 7 5 3 7v11l-3 17-4 12-4 4-20 5-15 4-9 3-35 11-43 14-10 4-15 5-26 9-26 10-11 5-28 11-19 6-12 5-10 4-13 4-40 15-6 1-1-1-4-26-3-15-3-10-10-11-4-4v-2l3-2 12-1 6-2 5 1 12 8 3 3 6-1 10-7 17-9h5l1-1h11l12-2 10-2 1-1 28-4 20-4 38-6 39-5 10-2 13-2 28-4 26-3 7-2 9-1 3-9 5-19 3-9 3-5h3l-1-2-2 1v-2l-4-2-3-4v-2l-4-2-12-14-9-9-6-8-5-4-2-4z" fill="#F4AD29"/>
<path transform="translate(667,326)" d="m0 0 5 2 9 8 7 9 9 9 9 11 4 4 4 5 5 2v2l-4 2-3 7-5 21-3 11-2 2-9 1-7 2-40 5-17 3-16 2-21 3-43 6-51 9-14 2-14 4-13 1h-7-4l4-4 6-4 20-12 21-13 17-10 19-11 17-10 9-5 10-6 28-18 16-9 22-13 17-10z" fill="#316292"/>
<path transform="translate(700,259)" d="m0 0 5 2 5 4 1 3h-2l-1 4-3 8-8 9-5 1v-2l-6 2-7 1-9 3-1 3-8 3-6 3-10 4-12 5-12 7-10 6-5 1-1 3-13 5-26 13-17 9-8 5-6 3h-3v2l-16 8-5 3-9 3-16 8-17 9-10 6-11 6-6 4h-4l-1 3-18 10h-4l1 12v27l-1 6-5 2-5-1-11-7-4-1-5-5-17-11-24-15-20-13-10-7-10-6-7-3-1-3h-3v-2h-2l6 27 1 2 1 10 2 7 6 29v2l34-3 3 10-4 2-33 3-44 3v16h-2v-22l3-45 2-39v-17l-16-10-24-14-16-10-14-8-14-7v-6l1-2 9 3 29 16 5 4 11 6 11 7 10 6 6 3v2h3v2l5 1 5 3v2l5 1 5 4 8 4 5 3v2l5 2 8 4v2l4 1 16 10 15 9 18 11 11 7 23 14 11 8-1-8-1-28-2-9h2l-1-6 9-2 4-3h3v-2l4-4 9-3 18-8 5-3h2l1-3 8-3 10-7 11-6 10-6 7-4 8-4 1-2 16-8 25-12h3l1-2 7-3h4l1-3 12-6 13-6 22-11 18-8 19-9 19-10 8-4 13-2 1-3 1 2h4l-1-4z" fill="#5B181C"/>
<path transform="translate(688,500)" d="m0 0 4 4 12 20-3 25-3 9-1 2-7 2-3 1 1 3-3 2-13 1-71 7-24 2-29 1-19 2h-21l6-7 7-7 7-8 12-12 9-6h2v-2l21-14 4-3h2v-2l21-12 10-3 8-1 66-3z" fill="#CFDDE2"/>
<path transform="translate(364,468)" d="m0 0h8l-2 1 2 4 8 7 5 6 5 18 4 24 1 9 4 1 24-8 11-4 13-5 6-2 27-10 13-4 48-8 16-2 17-3 56-9 3 1-9 3-27 8-29 9-62 20-58 18-27 8-22 7-8 3-8 2-26 8-7 1-3-2-3-5-2-2-6-3v-2h-2l-5-9-4-8-5-2 1-3 48-9 12-1 1-2h-2l-8-11-8-10-13-17-9-12 3-2z" fill="#ACC2C9"/>
<path transform="translate(667,326)" d="m0 0 5 2 9 8 7 9 9 9 9 11 4 4 2 3v3l-4 1h-19l-4 1-3-6-2-7 4-5-3-7-5-5-5-4h-4l-2 2-3-1-3 3-2 4-9 3-5 1-3 3h-2v2l-7 1-4 2v2l-6 3-3 5-7 3-5 5-8 5-1 2-5 1-14 2-2 1-14 2 7 1 1 1v6l-5 10-4 7-1 6-4 5v7l6-1 9 1 11-2 14-1 26-4 23-4 22-2-2 2-46 7-10 2-39 5-25 4-30 5-17 3-14 2-14 4-13 1h-7-4l4-4 6-4 20-12 21-13 17-10 19-11 17-10 9-5 10-6 28-18 16-9 22-13 17-10z" fill="#2A547D"/>
<path transform="translate(291,399)" d="m0 0h2v2h3l4 4 7 3 16 10 10 7 19 12 24 15 12 8 3 5-6 2-21 2-19 3-2 2 8 9 10 14 4 5-1 2h-16l-38 2-11 1-24 1h-15v-12h1v11l1-1v-15l1-1 44-3 33-3 3-2-2-6v-3l-2 1-23 2h-9l-3-12-5-25-1-1-1-10-4-16-2-9z" fill="#306291"/>
<path transform="translate(243,523)" d="m0 0 2 4 1 19h2l1 8 5 2 10 6 4 2h5l3-3 1-8 3-2 22-3 12-3 5-1 6 3 6 7v3h2l3 5 10 10 7 6 7 8 7 6-1 3-21 3-20 2-37 6-2 2-3-5-2-8-2-4-31-16-20-9-10-3v-3l5-1-1-15 4-8 8-8z" fill="#CFDEE3"/>
<path transform="translate(692,432)" d="m0 0h4l4 8 10 14 1 8-3-1h-17l-35 5h-4l-2 12 2 2-19 3-21 4-52 8-11 2-56 9-16 5-19 7-6 3-10 3-16 6-7 3-14 4-8 2 1-2 15-5 10-4 26-10 10-3 16-6 10-4 10-3 38-15 12-5 26-10 39-13 10-4 34-11z" fill="#586567"/>
<path transform="translate(225,382)" d="m0 0h1l3 17 3 22 4 26 3 17 2 9 6 42 3 16 2-1 16-2 44-7 36-6 19-3-1-5v-3l8 9 6 8v2h2l-1 3-12 1-48 9v2l5 2 4 8 4 6v3h2v2l7 2 4 5v3l7 1 18-6 12-3v2l2 1-2 10-3 17 2 2-1 4h-12l-11 3-7 3-3 2-8 2v2h-5l-3-2v-3l-14-2 1-2 13-2 28-3 5-1-2-4-8-7-8-9-8-7-7-7v-3h-2l-3-6-6-5-7-1-8 3-11 2-16 2-3 1v8l-4 4h-5l-19-11-1-2v-6h-2l-2-19-2-21-9-56-7-45-1-10z" fill="#A8B3B6"/>
<path transform="translate(385,564)" d="m0 0 5 2 7 8 6 5 2 8v23l5 1 19 12 9 5 6-2 12-6 17-10 11-8 9-7 11-9 1-2 4-1 26-2 1 2-1 2h-2v2h-2l-1 4h-2l-1 4h-2v3l-2 1-1 3h-2l-4 8h-2v3h-2l-1 4h-2l-2 5-1 2h-2l-1 4h-2v3h-2l-1 4-12 18h-2l-1 3-19-10-31-14v-2l-6-1-21-10-14-6-18-8-4-2v-4l4-1 3 1v-2l5-1-1-4-1-3 3-15z" fill="#CEDDE2"/>
<path transform="translate(266,383)" d="m0 0 5 1 26 13 1 3 7 2 14 10 1 4-5-2-11-7-7-3-1-3h-3v-2h-2l6 27 1 2 1 10 2 7 6 29v2l34-3 3 10-4 2-33 3-44 3v16h-2v-22l3-45 2-39z" fill="#35262D"/>
<path transform="translate(391,464)" d="m0 0 5 1 12 8 3 3 14 4 33 12 21 10 3 2v3l-23 9-21 7-18 7-19 7-6 1-1-1-4-26-3-15-3-10-10-11-4-4v-2l3-2 12-1z" fill="#F6AF29"/>
<path transform="translate(688,500)" d="m0 0 4 4 9 15 2 6-6 2-61 7-39 4-38 3h-7l-1-2 21-14 4-3h2v-2l21-12 10-3 8-1 66-3z" fill="#ABC2C9"/>
<path transform="translate(539,444)" d="m0 0h6l-4 2-6 2-4 5-8 7-10 10-9 14-3 6-4 12-8 3-7 1v-2l-5-2-24-11-30-11-9-3 5-4 17-10 8-4h5l1-1h11l12-2 10-2 1-1 28-4 20-4z" fill="#B67E27"/>
<path transform="translate(711,458)" d="m0 0h1v12l-2 3-12 2-25 2v2l8 9 7 10v3l-5 1-66 3-12 2-9 4-11 6-7 4-16-4-9-3-2-2h-8l3-2 44-14 17-5 25-7 1-2 15-2 2-1-1-3 1-7 2-3 16-3 23-3h17l2 1z" fill="#6C848E"/>
<path transform="translate(667,342)" d="m0 0 6 1 6 7 3 2 3 8-4 4 2 7 1 4 4 2 1-2h23l1-2 3 3-10 3-28 3-44 6-42 5-1 1-20 2v-3l7-3 14-2 3-1 2 1 2-5 6-2 5-6 5-2h3l2-5 4-3h3v-2l4-3 5-1 2 1v-2l7-5 4-1 8-1 2-6 5-2h2z" fill="#316392"/>
<path transform="translate(243,523)" d="m0 0 2 4 1 19h2l1 8 5 2 10 6 4 2h5l3-3 1-8 3-2 22-3 12-3 5-1 6 3 6 7v3h2l2 5-24 3-33 4v20l-5-1-25-13-20-9-10-3v-3l5-1-1-15 4-8 8-8z" fill="#BAC5C9"/>
<path transform="translate(183,327)" d="m0 0 9 3 29 16 5 4 11 6 11 7 10 6 6 3v2h3v2l5 1 5 3v2l5 1 5 4 8 4 5 3v2l5 2 8 4v2l4 1 16 10 15 9 18 11 11 7 23 14 11 8-1-8v-28h2l3 4 1 6v27l-1 6-5 2-5-1-11-7-4-1-5-5-17-11-24-15-20-13-5-5-2-4-12-8-7-3-3-3-15-8-18-8-19-11-17-10-16-10-14-8-14-7v-6z" fill="#84211B"/>
<path transform="translate(365,504)" d="m0 0 5 4 10 13v2h2l-1 3-12 1-48 9 2 6-14 1-30 6h-2l1-3 26-5h-10l-20 3-21 1-5-1-1-4v-8l34-6 54-9 32-5-1-5z" fill="#8B918B"/>
<path transform="translate(541,400)" d="m0 0 3 1-1 7-5 5-4 6-2 2 2 1-1 6-5 1-2 3 2 4h9l9 1 1 4 9-1-1 2-57 10-14 2-14 4-13 1h-7-4l4-4 6-4 20-12 21-13 17-10 19-11z" fill="#224668"/>
<path transform="translate(492,585)" d="m0 0h13l-5 5-10 9-17 12-24 14-9 4-6-2-18-11-8-5-3-1v-12h1v10l6-2 21-11 11-4 20-3z" fill="#A7B2B5"/>
<path transform="translate(657,331)" d="m0 0 2 1-16 10-2 2-1 2-7 3-11 7-3 4h-2v2h-3l-1 2-9 5h-4v2l-5 1-7 4h-2v2l-6 2-4 2-2 3v6l-12 3 7 1 1 1v6l-5 10-4 7-1 6-4 5v7l6-1 9 1 11-2 14-1 26-4 23-4 22-2-2 2-46 7-10 2-39 5-15 2-3-1h-5l-2-2-1-2h-10l-6-1-3-5h2l1-3h5l1-6-3-1 2-3 7-9 3-3v-7l16-9 10-6 28-18 16-9 22-13 17-10z" fill="#29537C"/>
<path transform="translate(185,288)" d="m0 0 9 3 9 6 10 6 13 8 9 5 10 6 9 5 12 7 10 5 11 6 3 3 14 8 9 5 5 4 9 5 15 9 14 8 12 7 12 6 10 7v2l3 1 5 7-1 2-5-2-26-16-15-9-29-17-22-13-2-1v-2l-7-2-5-3-29-17-16-9-12-6-13-8-10-5v-2l-6-2-17-10-2-4z" fill="#801D1C"/>
<path transform="translate(364,468)" d="m0 0h8l-2 1 2 4 8 7 5 6 5 18 4 24 1 9 4 1 15-5 4 1-4 3h-4v2h-3l-2 5h-7l-3-2v-2l-4-1-10-12 1-4h-2l-8-11-8-10-13-17-9-12 3-2z" fill="#A6B1B3"/>
<path transform="translate(692,432)" d="m0 0h4l4 8 7 10-1 2h-2v-2h-2v-2l-4-2-9 2-10 3-9 4-7 3-8 1-1 2-5 2-12 2h-9l-17 3-8 1h-3-4l-1 2-19 2 1-3 24-8 19-7 34-11z" fill="#234363"/>
<path transform="translate(695,445)" d="m0 0 4 1 3 2v2l6 1 3 6v5l-3-1h-17l-35 5h-4l-2 12 2 2h-14l-2-4-9-3-11 3-20 2h-26l-4-1v2l-9 2-3 2h-5l1-3 24-9 4 1 17-2 5-2h3l14-2 13-2h7l12-2 9-4 7-2 13-5 8-3z" fill="#306292"/>
<path transform="translate(340,484)" d="m0 0 9 1 5 8 1 3 4 2v1l-33 3-36 2-3 1h-24v-15l44-3z" fill="#F8F8F8"/>
<path transform="translate(376,525)" d="m0 0h5l6 8 5 6 2 1-2 4-28 9-16 5h-5l-6-11-7-10v-2l13-3 10-1v-2z" fill="#CEDCE1"/>
<path transform="translate(437,544)" d="m0 0h6v2l4 2 6 5 3 2-4 3-24 11-24 12-9-8-5-5v-2l-6-3 1-3 13-3 8-3 21-7z" fill="#202733"/>
<path transform="translate(539,545)" d="m0 0 4 1-10 9-10 10-7 8-6 7 2 2-37 4-10 1h-9l3-5 15-8 17-8 12-7 7-5 14-5 5-1 9-2z" fill="#9EB1B8"/>
<path transform="translate(283,394)" d="m0 0 3 1v3h5l6 28 1 2 1 10 2 7 6 29v2l34-3 3 10-4 2-33 3-15 1h-14l1-2 14-2 2-1 2 1v-2l6-1-4-16-3-7-3-15-2-6-2-13-4-15-1-12z" fill="#202632"/>
<path transform="translate(671,323)" d="m0 0 10 5 36 26 17 12 7 5 1 4-11-1-1 3-11 3-5 2 2-4h3l-1-2-2 1v-2l-4-2-3-4v-2l-4-2-12-14-9-9-6-8-5-4-2-4z" fill="#B88028"/>
<path transform="translate(315,544)" d="m0 0 7 1 7 6 2 3v3h2l2 5-24 3-37 4-6-1-1-4h6l3-3 1-8 3-2 22-3 12-3z" fill="#ACC2C9"/>
<path transform="translate(679,567)" d="m0 0 9 1-1 3-5 2-35 5-35 2-27 2-7 1h-10v3l-21 3v2h-2l-2 4h-2l-2 4-10 15-2 1 2-5 9-14 4-7 4-10 2-1 29-1 44-4 51-5z" fill="#BAC4C8"/>
<path transform="translate(630,483)" d="m0 0 3 1-9 3-27 8-29 9-38 12h-5l1-9-3-1h2v-2h-4v-2l-3-1 23-4 16-2 17-3z" fill="#B4C0C4"/>
<path transform="translate(464,588)" d="m0 0h8v3l-5 2v-2h-3l-2 4-2 2-7 1-6 1-2 2-5 1 1 2-3 3-3 2h-3v3l6 3 5 3 6 1 5-1v4l-14 7-6-2-18-11-8-5-3-1v-12h1v10l6-2 21-11 11-4z" fill="#9FB2B9"/>
<path transform="translate(230,362)" d="m0 0 12 6 13 8 11 7 1 1v17l-1 20h-1l-1-20-20-11-17-10-4-4v-13z" fill="#8B908A"/>
<path transform="translate(711,458)" d="m0 0h1v12l-2 3-12 2-25 2-6 1h-16v-8l2-4 15-3 23-3h17l2 1z" fill="#83AABD"/>
<path transform="translate(225,382)" d="m0 0h1l3 17 3 22 4 26 3 17 2 9 6 42 3 16 7-1-4 2h-6l1 12h14l20-2 15-2h9l-2 2-26 5-5 5-6 3-1 1h-11l-3-2v-2h-2l-2-6h-2l-2-19-2-21-9-56-7-45-1-10z" fill="#A7B2B5"/>
<path transform="translate(332,424)" d="m0 0 5 1 7 4v2l5 1 5 3h3l-1 4 6 1 2 3 8 1 8 4 3 2h2v-2l5 2 14 9 7 5-1-8v-28h2l3 4 1 6v27l-1 6-5 2-5-1-11-7-4-1-5-5-17-11-24-15-12-8z" fill="#59191D"/>
<path transform="translate(518,522)" d="m0 0 4 2-24 11-11 5h-2v2l-6 3-9 3-13 6-5-1-8-7 1-3 43-13 7-2h7l2-1 3 1 1-3h6v-2z" fill="#C9D9DF"/>
<path transform="translate(183,327)" d="m0 0 9 3 29 16 5 4 9 5 4 8 7 4 3 3 5 2v2l4 2 9 4 15 8 4 2-2 1-12-5-14-7-50-30-12-7-14-7v-6z" fill="#742021"/>
<path transform="translate(541,400)" d="m0 0 3 1-1 7-5 5-4 6-2 2 2 1-1 6-5 1-1 2h-7v-2h-8l-7 2-5-1-2-2-3-1 16-9 10-6 17-10z" fill="#214568"/>
<path transform="translate(542,579)" d="m0 0h4l-1 4h-5l-1 2-4 5-8 11-2 4h-2l-2 6h-2v2h-2l-2 5-6 9-8 10v3l-4 4-3 6-2-1v3l-3 7-5-1 2-7 7-10 5-7 1-3h2v-3l2-1 1-3h2l2-5 1-2h2l1-4h2v-3h2l2-5 2-3h2l1-4h2v-3l2-1 1-3h2l1-4h2v-2h2l-1-3-25 2-4 1-41 4-17 2v-2l18-3 40-4 7-1z" fill="#8C928D"/>
<path transform="translate(391,464)" d="m0 0 5 1 12 8 5 5-20 8-5 1-1 2h-2l-4-7-11-11v-2l3-2 12-1z" fill="#B67E27"/>
<path transform="translate(540,583)" d="m0 0h5l-2 6-4 7-6 9-5 5-6 9-7 9-3 5h-2l-2 5-9 11-3 3-2 5-5 4-3 5-3 3v-9l1-2h5l1-2-2-1h3v-2l-2-2h2l1-3h2l4-6h2v-4l6-9 4-4 4-7 3-5h2v-2h2l2-6h2l1-4 11-15v-2z" fill="#A7B2B5"/>
<path transform="translate(695,445)" d="m0 0 4 1 3 2v2l6 1 3 6v5l-3-1h-17l-30 4h-5v-2l4-2h4l3-6 11-4 8-3z" fill="#396791"/>
<path transform="translate(487,507)" d="m0 0h16l-3 2-7 3-6 2h-2v2l-5 1-6 2-8 2-10 4h1 5l-4 3-17 6h-5l-1 3-11-2v-2l3-3h3v-2l14-6 9-3 27-10z" fill="#B7C3C7"/>
<path transform="translate(545,482)" d="m0 0 3 1-10 6-4 3-8 1v3l-6 1v-2l-5 5 22-4 37-6h9l-2 2-21 3-11 2-56 9-16 5-19 7-6 3-10 3-16 6-7 3-14 4-8 2 1-2 15-5 10-4 26-10 10-3 16-6 10-4 10-3 38-15z" fill="#3D1E26"/>
<path transform="translate(322,539)" d="m0 0 4 1 4 8 5 9-1 2-3-2-3-6-6-5-7-1-8 3-11 2-16 2-3 1v8l-4 4h-5l-19-11-1-6 2 4h2v2l3 1h11l5-3 8-4 30-6 13-1z" fill="#9DB0B8"/>
<path transform="translate(340,484)" d="m0 0 9 1 5 8 1 3 4 2v1l-33 3-36 2-3 1h-12l-4-4 4-3 8-1h21l15 3 24-1v-14l-2 1h-9v-1z" fill="#C8D6D9"/>
<path transform="translate(324,410)" d="m0 0 14 8 15 9 17 11 7 4 8 5v3l-3 1-5-4-10-3-4-1-1-3-6-1-1-3-5-2-2-2-4-1v-2l-6-2-6-3 1-3-9-6v-2l-2-1h2z" fill="#7C1619"/>
<path transform="translate(243,523)" d="m0 0 2 4 2 23-9-2-7-3h-6l-1 8h-1l-1-9 4-8 8-8z" fill="#CEDDE2"/>
<path transform="translate(657,331)" d="m0 0 2 1-16 10-2 2-1 2-7 3-11 7-3 4h-2v2h-3l-1 2-9 5h-4v2l-5 1-7 4h-2v2l-6 2-4 2-2 3v6l-18 2 4-4 14-8 15-10 10-6 14-8 22-13 17-10z" fill="#214568"/>
<path transform="translate(347,530)" d="m0 0h6l-4 2-16 3h-3l9 14 4 6v3l11-3h6l-5 5h-2v3h-2l3 8-5-1-2-1-3-5-2-2-6-3v-2h-2l-5-9-4-8-5-2 1-3z" fill="#B5C1C6"/>
<path transform="translate(225,382)" d="m0 0h1l3 17 3 22 4 26 3 17 2 9 5 34-1 16h-1l-5-37-9-55-4-26-1-10z" fill="#B2BCBE"/>
<path transform="translate(385,564)" d="m0 0 5 2 7 8 6 5 2 8v20l-6-2-1-4v-12l-3-5-5-5-6-2z" fill="#FBFBFB"/>
<path transform="translate(291,399)" d="m0 0h2v2h3l3 6 2 8 1 15 3 12 3 25v8l-2-1-6-29-2-7-1-10-4-16-2-9z" fill="#CAD3D6"/>
<path transform="translate(353,470)" d="m0 0h9l-4 6 1 6 8 9 4 7-3 3-6-2-9-11-7-10-4-5 3-2z" fill="#B5C1C6"/>
<path transform="translate(712,373)" d="m0 0 4 3-10 3-28 3-44 6-42 5h-11l4-2 86-11 28-4 9-1h4z" fill="#83AABE"/>
<path transform="translate(628,464)" d="m0 0 8 1v1l-10 2-15 2-4 1-7 1-5 3-4-1-1 2-2-1-1 3h-17l-4-1v2l-9 2-3 2h-5l1-3 24-9 4 1 17-2 5-2h3l14-2z" fill="#2A537B"/>
<path transform="translate(332,424)" d="m0 0 5 1 7 4v2l5 1 5 3h3l-1 4 6 1 2 3 8 1 8 4 3 2h2v-2l5 2 8 5v3h2v2l-5-1-4 1-10-4-18-11-19-12-12-8z" fill="#6A1B20"/>
<path transform="translate(298,404)" d="m0 0 9 4 16 10 2 3-8 2h-3v-2l-9 4h-3l-4-18z" fill="#29537C"/>
<path transform="translate(651,333)" d="m0 0 2 1-13 8-41 24-12 7-10 7-10 6-13 8-18 10-7 4-2-1 13-8 16-9 9-6 9-5 12-9 13-8 12-6 22-13z" fill="#35262D"/>
<path transform="translate(262,491)" d="m0 0h1v14l24-1 3-1 12-1h11v1h12l22-2h15l1 2-53 3-11 1-24 1h-15v-12h1v11l1-1z" fill="#99A1A0"/>
<path transform="translate(183,327)" d="m0 0 9 3 14 8 5 5v3l-6 1-23-12v-6z" fill="#7D1A1B"/>
<path transform="translate(286,391)" d="m0 0h7l7 3v2l5 2 8 4v2l4 1 7 4v6l5 2 5 5h-2v2l-5-2-7-5-3-6-12-8-7-3-3-3-9-5z" fill="#712122"/>
<path transform="translate(630,483)" d="m0 0 3 1-9 3-27 8-17 5h-6l1-3 3-3 13-3 2-2z" fill="#C4D3D8"/>
<path transform="translate(339,472)" d="m0 0 4 1 6 7 9 13 7 9-1 2-2-2h-15l-22 2h-20v-1l53-5-4-2-4-8-1-3-6-1-2-11z" fill="#3A5167"/>
<path transform="translate(498,427)" d="m0 0 4 3 9-1 4-1h6v2l2 2-7 3h-3v2l-7 2-3-2-9-1-2 1v-3h-2l2-5z" fill="#29537C"/>
<path transform="translate(668,422)" d="m0 0m-1 1m-3 1 3 1-13 3-22 3-13 2-10 2-39 5-15 2 1-2 15-3 11-2 14-1 26-4 23-4z" fill="#31506B"/>
<path transform="translate(574,581)" d="m0 0h11v1l-7 1h-10v3l-21 3v2h-2l-2 4h-2l-2 4-10 15-2 1 2-5 9-14 4-7 6-7h11z" fill="#CEDCE0"/>
<path transform="translate(301,420)" d="m0 0h1v5h9l9-1h6l5 6v1l-27 2-2 1-1-4z" fill="#6F8792"/>
<path transform="translate(487,507)" d="m0 0h16l-3 2-7 3-6 2h-2v2l-5 1-6 2-8 2h-7l2-2 5-1 2-4 14-6z" fill="#CADAE0"/>
<path transform="translate(266,383)" d="m0 0 5 1 26 13 1 3 7 2 14 10 1 4-5-2-11-7-7-3-1-3h-3v-2l-7-1-1-3-16-9z" fill="#481A1F"/>
<path transform="translate(294,607)" d="m0 0h7l3 1v2h2l-1 4 2 1 1 2-15 2h-6v-11z" fill="#CFDEE3"/>
<path transform="translate(531,605)" d="m0 0v3l-3 5-2 5-11 14-12 16-9 11-6 9-2-1 2-6 4-4h2l2-6 9-10 5-8h2l2-5 10-13 6-9z" fill="#C0CBCE"/>
<path transform="translate(476,508)" d="m0 0 3 1h-2v2l-19 7-6 3-10 3-16 6-7 3-14 4-8 2 1-2 15-5 10-4 26-10 10-3 16-6z" fill="#464E57"/>
<path transform="translate(529,580)" d="m0 0h11v1l-17 2-14 1-4 1-41 4-17 2v-2l18-3 40-4 7-1z" fill="#6D7C7F"/>
<path transform="translate(301,430)" d="m0 0 2 4 2 8 3 25v8l-2-1-6-29-2-7v-5l2 1z" fill="#ABC3CC"/>
<path transform="translate(237,465)" d="m0 0h2l2 8 5 34-1 16h-1l-5-37-2-11z" fill="#B1BCBE"/>
<path transform="translate(340,484)" d="m0 0 9 1 5 8 1 3 4 2v1l-15 1v-15l-3 1h-9v-1z" fill="#80A4B7"/>
<path transform="translate(574,490)" d="m0 0h9l-2 2-21 3-11 2-25 4-23 3 1-3 18-2 29-5z" fill="#383037"/>
<path transform="translate(410,428)" d="m0 0h2l3 4v23l-2 7-1 3-2-1z" fill="#83241B"/>
<path transform="translate(382,457)" d="m0 0 5 2 4 5-3 2-3 1-20 1 4-1v-2l4-4 8-2z" fill="#2F567C"/>
<path transform="translate(461,458)" d="m0 0h5l-3 2-19 7-16 7-5 2-5 1 5-4 14-8 19-6z" fill="#66161B"/>
<path transform="translate(228,544)" d="m0 0 6 1 7 3 1 2-7 2-3 1v2l-5 2-2 2-1-11 1-3z" fill="#AFC3C9"/>
<path transform="translate(671,571)" d="m0 0h14l-3 2-35 5h-17v-1l8-1 1-1 16-1 5-1 11-1z" fill="#CFDEE3"/>
<path transform="translate(262,491)" d="m0 0h1v14l24-1h15v1l-27 3h-15v-12h1v11l1-1z" fill="#656868"/>
<path transform="translate(466,514)" d="m0 0 2 1-4 4-3 1 2 2-7 3h-4v3h-7l4-7 14-6z" fill="#B5C4C9"/>
<path transform="translate(207,339)" d="m0 0 14 7 3 4-5 1-1 4-12-7 4-3 1-1-4-3z" fill="#742627"/>
<path transform="translate(699,443)" d="m0 0 4 1 4 6-1 2h-2v-2h-2v-2l-4-2-9 2-10 3-9 4-2-1 6-3h3v-2l7-4v-1z" fill="#2A547D"/>
<path transform="translate(322,539)" d="m0 0 4 1 4 8 5 9-1 2-3-2-3-6-6-5-13-3v-1l13-1z" fill="#98AEB8"/>
<path transform="translate(529,517)" d="m0 0h5v3l-10 4-6-1-3 2-5 1h-2l-1 2-6 1-3-2z" fill="#A7BFC8"/>
<path transform="translate(504,577)" d="m0 0 3 4-2 2-20 2h-6l2-3 9-3 6 1 7-2z" fill="#A6B2B5"/>
<path transform="translate(651,333)" d="m0 0 2 1-13 8-24 14-9 5v-3l21-12z" fill="#36272D"/>
<path transform="translate(414,533)" d="m0 0 4 1-4 3h-4v2h-3l-2 5h-7l-3-2v-4l8-1z" fill="#93A8B0"/>
<path transform="translate(692,432)" d="m0 0h4l-1 3-30 8-7 3h-4v-2z" fill="#252731"/>
<path transform="translate(276,575)" d="m0 0 2 1v13l-5-1-9-5-1-3h6l1 3 4-1z" fill="#B3C6CC"/>
<path transform="translate(249,370)" d="m0 0 5 2v2l4 2 9 4 15 8 4 2-2 1-12-5-14-7-11-7z" fill="#6C1B1F"/>
<path transform="translate(332,424)" d="m0 0 5 1 7 4v2l5 1 5 3h3l-1 4 6 1 3 5-5-2-24-15z" fill="#661C21"/>
<path transform="translate(245,515)" d="m0 0h2l3 16 7-1-4 2h-6v8h-2l-1-17z" fill="#AAB6B9"/>
<path transform="translate(571,381)" d="m0 0v3l-11 6-8 5-16 9-7 4-2-1 13-8 16-9 9-6z" fill="#36272D"/>
<path transform="translate(295,425)" d="m0 0 3 3 1 10 2 7 1 5v8l-2-3-3-9-2-12z" fill="#492227"/>
<path transform="translate(297,411)" d="m0 0 2 1 2 7v15l-2 1-3-9v-9z" fill="#F2F4F5"/>
<path transform="translate(434,524)" d="m0 0 4 1-8 4-10 3-8 3-13 4-2-1 10-4 24-9z" fill="#414352"/>
<path transform="translate(288,399)" d="m0 0h3l4 19v5l-2 1-2-9-2-2-1-6z" fill="#461A1F"/>
<path transform="translate(183,327)" d="m0 0 9 3 2 2-3 1 1 6-6-2-4-2v-6z" fill="#6D2426"/>
<path transform="translate(665,456)" d="m0 0 2 1-3 4-5 2h-3v2h-19l4-2 8-1 9-4z" fill="#2A547D"/>
<path transform="translate(225,382)" d="m0 0h1l3 17 1 16-2 2-3-22z" fill="#B3BCBE"/>
<path transform="translate(545,482)" d="m0 0 3 1-10 6-4 3-11 1v-2l19-8z" fill="#3C3138"/>
<path transform="translate(628,464)" d="m0 0 8 1v1l-10 2-15 2-4 1h-5l3-3z" fill="#2A547D"/>
<path transform="translate(571,472)" d="m0 0 2 1-2 3-4 1-1 2-9 2-3 2h-5l1-3z" fill="#3C5972"/>
<path transform="translate(268,400)" d="m0 0 2 4-1 11v6l-1 3-1 6h-1v-29z" fill="#26252F"/>
<path transform="translate(335,557)" d="m0 0 1 2 7 2 2 4 1 5 2 3-4-2-11-11 1-2z" fill="#A7B5B9"/>
<path transform="translate(712,373)" d="m0 0 4 3-10 3-13 1 1-3 8-2h10z" fill="#7B9BAA"/>
<path transform="translate(301,430)" d="m0 0 3 6v12l-2 1-2-4-2-7v-5l2 1z" fill="#CCDADF"/>
<path transform="translate(668,422)" d="m0 0m-1 1m-3 1 3 1-13 3-15 2h-6l2-2 10-2z" fill="#274C70"/>
<path transform="translate(561,534)" d="m0 0 3 1 1 3 3 2-16 1-1-2 6-4z" fill="#B7C3C8"/>
<path transform="translate(261,485)" d="m0 0 5 2 12 1-2 2-13 1v16h-2z" fill="#373B42"/>
<path transform="translate(450,458)" d="m0 0h7l-1 2-19 6h-2l1-3 8-4h5z" fill="#8F8B79"/>
<path transform="translate(304,541)" d="m0 0m-6 1h6v2l-27 5 1-3z" fill="#8C918B"/>
<path transform="translate(531,605)" d="m0 0v3l-3 5-2 5-8 10-1-3 7-10 6-9z" fill="#C6CDCD"/>
<path transform="translate(447,521)" d="m0 0 2 1-4 4-3 2v2l-7 1v-2l2-1-3-2z" fill="#A4BBC3"/>
<path transform="translate(576,391)" d="m0 0h9v1l6 1v1l-20 2v-3z" fill="#6D858F"/>
<path transform="translate(574,581)" d="m0 0h11v1l-7 1h-10v3l-6 1v-2l-3-1 1-2z" fill="#CFDEE3"/>
<path transform="translate(229,415)" d="m0 0h2l2 10v10l-2 3-2-14z" fill="#AFB9BB"/>
<path transform="translate(730,373)" d="m0 0 4 1h-3l-1 3-11 3-5 2 2-4h3v-2z" fill="#9B4C1F"/>
<path transform="translate(694,353)" d="m0 0 3 1 9 11 4 4 1 5h-2l-3-6-6-5-6-8z" fill="#2E4B66"/>
<path transform="translate(433,467)" d="m0 0 7 1-3 2-13 5-2 2-4-1z" fill="#7C1418"/>
<path transform="translate(669,422)" d="m0 0h16l1 2-14 2h-7z" fill="#476277"/>
<path transform="translate(691,453)" d="m0 0h8l3 3-9 2h-5l-1-2z" fill="#6D858F"/>
<path transform="translate(453,535)" d="m0 0 5 2v2l-10 3-4-1 2-2 1-2z" fill="#B6C6CC"/>
<path transform="translate(630,483)" d="m0 0 3 1-15 5-7-1 1-2z" fill="#A0B7C0"/>
<path transform="translate(353,492)" d="m0 0 5 1 7 9-1 2-2-2-4-1v-3l-4-2z" fill="#436582"/>
<path transform="translate(449,456)" d="m0 0h24l-3 2-13 1h-7-4z" fill="#5C5A5B"/>
<path transform="translate(468,656)" d="m0 0 6 1 2 3h-3l-1 4-4-1v-2h-2v-2l2-2z" fill="#ADC3C9"/>
<path transform="translate(548,580)" d="m0 0 26 1v1l-16 1h-10v2l-4 2 1-6z" fill="#C4C8C5"/>
<path transform="translate(365,504)" d="m0 0 5 4 10 13v2h2l-1 3-9-11-7-9z" fill="#464246"/>
<path transform="translate(415,438)" d="m0 0h1v22l-3 6-1-4 2-7z" fill="#701B20"/>
<path transform="translate(520,492)" d="m0 0h3v2l4 1-7 2v-2l-3 2h-4v2h-2l2-4z" fill="#402A30"/>
<path transform="translate(343,472)" d="m0 0h8l-1 5-2 3-6-7z" fill="#ACBDC4"/>
<path transform="translate(245,515)" d="m0 0h2l2 10-1 5-2 1-1-5z" fill="#979F9C"/>
<path transform="translate(489,504)" d="m0 0h11v1l-10 2-10 3-3-1 8-4z" fill="#3F3140"/>
<path transform="translate(347,501)" d="m0 0h15l1 2-21 1 2-2z" fill="#A2ACAD"/>
<path transform="translate(453,650)" d="m0 0 6 2 1 8-4-3-6-2z" fill="#ACC3C9"/>
<path transform="translate(329,538)" d="m0 0 4 1 6 10-1 3-8-11z" fill="#A6B7BC"/>
<path transform="translate(328,535)" d="m0 0h2l1 3-3 2v2h-2l-1-2-5-2v-2z" fill="#B6C2C6"/>
<path transform="translate(516,515)" d="m0 0 6 2-1 2-6 2h-5l2-4z" fill="#B0BFC5"/>
<path transform="translate(699,443)" d="m0 0 4 1 4 6-1 2h-2v-2h-2v-2l-4-2-1-2z" fill="#2B5176"/>
<path transform="translate(249,370)" d="m0 0 5 2v2l8 4v2l-5-2-10-6z" fill="#661A1F"/>
<path transform="translate(326,546)" d="m0 0 5 3 4 8-1 2-3-2-5-9z" fill="#95A3A6"/>
<path transform="translate(298,404)" d="m0 0 9 4-4 2-1 2-3-1z" fill="#24486B"/>
<path transform="translate(302,502)" d="m0 0h11l-4 3-19-1v-1z" fill="#808A89"/>
<path transform="translate(295,425)" d="m0 0 3 3 1 11-3-1-1-4z" fill="#4E3136"/>
<path transform="translate(492,657)" d="m0 0h2l-2 5-4 6-2-1 2-6z" fill="#BFCACD"/>
<path transform="translate(340,484)" d="m0 0 9 1 2 4-7-1v-3l-3 1h-9v-1z" fill="#6F8897"/>
<path transform="translate(434,464)" d="m0 0 1 3-12 7-2-1 6-5z" fill="#B18032"/>
<path transform="translate(677,335)" d="m0 0 7 5 7 8h-3l-11-11z" fill="#29435E"/>
<path transform="translate(351,472)" d="m0 0h2l-2 6 4 6-2 1-4-3-1-5h2z" fill="#C9CAC4"/>
<path transform="translate(332,424)" d="m0 0 5 1 7 4 1 4-9-5z" fill="#631D22"/>
<path transform="translate(447,519)" d="m0 0 4 1-11 5-4-2z" fill="#44525F"/>
<path transform="translate(692,432)" d="m0 0h4l-1 3-11 2-1-2z" fill="#2D2631"/>
<path transform="translate(593,387)" d="m0 0 3 1-2 3h-16v-1l14-2z" fill="#3E6A92"/>
<path transform="translate(549,505)" d="m0 0h2l1 4-11 3-1-2 7-3z" fill="#A5BEC7"/>
<path transform="translate(606,358)" d="m0 0m-1 1 2 2-10 6-2-1 4-4z" fill="#2F262E"/>
<path transform="translate(437,539)" d="m0 0 2 1v2h5l-4 2-6 1 1-5z" fill="#BCC9CD"/>
<path transform="translate(555,478)" d="m0 0h4v2l-5 3h-5l1-3z" fill="#324F69"/>
<path transform="translate(440,464)" d="m0 0 6 1-4 3h-8l3-3z" fill="#6D181D"/>
<path transform="translate(645,426)" d="m0 0 3 1h-2v2l-13 1 2-2z" fill="#2A4D6F"/>
<path transform="translate(267,415)" d="m0 0h2v6l-1 3-1 6h-1v-14z" fill="#1E2531"/>
<path transform="translate(700,259)" d="m0 0 5 2 5 4 1 3-5-2z" fill="#59282C"/>
<path transform="translate(524,500)" d="m0 0h4l-2 5-5-1v-2l-3-1z" fill="#B1BCC0"/>
<path transform="translate(502,501)" d="m0 0h16v1l-17 2z" fill="#303844"/>
<path transform="translate(434,524)" d="m0 0 4 1-8 4h-5l3-3z" fill="#3A4756"/>
</svg>
