<?xml version="1.0" encoding="UTF-8"?>
<svg version="1.1" viewBox="0 0 2048 549" width="1280" height="1280" xmlns="http://www.w3.org/2000/svg">
<path transform="translate(0)" d="m0 0h2048v549h-2048z" fill="#F8F8F8"/>
<path transform="translate(357,68)" d="m0 0h7l6 7 13 24 17 32 12 22 7 12 2 4 20-39 5-4 5-1 6 4 6 9 15 29 10 19 8 15v2l8-7 25-25 7-8 8-8 4-3h7l5 5 3 8 12 77 17 104 8 50v6l-16 8-28 15-21 12-24 13-23 13-29 16-3 1h-13l-9-4-24-13-17-10-22-12-23-13-27-15-21-12-1-3 4-23 11-71 14-89 17-108 5-33 5-5z" fill="#FFC933"/>
<path transform="translate(357,68)" d="m0 0h7l6 7 13 24 17 32 12 22 7 12 2 4 20-39 5-4 5-1 6 4 6 9 15 29 10 19 8 15-1 4-8 7-5 5-2 3h-2l-2 4h-2l-2 4-166 166-4 7-3-1 6-38 10-65 17-107 13-83 5-33 5-5z" fill="#FEA716"/>
<path transform="translate(1164,176)" d="m0 0h17l11 1v86l6-8 12-9 16-6 5-1h19l13 3 16 8 12 11 7 8 8 14 4 12 2 16v14l-2 14-5 15-9 14-9 10-12 9-10 5-18 4h-16l-15-5-13-7-13-13v20h-26z" fill="#707171"/>
<path transform="translate(1381,239)" d="m0 0h20l14 3 12 5 10 7 9 10 5 8 4 12 2 16v61l-1 30h-26v-20l-4 4-6 7-10 7-5 3-13 3-8 1h-10l-12-2-12-5-10-7-7-8-7-14-1-7v-15l4-12 6-10 10-9 16-8 16-4h26l18 4 9 4-3-16-5-9-7-6-10-5-3-1h-21l-10 4-8 6-7 10-24-10-1-3 5-9 8-9 11-8 11-5z" fill="#707171"/>
<path transform="translate(1665,239)" d="m0 0h22l16 4 14 7 12 11 7 9 6 12 5 18 1 6v16l-4 1h-111l1 13 5 12 7 9 10 7 9 4 6 1h13l10-2 9-4 8-7 7-11 16 6 9 4-6 12-11 12-11 8-13 6-13 3h-20l-19-5-16-8-12-11-7-10-7-14-4-14-1-7v-18l3-16 7-16 7-12 12-12 13-8 15-5z" fill="#707171"/>
<path transform="translate(1063,239)" d="m0 0h21l14 3 16 8 12 11 8 9 7 17 3 11 1 8v16l-1 1h-115l3 16 5 10 9 10 9 6 11 4h15l16-4 6-4 8-9 4-7 9 3 16 7-2 6-6 9-11 11-14 9-16 5-6 1h-18l-17-4-14-6-9-7-6-5-9-12-7-15-4-15-1-14 1-15 4-15 8-16 8-11 7-7 14-9 15-5z" fill="#707171"/>
<path transform="translate(734,176)" d="m0 0h107v27h-98l1 69h60l27 1v26h-88v93l-27-1-1-1v-213z" fill="#707171"/>
<path transform="translate(1524,239)" d="m0 0h20l15 4 12 6 10 9 6 7 3 6v3l-22 9-3-1-6-9-8-5-12-3h-16l-10 4-6 5-3 9 2 7 8 6 21 6 22 5 12 5 9 6 7 7 6 10 2 10v9l-2 9-5 10-11 11-7 5-14 5-10 2h-16l-16-3-13-5-10-8-6-5-10-14-3-8 24-10 3 3 6 10 9 8 11 5 13 1 12-2 10-5 4-6 1-3v-8l-3-6-6-5-13-4-31-8-10-4-11-7-9-9-4-9-1-4v-15l5-12 6-8 14-9 10-4z" fill="#707171"/>
<path transform="translate(420,172)" d="m0 0 5 5 7 9v3h2l7 11 5 9 3 9 6 10 1 4h7l10-9 19-19h2l1-2-1 4-7 6-5 5-2 3h-2l-2 4h-2l-2 4-166 166h-1v-5l6-11 8-16 10-18 12-24 12-22 14-27 12-22 14-27 11-20 8-16z" fill="#F48415"/>
<path transform="translate(1235,264)" d="m0 0 12 1 12 5 10 7 6 7 6 12 3 15v11l-2 13-4 10-6 9-7 7-12 7-7 2h-16l-15-5-9-7-7-8-6-13-2-7-1-17 2-12 5-13 8-11 8-6 8-4z" fill="#F8F8F8"/>
<path transform="translate(984,240)" d="m0 0 18 1 8 2-6 16-5 11-8-1h-11l-12 3-8 6-7 8-5 11-1 4-1 91-24-1-4-1v-146h27l1 21 7-10 12-9 13-5z" fill="#707171"/>
<path transform="translate(860,244)" d="m0 0h29v147h-28z" fill="#727170"/>
<path transform="translate(1387,318)" d="m0 0h17l14 3 10 5 1 1v10l-4 10-7 9-10 8-11 5-4 1h-16l-11-4-9-8-3-8v-7l4-10 8-8 7-4z" fill="#F8F8F8"/>
<path transform="translate(1062,265)" d="m0 0h20l9 2 9 5 7 7 6 10 2 5v5l-24 1h-60l-1-2 5-12 9-10 8-7z" fill="#F8F8F8"/>
<path transform="translate(1665,265)" d="m0 0h21l10 3 9 6 6 7 7 14v4l-26 1h-22l-37-1 2-6 6-11 8-9z" fill="#F8F8F8"/>
<path transform="translate(868,174)" d="m0 0h12l6 3 7 8 1 3v11l-6 9-6 4-3 1h-11l-6-4-6-7-1-3v-11l3-6 8-7z" fill="#707171"/>
</svg>
