<?xml version="1.0" encoding="UTF-8"?>
<svg version="1.1" viewBox="0 0 2048 583" width="1280" height="1280" xmlns="http://www.w3.org/2000/svg">
<path transform="translate(0)" d="m0 0h2048v583h-2048z" fill="#FCFCFD"/>
<path transform="translate(296,8)" d="m0 0h113l58 1-1 3-11 9-346 346-6 5-5 5-10-9-33-33-8-7-37-37 6-7 44-44 8-7 173-173 8-7 15-16 22-22 8-6z" fill="#3FC9FF"/>
<path transform="translate(300,268)" d="m0 0h42l127 1-5 5-16 15-13 13-7 8-96 96-8 7-7 7 2 4 148 148v1h-173l-8-7-137-137-8-7 1-4 8-7 136-136 8-6z" fill="#3FC9FF"/>
<path transform="translate(1727,218)" d="m0 0h24l19 3 15 5 16 8 14 10 9 9 11 15 8 16 6 18 3 18v30l-6 1h-181l3 18 5 16 7 13 11 13 12 9 13 6 15 4 7 1h13l15-3 13-5 12-7 11-10 11-16 6 1 28 14-1 4-7 11-11 13-11 10-15 10-17 8-19 5-17 2h-14l-20-2-17-5-19-10-13-10-13-13-9-13-9-17-6-18-3-15-1-8v-24l3-21 5-17 8-18 9-14 9-11 9-9 14-10 16-8 17-5z" fill="#78787A"/>
<path transform="translate(760,131)" d="m0 0h69l77 1v36l-2 1h-116l-34 1v112h137v36l-1 1h-137v142l-7 1h-30l-1-1v-329z" fill="#78787A"/>
<path transform="translate(1048,226)" d="m0 0h39l1 107 1 37 2 19 3 12 5 10 9 10 16 8 17 3 13-1 12-3 14-7 10-9 7-8 7-12 5-15 1-5 1-18 1-128h39v235l-11 1h-23l-3-1v-33h-2l-2 4-7 8-7 7-15 10-15 7-15 4-8 1h-16l-19-3-12-4-11-6-9-7-8-8-9-14-6-15-3-11-2-18z" fill="#78787A"/>
<path transform="translate(315,422)" d="m0 0 4 2 148 148v1h-173l-8-7-57-57 2-4 79-79z" fill="#075A9F"/>
<path transform="translate(1504,160)" d="m0 0h39l1 64 4 1 52 1v36l-56 1v76l1 63 2 11 5 9 8 6 11 3h10l12-3 7-3 3 1-1 35-3 3-15 4-7 1h-14l-16-3-12-5-10-7-10-10-7-12-4-16-1-13v-141h-40v-35l2-1 39-1-1-33z" fill="#78787A"/>
<path transform="translate(1337,160)" d="m0 0h39l1 65 57 1v15l-1 21h-57l1 124 2 21 4 12 4 5 12 6 5 1h11l14-4 5-2 1 1v35l-6 4-11 3-7 1h-15l-15-3-12-5-11-7-9-9-6-10-4-10-2-10v-153h-41v-36l41-1z" fill="#78787A"/>
<path transform="translate(228,335)" d="m0 0 2 4 10 9 8 7 13 12 50 50 1 6 2 1-12 11-73 73-7-6-73-73-6-5 1-5z" fill="#18B6FF"/>
<path transform="translate(2e3 218)" d="m0 0 18 1 15 4 1 1v42l-17-5-5-1h-21l-13 4-10 6-10 9-9 12-6 12-3 11-1 10-2 138h-38l-1-1v-235h38v36h2l2-6 6-9 10-10 10-7 15-8 11-3z" fill="#78787A"/>
<path transform="translate(953,132)" d="m0 0h38l1 328-1 1h-38z" fill="#78787A"/>
<path transform="translate(1726,255)" d="m0 0h28l13 3 15 8 12 11 6 8 7 14 4 16-1 3-8 1h-132l-2-1 1-8 6-15 7-12 11-12 11-8 10-5z" fill="#FDFDFD"/>
<path transform="translate(226,335)" d="m0 0 2 1-84 84-2 3-1-4 10-9z" fill="#2CC0FF"/>
<path transform="translate(457,9)" d="m0 0h10l-1 3-11 9-7 7h-2l2-4 5-7v-5l-4-2z" fill="#1EB9FF"/>
<path transform="translate(440,32)" d="m0 0h2l-2 4-20 20h-2l2-4z" fill="#25BCFF"/>
<path transform="translate(264,37)" d="m0 0 2 1-9 10-3 2 2-5z" fill="#28BEFF"/>
</svg>
