<?xml version="1.0" encoding="UTF-8"?>
<svg version="1.1" xmlns="http://www.w3.org/2000/svg" width="312" height="162">
<path d="M0 0 C102.96 0 205.92 0 312 0 C312 53.46 312 106.92 312 162 C209.04 162 106.08 162 0 162 C0 108.54 0 55.08 0 0 Z " fill="#101010" transform="translate(0,0)"/>
<path d="M0 0 C2.475 0.495 2.475 0.495 5 1 C5.25 3.25 5.25 3.25 5 6 C3 8.3125 3 8.3125 1 10 C2.0828125 11.0828125 2.0828125 11.0828125 3.1875 12.1875 C4.115625 13.115625 5.04375 14.04375 6 15 C6.94875 15.825 7.8975 16.65 8.875 17.5 C11 20 11 20 10.8125 22.8125 C10.544375 23.534375 10.27625 24.25625 10 25 C6.65750371 24.40312566 4.53563658 23.26396123 2 21 C2 20.34 2 19.68 2 19 C-1.62080297 17.87220891 -3.34413664 17.35238992 -7 18 C-9.28921257 19.63179768 -11.09986229 21.10498918 -13.0625 23.0625 C-13.55145752 23.53985596 -14.04041504 24.01721191 -14.54418945 24.5090332 C-16.87001753 27.00114032 -17.95567548 28.72859756 -18.5078125 32.109375 C-17.49711551 37.86257324 -12.84837806 41.4750881 -8.5 45.0625 C-4.89158032 46.41565738 -2.68481464 46.05280418 1 45 C2.68662458 43.35353315 4.35511706 41.68816933 6 40 C8.8125 39.6875 8.8125 39.6875 11 40 C11.4375 42.0625 11.4375 42.0625 11 45 C8.12233748 48.6048138 4.82772638 51.44818241 1 54 C-4.8055327 54.47586334 -7.86691973 53.98556709 -13 51 C-15.66796875 48.73046875 -15.66796875 48.73046875 -18.1875 46.1875 C-19.44626953 44.94033203 -19.44626953 44.94033203 -20.73046875 43.66796875 C-24.01908219 39.80200838 -25.84202319 36.50077967 -26.375 31.4375 C-25.76865977 25.8793812 -23.50854562 23.32643816 -19.375 19.8125 C-18.76398438 19.32394531 -18.15296875 18.83539063 -17.5234375 18.33203125 C-15.87027626 17.05635999 -15.87027626 17.05635999 -15 15 C-14.34 15 -13.68 15 -13 15 C-12.67 14.01 -12.34 13.02 -12 12 C-9.17533241 8.86996295 -6.72872563 6.86436281 -3 5 C-2.67 4.01 -2.34 3.02 -2 2 C-1.34 2 -0.68 2 0 2 C0 1.34 0 0.68 0 0 Z " fill="#EDEDEC" transform="translate(159,36)"/>
<path d="M0 0 C0.45375 0.495 0.9075 0.99 1.375 1.5 C2.87635519 3.22609337 2.87635519 3.22609337 5 3 C5.33 2.34 5.66 1.68 6 1 C7.32 1 8.64 1 10 1 C10.33 0.67 10.66 0.34 11 0 C12.99964982 -0.08758003 15.0023611 -0.10696576 17.00390625 -0.09765625 C18.21884766 -0.09443359 19.43378906 -0.09121094 20.68554688 -0.08789062 C21.96494141 -0.07951172 23.24433594 -0.07113281 24.5625 -0.0625 C25.84576172 -0.05798828 27.12902344 -0.05347656 28.45117188 -0.04882812 C31.63416022 -0.03699545 34.81705762 -0.02051068 38 0 C38.625 2.375 38.625 2.375 39 5 C36.50494038 7.49505962 35.32671112 7.35948376 31.875 7.625 C30.96492188 7.69976562 30.05484375 7.77453125 29.1171875 7.8515625 C28.41851562 7.90054688 27.71984375 7.94953125 27 8 C28.2065625 8.433125 28.2065625 8.433125 29.4375 8.875 C32 10 32 10 33 12 C33.039992 13.99960012 33.04346799 16.00047242 33 18 C33.66 18.33 34.32 18.66 35 19 C34.34 19.99 33.68 20.98 33 22 C32.9603287 23.66619446 32.95615553 25.33391013 33 27 C32 28 32 28 29.4375 28.0625 C28.633125 28.041875 27.82875 28.02125 27 28 C26.67 28.66 26.34 29.32 26 30 C24.02 29.67 22.04 29.34 20 29 C21.32 28.01 22.64 27.02 24 26 C22.7625 26.2475 22.7625 26.2475 21.5 26.5 C17.58727683 27.05896045 13.94816827 27.06807187 10 27 C9.34 25.68 8.68 24.36 8 23 C8.7425 23.2475 8.7425 23.2475 9.5 23.5 C16.307796 24.90867995 16.307796 24.90867995 22.484375 22.390625 C28.01576189 17.73963557 28.01576189 17.73963557 30 11 C26.13450474 12.01239162 24.08703704 12.91863929 21.125 15.6875 C18 18 18 18 14.1875 18.375 C8.39219873 17.26740381 4.62962064 12.32854103 1 8 C-0.35439668 5.29120665 -0.06501451 2.99066732 0 0 Z " fill="#1D1917" transform="translate(140,65)"/>
<path d="M0 0 C0.185625 0.61875 0.37125 1.2375 0.5625 1.875 C2.70462733 5.04162301 5.39686674 5.09921668 9 6 C11 8 11 8 11.3125 11.5 C11.209375 12.655 11.10625 13.81 11 15 C5.73335551 18.51109633 -0.88169 17.63814631 -7 17 C-10.23558392 15.73082314 -10.90324497 14.92274944 -13 12 C-13.625 9 -13.625 9 -13 6 C-9.11952432 0.17928648 -6.8224337 -0.12634136 0 0 Z " fill="#202020" transform="translate(164,104)"/>
<path d="M0 0 C1.093125 0.37125 2.18625 0.7425 3.3125 1.125 C4.529375 1.41375 5.74625 1.7025 7 2 C7.99 1.34 8.98 0.68 10 0 C10.33 0.66 10.66 1.32 11 2 C10.67 2.33 10.34 2.66 10 3 C10.33 3.66 10.66 4.32 11 5 C11.928125 4.95875 12.85625 4.9175 13.8125 4.875 C17 5 17 5 20 7 C20 7.99 20 8.98 20 10 C18.02 10.99 16.04 11.98 14 13 C14.99 13.33 15.98 13.66 17 14 C17.99 13.34 18.98 12.68 20 12 C19.67 13.32 19.34 14.64 19 16 C16.1875 16.625 16.1875 16.625 13 17 C12.01 16.34 11.02 15.68 10 15 C9.67 15.66 9.34 16.32 9 17 C5.625 17.125 5.625 17.125 2 17 C0 15 0 15 -0.1953125 11.5234375 C-0.18201493 10.14049032 -0.15816232 8.75761346 -0.125 7.375 C-0.11597656 6.66859375 -0.10695313 5.9621875 -0.09765625 5.234375 C-0.07407603 3.48943902 -0.03820461 1.74467705 0 0 Z " fill="#212121" transform="translate(109,104)"/>
<path d="M0 0 C3.53650827 0.55289073 4.64658905 1.59779582 6.7734375 4.43359375 C6.8971875 5.13484375 7.0209375 5.83609375 7.1484375 6.55859375 C7.4578125 7.48671875 7.4578125 7.48671875 7.7734375 8.43359375 C10.76959696 9.73815935 10.76959696 9.73815935 13.7734375 10.43359375 C13.7734375 10.76359375 13.7734375 11.09359375 13.7734375 11.43359375 C12.58105469 11.47097656 11.38867188 11.50835937 10.16015625 11.546875 C8.5937185 11.61253407 7.02731366 11.67898143 5.4609375 11.74609375 C4.67525391 11.76865234 3.88957031 11.79121094 3.08007812 11.81445312 C2.32275391 11.84990234 1.56542969 11.88535156 0.78515625 11.921875 C-0.25958862 11.96115112 -0.25958862 11.96115112 -1.32543945 12.0012207 C-3.34769908 12.28073335 -3.34769908 12.28073335 -4.72729492 13.96557617 C-6.2265625 15.43359375 -6.2265625 15.43359375 -10.2265625 15.43359375 C-11.2165625 15.76359375 -12.2065625 16.09359375 -13.2265625 16.43359375 C-14.04296875 14.296875 -14.04296875 14.296875 -14.2265625 11.43359375 C-12.59419666 9.18111127 -11.14486979 7.51106147 -9.1640625 5.62109375 C-8.68517578 5.11900391 -8.20628906 4.61691406 -7.71289062 4.09960938 C-5.16012725 1.58785425 -3.58002976 0.48109359 0 0 Z " fill="#090B09" transform="translate(155.2265625,52.56640625)"/>
<path d="M0 0 C0.66 0 1.32 0 2 0 C2 1.65 2 3.3 2 5 C2.66 5 3.32 5 4 5 C4 5.66 4 6.32 4 7 C3.34 7 2.68 7 2 7 C2 9.64 2 12.28 2 15 C2.99 15 3.98 15 5 15 C5 15.66 5 16.32 5 17 C4.236875 17.103125 3.47375 17.20625 2.6875 17.3125 C-0.17059424 18.04364039 -1.15742885 18.76951913 -3 21 C-3.66 20.67 -4.32 20.34 -5 20 C-5 19.34 -5 18.68 -5 18 C-7.31 17.34 -9.62 16.68 -12 16 C-12.625 13.625 -12.625 13.625 -13 11 C-12.34 10.34 -11.68 9.68 -11 9 C-10.01 9 -9.02 9 -8 9 C-7.34 8.67 -6.68 8.34 -6 8 C-7.32 7.34 -8.64 6.68 -10 6 C-7.39417629 5.06934867 -6.35801776 4.85082593 -3.75 5.9375 C-3.1725 6.288125 -2.595 6.63875 -2 7 C-1.34 4.69 -0.68 2.38 0 0 Z " fill="#373737" transform="translate(145,104)"/>
<path d="M0 0 C1.12591553 0.00523682 2.25183105 0.01047363 3.41186523 0.01586914 C4.62680664 0.0190918 5.84174805 0.02231445 7.09350586 0.02563477 C8.37290039 0.03401367 9.65229492 0.04239258 10.97045898 0.05102539 C12.2537207 0.05553711 13.53698242 0.06004883 14.85913086 0.06469727 C18.04211921 0.07652994 21.22501661 0.09301471 24.40795898 0.11352539 C24.79014666 1.76967196 25.12191 3.43809563 25.40795898 5.11352539 C24.40795898 6.11352539 24.40795898 6.11352539 21.81591797 6.22705078 C20.69000244 6.22181396 19.56408691 6.21657715 18.40405273 6.21118164 C17.18911133 6.20795898 15.97416992 6.20473633 14.72241211 6.20141602 C13.44301758 6.19303711 12.16362305 6.1846582 10.84545898 6.17602539 C9.56219727 6.17151367 8.27893555 6.16700195 6.95678711 6.16235352 C3.77379876 6.15052085 0.59090136 6.13403607 -2.59204102 6.11352539 C-2.97422869 4.45737882 -3.30599203 2.78895515 -3.59204102 1.11352539 C-2.59204102 0.11352539 -2.59204102 0.11352539 0 0 Z " fill="#B5B4B5" transform="translate(153.592041015625,64.886474609375)"/>
<path d="M0 0 C0.680625 0.12375 1.36125 0.2475 2.0625 0.375 C2.5 2.4375 2.5 2.4375 2.0625 5.375 C-0.81516252 8.9798138 -4.10977362 11.82318241 -7.9375 14.375 C-12.89495506 14.69483581 -16.41788922 14.63480539 -20.9375 12.375 C-19.6175 11.715 -18.2975 11.055 -16.9375 10.375 C-16.9375 9.055 -16.9375 7.735 -16.9375 6.375 C-15.926875 6.49875 -14.91625 6.6225 -13.875 6.75 C-9.10709444 6.29591376 -7.89565686 4.89740367 -4.58203125 1.7109375 C-2.9375 0.375 -2.9375 0.375 0 0 Z " fill="#D89734" transform="translate(167.9375,75.625)"/>
<path d="M0 0 C0.66 0 1.32 0 2 0 C2.10794277 2.26979665 2.18556176 4.54105196 2.25 6.8125 C2.29640625 8.07707031 2.3428125 9.34164062 2.390625 10.64453125 C2 14 2 14 0.14453125 15.95703125 C-2 17 -2 17 -4.5625 16.875 C-7.20891023 15.92500658 -8.47606274 15.37056907 -10 13 C-9.85873193 10.17463858 -9.3554723 8.51543484 -7.75 6.1875 C-5.41988723 4.60635205 -3.75498245 4.77662304 -1 5 C-0.67 3.35 -0.34 1.7 0 0 Z " fill="#DBDBDB" transform="translate(187,104)"/>
<path d="M0 0 C-0.99 1.485 -0.99 1.485 -2 3 C-2.0396713 4.66619446 -2.04384447 6.33391013 -2 8 C-3 9 -3 9 -5.5625 9.0625 C-6.366875 9.041875 -7.17125 9.02125 -8 9 C-8.33 9.66 -8.66 10.32 -9 11 C-11.97 10.505 -11.97 10.505 -15 10 C-13.68 9.01 -12.36 8.02 -11 7 C-11.825 7.165 -12.65 7.33 -13.5 7.5 C-17.41272317 8.05896045 -21.05183173 8.06807187 -25 8 C-25.66 6.68 -26.32 5.36 -27 4 C-26.505 4.165 -26.01 4.33 -25.5 4.5 C-21.97151633 5.20569673 -18.56071606 5.5373314 -15 5 C-13.2925002 3.71937515 -11.62626404 2.38232443 -10 1 C-3.11036789 -1.55518395 -3.11036789 -1.55518395 0 0 Z " fill="#18140F" transform="translate(175,84)"/>
<path d="M0 0 C1.8125 1.0625 1.8125 1.0625 3 3 C3.375 6.5625 3.375 6.5625 3 10 C-0.23253796 12.15502531 -1.25150923 12.46856135 -5 12 C-6.8125 10.875 -6.8125 10.875 -8 9 C-8.39769128 5.81846974 -8.55198782 3.87155972 -6.8125 1.125 C-4.34492892 -0.40659584 -2.85480169 -0.42822025 0 0 Z " fill="#D0D0D0" transform="translate(172,109)"/>
<path d="M0 0 C5.28218168 2.13802592 9.08854939 5.09028439 12 10 C11.875 12.9375 11.875 12.9375 11 15 C7.65750371 14.40312566 5.53563658 13.26396123 3 11 C3 10.34 3 9.68 3 9 C0.36 8.34 -2.28 7.68 -5 7 C-5 6.34 -5 5.68 -5 5 C-4.34 5 -3.68 5 -3 5 C-2.67 4.01 -2.34 3.02 -2 2 C-1.34 2 -0.68 2 0 2 C0 1.34 0 0.68 0 0 Z " fill="#E29E3B" transform="translate(158,46)"/>
<path d="M0 0 C4.875 1.75 4.875 1.75 6 4 C3.69 4.66 1.38 5.32 -1 6 C-1 7.32 -1 8.64 -1 10 C-0.34 10.66 0.32 11.32 1 12 C1.39764263 13.98821313 1.73775349 15.98944339 2 18 C0.35 18.33 -1.3 18.66 -3 19 C-3.28875 18.360625 -3.5775 17.72125 -3.875 17.0625 C-4.82823451 14.84793921 -4.82823451 14.84793921 -7 14 C-7.33 13.01 -7.66 12.02 -8 11 C-7.34 10.67 -6.68 10.34 -6 10 C-6.33 9.67 -6.66 9.34 -7 9 C-7.9590625 9.2784375 -7.9590625 9.2784375 -8.9375 9.5625 C-9.618125 9.706875 -10.29875 9.85125 -11 10 C-11.66 9.34 -12.32 8.68 -13 8 C-10.1875 6.4375 -10.1875 6.4375 -7 5 C-6.01 5.33 -5.02 5.66 -4 6 C-3.525625 5.195625 -3.05125 4.39125 -2.5625 3.5625 C-1 1 -1 1 0 0 Z " fill="#1D1D1D" transform="translate(134,109)"/>
<path d="M0 0 C0.33 1.65 0.66 3.3 1 5 C-0.98 5.99 -2.96 6.98 -5 8 C-1.10540926 8.21081851 -1.10540926 8.21081851 2 7 C1.375 8.9375 1.375 8.9375 0 11 C-2.875 12 -2.875 12 -6 12 C-8.375 10.375 -8.375 10.375 -10 8 C-10.49089348 5.12476676 -10.41359492 3.70554428 -8.9375 1.1875 C-6.00731249 -0.60842137 -3.3527047 -0.18977574 0 0 Z " fill="#D5D5D5" transform="translate(201,109)"/>
<path d="M0 0 C2.0625 0.4375 2.0625 0.4375 4 1 C4 1.99 4 2.98 4 4 C4.66 4 5.32 4 6 4 C6.33 4.99 6.66 5.98 7 7 C7.495 7.433125 7.99 7.86625 8.5 8.3125 C10.60504861 10.68067968 10.65720173 12.91481553 11 16 C11.99 16.33 12.98 16.66 14 17 C14 17.33 14 17.66 14 18 C5.75 18 -2.5 18 -11 18 C-11 17.67 -11 17.34 -11 17 C-6.38 16.67 -1.76 16.34 3 16 C1.68 15.34 0.36 14.68 -1 14 C-0.67 12.68 -0.34 11.36 0 10 C0.433125 10.495 0.86625 10.99 1.3125 11.5 C2.99740483 13.33218192 2.99740483 13.33218192 6 13 C5.51428134 8.62853208 4.16325079 6.9591701 1 4 C1 3.34 1 2.68 1 2 C0.34 1.67 -0.32 1.34 -1 1 C-0.67 0.67 -0.34 0.34 0 0 Z " fill="#24190E" transform="translate(163,47)"/>
<path d="M0 0 C1.32 0.66 2.64 1.32 4 2 C3.01 3.485 3.01 3.485 2 5 C1.4161804 7.9149255 1.4161804 7.9149255 2 11 C4.41666771 13.75041666 4.41666771 13.75041666 7 16 C7 16.66 7 17.32 7 18 C6.34 18.66 5.68 19.32 5 20 C5 20.66 5 21.32 5 22 C4.34 22 3.68 22 3 22 C3 21.01 3 20.02 3 19 C1.35 19 -0.3 19 -2 19 C-2 18.34 -2 17.68 -2 17 C-1.34 17 -0.68 17 0 17 C0 16.01 0 15.02 0 14 C-0.99 14 -1.98 14 -3 14 C-3 11.36 -3 8.72 -3 6 C-2.34 6 -1.68 6 -1 6 C-1.33 4.68 -1.66 3.36 -2 2 C-1.34 2 -0.68 2 0 2 C0 1.34 0 0.68 0 0 Z " fill="#191919" transform="translate(150,105)"/>
<path d="M0 0 C0.33 1.32 0.66 2.64 1 4 C-0.98 4.99 -2.96 5.98 -5 7 C-4.01 7.33 -3.02 7.66 -2 8 C-1.01 7.34 -0.02 6.68 1 6 C0.67 7.32 0.34 8.64 0 10 C-2.75 10.75 -2.75 10.75 -6 11 C-8.375 9.375 -8.375 9.375 -10 7 C-10.49494413 4.1010415 -10.38645798 2.68198467 -8.9375 0.125 C-5.88430685 -1.64782183 -3.33588292 -0.69235306 0 0 Z " fill="#CECECE" transform="translate(128,110)"/>
<path d="M0 0 C0.45375 0.495 0.9075 0.99 1.375 1.5 C2.87635519 3.22609337 2.87635519 3.22609337 5 3 C5.33 2.34 5.66 1.68 6 1 C7.32 1.33 8.64 1.66 10 2 C10.33 3.32 10.66 4.64 11 6 C10.01 6 9.02 6 8 6 C8.33 7.98 8.66 9.96 9 12 C8.01 12.33 7.02 12.66 6 13 C0.11816193 7.08315098 0.11816193 7.08315098 -0.375 2.5625 C-0.25125 1.716875 -0.1275 0.87125 0 0 Z " fill="#161616" transform="translate(140,65)"/>
<path d="M0 0 C1.65 0.33 3.3 0.66 5 1 C5.37010337 4.3309303 5.27461204 5.62731223 3.25 8.375 C1 10 1 10 -1.125 9.6875 C-1.74375 9.460625 -2.3625 9.23375 -3 9 C-3.99 9.495 -3.99 9.495 -5 10 C-5.33 8.68 -5.66 7.36 -6 6 C-5.01 5.67 -4.02 5.34 -3 5 C-2.67 4.01 -2.34 3.02 -2 2 C-1.34 2 -0.68 2 0 2 C0 1.34 0 0.68 0 0 Z " fill="#E7E7E4" transform="translate(159,36)"/>
<path d="M0 0 C1.67542976 0.28604898 3.34385343 0.61781233 5 1 C5.33 2.32 5.66 3.64 6 5 C4.02 5.99 2.04 6.98 0 8 C2.89186786 9.33304698 2.89186786 9.33304698 5.1875 8.0625 C5.785625 7.711875 6.38375 7.36125 7 7 C6.375 8.9375 6.375 8.9375 5 11 C2.0625 11.875 2.0625 11.875 -1 12 C-1.99 11.34 -2.98 10.68 -4 10 C-3.67 8.02 -3.34 6.04 -3 4 C-2.34 4.33 -1.68 4.66 -1 5 C1.11683841 4.10836423 1.11683841 4.10836423 3 3 C1.68 2.34 0.36 1.68 -1 1 C-0.67 0.67 -0.34 0.34 0 0 Z " fill="#D7D7D7" transform="translate(136,109)"/>
<path d="M0 0 C1.0725 0.103125 2.145 0.20625 3.25 0.3125 C3.25 0.9725 3.25 1.6325 3.25 2.3125 C0.94 2.9725 -1.37 3.6325 -3.75 4.3125 C-3.75 6.6225 -3.75 8.9325 -3.75 11.3125 C-0.285 12.7975 -0.285 12.7975 3.25 14.3125 C2.92 14.9725 2.59 15.6325 2.25 16.3125 C-1.15680413 16.00279053 -3.31041967 15.62483339 -6.125 13.625 C-8.27675145 10.56289216 -8.35011905 8.98822916 -7.75 5.3125 C-5.54139561 1.24866793 -4.68198632 0.39016553 0 0 Z " fill="#D0D0D0" transform="translate(158.75,104.6875)"/>
<path d="M0 0 C1.65 0 3.3 0 5 0 C5 1.65 5 3.3 5 5 C4.34 5 3.68 5 3 5 C1.81503452 9.89895217 1.81503452 9.89895217 3.4375 14.4375 C3.953125 14.953125 4.46875 15.46875 5 16 C4.01 16 3.02 16 2 16 C2 15.34 2 14.68 2 14 C1.01 14 0.02 14 -1 14 C-1.12375 12.906875 -1.2475 11.81375 -1.375 10.6875 C-1.75464801 6.92618198 -1.75464801 6.92618198 -4 4 C-2.68 3.67 -1.36 3.34 0 3 C0 2.01 0 1.02 0 0 Z " fill="#232323" transform="translate(176,105)"/>
<path d="M0 0 C7.59 0 15.18 0 23 0 C22.67 2.64 22.34 5.28 22 8 C22.66 8.33 23.32 8.66 24 9 C23.67 9.66 23.34 10.32 23 11 C22.34 11 21.68 11 21 11 C20.67 8.36 20.34 5.72 20 3 C19.39414063 2.93941406 18.78828125 2.87882812 18.1640625 2.81640625 C13.56770833 2.35677083 8.97135417 1.89713542 4.375 1.4375 C3.53710938 1.35371094 2.69921875 1.26992187 1.8359375 1.18359375 C1.23007813 1.12300781 0.62421875 1.06242187 0 1 C0 0.67 0 0.34 0 0 Z " fill="#070B0A" transform="translate(152,72)"/>
<path d="M0 0 C-0.33 0.66 -0.66 1.32 -1 2 C-3.46051216 2.50753628 -5.82593035 2.88743687 -8.3125 3.1875 C-9.32860352 3.32961914 -9.32860352 3.32961914 -10.36523438 3.47460938 C-13.80533261 3.91513026 -16.70274779 4.19514797 -20 3 C-20 2.34 -20 1.68 -20 1 C-16.89704677 0.22426169 -14.05538379 -0.04694293 -10.875 0 C0 0 0 0 0 0 Z " fill="#13131B" transform="translate(165,91)"/>
<path d="M0 0 C0.99 0.33 1.98 0.66 3 1 C3.09765625 7.15234375 3.09765625 7.15234375 3 9 C2 10 2 10 -0.5625 10.0625 C-1.366875 10.041875 -2.17125 10.02125 -3 10 C-3.33 8.35 -3.66 6.7 -4 5 C-3.01 5 -2.02 5 -1 5 C-1 4.34 -1 3.68 -1 3 C-1.66 2.67 -2.32 2.34 -3 2 C-2.01 1.34 -1.02 0.68 0 0 Z " fill="#191919" transform="translate(159,108)"/>
<path d="M0 0 C1.67542976 0.28604898 3.34385343 0.61781233 5 1 C5.625 3.375 5.625 3.375 6 6 C5.34 6.66 4.68 7.32 4 8 C0.46428571 7.46428571 0.46428571 7.46428571 -1 6 C-1.125 3.5 -1.125 3.5 -1 1 C-0.67 0.67 -0.34 0.34 0 0 Z " fill="#1D1D1D" transform="translate(181,111)"/>
<path d="M0 0 C2.625 0.375 2.625 0.375 5 1 C5.125 3.375 5.125 3.375 5 6 C4.34 6.66 3.68 7.32 3 8 C0.875 7.625 0.875 7.625 -1 7 C-1.625 4.625 -1.625 4.625 -2 2 C-1.34 1.34 -0.68 0.68 0 0 Z " fill="#1B1B1B" transform="translate(168,111)"/>
<path d="M0 0 C1.32 0 2.64 0 4 0 C3 3 3 3 1 5 C1.33 5.66 1.66 6.32 2 7 C3.98 6.34 5.96 5.68 8 5 C7.375 6.9375 7.375 6.9375 6 9 C3 9.875 3 9.875 0 10 C-2 8 -2 8 -2.25 5 C-2 2 -2 2 0 0 Z " fill="#616161" transform="translate(195,111)"/>
<path d="M0 0 C0.66 0 1.32 0 2 0 C2.33 4.62 2.66 9.24 3 14 C4.65 14.33 6.3 14.66 8 15 C8 15.66 8 16.32 8 17 C5.125 17.125 5.125 17.125 2 17 C0 15 0 15 -0.1953125 11.5234375 C-0.18201493 10.14049032 -0.15816232 8.75761346 -0.125 7.375 C-0.11597656 6.66859375 -0.10695313 5.9621875 -0.09765625 5.234375 C-0.07407603 3.48943902 -0.03820461 1.74467705 0 0 Z " fill="#D7D7D7" transform="translate(109,104)"/>
<path d="M0 0 C2.75 -0.25 2.75 -0.25 6 0 C8.375 2 8.375 2 10 4 C9.67 4.66 9.34 5.32 9 6 C5.37 6 1.74 6 -2 6 C-1.67 5.01 -1.34 4.02 -1 3 C-0.34 2.67 0.32 2.34 1 2 C0.67 1.34 0.34 0.68 0 0 Z " fill="#180B0B" transform="translate(152,53)"/>
<path d="M0 0 C0.66 0 1.32 0 2 0 C2 1.65 2 3.3 2 5 C2.66 5 3.32 5 4 5 C4 5.66 4 6.32 4 7 C3.34 7 2.68 7 2 7 C2 9.64 2 12.28 2 15 C2.99 15 3.98 15 5 15 C5 15.66 5 16.32 5 17 C3.35 16.67 1.7 16.34 0 16 C0 10.72 0 5.44 0 0 Z " fill="#DBDBDB" transform="translate(145,104)"/>
<path d="M0 0 C0.99 0.33 1.98 0.66 3 1 C2.01 2.485 2.01 2.485 1 4 C0.71337567 8.14776273 0.71337567 8.14776273 2 12 C-0.3125 12.6875 -0.3125 12.6875 -3 13 C-4.8125 11.5625 -4.8125 11.5625 -6 10 C-5.01 9.67 -4.02 9.34 -3 9 C-3 7.02 -3 5.04 -3 3 C-2.34 3 -1.68 3 -1 3 C-0.67 2.01 -0.34 1.02 0 0 Z " fill="#2B2B2B" transform="translate(164,108)"/>
<path d="M0 0 C1.8125 1.5625 1.8125 1.5625 3 3 C2.34 4.32 1.68 5.64 1 7 C0.67 6.67 0.34 6.34 0 6 C-0.66 6.66 -1.32 7.32 -2 8 C-2.33 6.02 -2.66 4.04 -3 2 C-4.32 2 -5.64 2 -7 2 C-7 1.34 -7 0.68 -7 0 C-4.26634878 -1.36682561 -2.89333621 -0.84683011 0 0 Z " fill="#202020" transform="translate(204,106)"/>
<path d="M0 0 C0.763125 0.20625 1.52625 0.4125 2.3125 0.625 C2.875 2.5625 2.875 2.5625 3.3125 4.625 C2.3125 5.625 2.3125 5.625 -0.0625 5.9375 C-2.6875 5.625 -2.6875 5.625 -4.5 3.625 C-4.891875 2.965 -5.28375 2.305 -5.6875 1.625 C-2.6875 -0.375 -2.6875 -0.375 0 0 Z " fill="#F4ECE3" transform="translate(148.6875,81.375)"/>
<path d="M0 0 C1.12591553 0.00523682 2.25183105 0.01047363 3.41186523 0.01586914 C4.62680664 0.0190918 5.84174805 0.02231445 7.09350586 0.02563477 C8.37290039 0.03401367 9.65229492 0.04239258 10.97045898 0.05102539 C12.2537207 0.05553711 13.53698242 0.06004883 14.85913086 0.06469727 C18.04211921 0.07652994 21.22501661 0.09301471 24.40795898 0.11352539 C24.40795898 0.44352539 24.40795898 0.77352539 24.40795898 1.11352539 C15.82795898 1.44352539 7.24795898 1.77352539 -1.59204102 2.11352539 C-1.92204102 3.43352539 -2.25204102 4.75352539 -2.59204102 6.11352539 C-2.97422869 4.45737882 -3.30599203 2.78895515 -3.59204102 1.11352539 C-2.59204102 0.11352539 -2.59204102 0.11352539 0 0 Z " fill="#969794" transform="translate(153.592041015625,64.886474609375)"/>
<path d="M0 0 C0.66 0.33 1.32 0.66 2 1 C1.67 2.98 1.34 4.96 1 7 C-0.11375 7.0825 -1.2275 7.165 -2.375 7.25 C-3.57125 7.4975 -4.7675 7.745 -6 8 C-7.3762794 9.91764174 -7.3762794 9.91764174 -8 12 C-8.99 12.495 -8.99 12.495 -10 13 C-9.64005447 10.3364031 -9.28838998 8.41816548 -7.75 6.1875 C-5.41988723 4.60635205 -3.75498245 4.77662304 -1 5 C-0.67 3.35 -0.34 1.7 0 0 Z " fill="#C1C1C1" transform="translate(187,104)"/>
<path d="M0 0 C0.66 0.33 1.32 0.66 2 1 C2 4 2 4 0.625 5.6875 C-1 7 -1 7 -3 7 C-3.28875 7.639375 -3.5775 8.27875 -3.875 8.9375 C-5 11 -5 11 -7 12 C-7.33 11.01 -7.66 10.02 -8 9 C-7.13375 8.1646875 -7.13375 8.1646875 -6.25 7.3125 C-3.9889727 4.98866639 -1.98935393 2.55774076 0 0 Z " fill="#F2EDDA" transform="translate(156,44)"/>
<path d="M0 0 C1.97303774 1.97303774 2.77145934 3.54291869 4 6 C4.66 6.66 5.32 7.32 6 8 C3.6875 8.6875 3.6875 8.6875 1 9 C-0.8125 7.5625 -0.8125 7.5625 -2 6 C-1.34 4.02 -0.68 2.04 0 0 Z " fill="#1E1E1E" transform="translate(109,119)"/>
<path d="M0 0 C4.875 1.75 4.875 1.75 6 4 C4.88625 4.28875 3.7725 4.5775 2.625 4.875 C-1.00291092 5.69241329 -1.00291092 5.69241329 -3 8 C-3.36923077 3.44615385 -3.36923077 3.44615385 -1.5 1.1875 C-1.005 0.795625 -0.51 0.40375 0 0 Z " fill="#797979" transform="translate(134,109)"/>
<path d="M0 0 C0.66 0.33 1.32 0.66 2 1 C1.67 2.32 1.34 3.64 1 5 C-1.31 4.67 -3.62 4.34 -6 4 C-6 3.01 -6 2.02 -6 1 C-4.7934375 1.0309375 -4.7934375 1.0309375 -3.5625 1.0625 C-1.06645115 1.29633621 -1.06645115 1.29633621 0 0 Z " fill="#ADAAA4" transform="translate(177,66)"/>
<path d="M0 0 C-1.28519565 2.86697492 -2.57129254 4.97607712 -5 7 C-5.66 7 -6.32 7 -7 7 C-7.66 8.32 -8.32 9.64 -9 11 C-9.33 10.01 -9.66 9.02 -10 8 C-8.71451591 6.66070495 -7.42141845 5.32871357 -6.125 4 C-5.04605469 2.88625 -5.04605469 2.88625 -3.9453125 1.75 C-2 0 -2 0 0 0 Z " fill="#242525" transform="translate(151,44)"/>
<path d="M0 0 C1.65 0 3.3 0 5 0 C5.33 1.98 5.66 3.96 6 6 C5.01 6.495 5.01 6.495 4 7 C2.66666667 5.66666667 1.33333333 4.33333333 0 3 C0 2.01 0 1.02 0 0 Z " fill="#222222" transform="translate(137,104)"/>
<path d="M0 0 C2.0625 0.4375 2.0625 0.4375 4 1 C4 1.99 4 2.98 4 4 C4.66 4 5.32 4 6 4 C6.33 5.65 6.66 7.3 7 9 C4.95880212 7.38405168 2.95927063 5.7143618 1 4 C1 3.34 1 2.68 1 2 C0.34 1.67 -0.32 1.34 -1 1 C-0.67 0.67 -0.34 0.34 0 0 Z " fill="#321C07" transform="translate(163,47)"/>
<path d="M0 0 C0.99 0.33 1.98 0.66 3 1 C1.02 3.97 1.02 3.97 -1 7 C-2.32 6.34 -3.64 5.68 -5 5 C-3.35 3.35 -1.7 1.7 0 0 Z " fill="#070605" transform="translate(164,41)"/>
<path d="M0 0 C-0.33 0.99 -0.66 1.98 -1 3 C-1.66 3 -2.32 3 -3 3 C-3.99 3.309375 -3.99 3.309375 -5 3.625 C-5.66 3.74875 -6.32 3.8725 -7 4 C-7.66 3.34 -8.32 2.68 -9 2 C-3.375 -1.125 -3.375 -1.125 0 0 Z " fill="#3C3C3C" transform="translate(130,115)"/>
<path d="M0 0 C0.33 0 0.66 0 1 0 C1 4.29 1 8.58 1 13 C0.01 13.495 0.01 13.495 -1 14 C-1.33 11.36 -1.66 8.72 -2 6 C-1.34 6 -0.68 6 0 6 C0 4.02 0 2.04 0 0 Z " fill="#E9E9E9" transform="translate(188,105)"/>
<path d="M0 0 C4.44936709 -0.36075949 4.44936709 -0.36075949 6.8125 1.1875 C8.36678206 3.55982525 8.22537188 5.22041345 8 8 C7.773125 7.360625 7.54625 6.72125 7.3125 6.0625 C6.1522833 3.75631253 6.1522833 3.75631253 3.5 3.1875 C1.00209044 2.78526509 1.00209044 2.78526509 -1 4 C-0.67 2.68 -0.34 1.36 0 0 Z " fill="#E1E1E1" transform="translate(167,109)"/>
<path d="M0 0 C3.63 0.66 7.26 1.32 11 2 C10.67 2.66 10.34 3.32 10 4 C7.36 4 4.72 4 2 4 C1.34 2.68 0.68 1.36 0 0 Z " fill="#2D1603" transform="translate(148,88)"/>
<path d="M0 0 C1.32 0.33 2.64 0.66 4 1 C4 1.66 4 2.32 4 3 C3.01 3.495 3.01 3.495 2 4 C1.67 4.99 1.34 5.98 1 7 C1 6.34 1 5.68 1 5 C-0.32 4.67 -1.64 4.34 -3 4 C-2.67 3.34 -2.34 2.68 -2 2 C-1.34 2 -0.68 2 0 2 C0 1.34 0 0.68 0 0 Z " fill="#1C1C1C" transform="translate(163,120)"/>
<path d="M0 0 C2.13093906 1.06546953 3.36587557 2.29159719 5 4 C4.01 5.485 4.01 5.485 3 7 C3 6.34 3 5.68 3 5 C1.35 5 -0.3 5 -2 5 C-1.34 3.35 -0.68 1.7 0 0 Z " fill="#242424" transform="translate(114,114)"/>
<path d="M0 0 C0.66 0 1.32 0 2 0 C1.67 2.97 1.34 5.94 1 9 C-0.32 7.35 -1.64 5.7 -3 4 C-2.34 3.34 -1.68 2.68 -1 2 C-0.67 1.34 -0.34 0.68 0 0 Z " fill="#292929" transform="translate(129,105)"/>
<path d="M0 0 C0.33 1.32 0.66 2.64 1 4 C1.66 4 2.32 4 3 4 C3 4.99 3 5.98 3 7 C0.69 7.33 -1.62 7.66 -4 8 C-3.2884375 7.13375 -3.2884375 7.13375 -2.5625 6.25 C-1.0515133 4.07417916 -0.45963849 2.57397552 0 0 Z " fill="#32190B" transform="translate(170,77)"/>
<path d="M0 0 C0.33 0.99 0.66 1.98 1 3 C0.67 3.66 0.34 4.32 0 5 C0.99 5 1.98 5 3 5 C3 5.99 3 6.98 3 8 C0.525 7.01 0.525 7.01 -2 6 C-1.125 1.125 -1.125 1.125 0 0 Z " fill="#030801" transform="translate(171,48)"/>
<path d="M0 0 C0.99 0 1.98 0 3 0 C3 0.66 3 1.32 3 2 C3.99 2 4.98 2 6 2 C6 2.66 6 3.32 6 4 C4.02 4.33 2.04 4.66 0 5 C0 4.34 0 3.68 0 3 C-0.66 2.67 -1.32 2.34 -2 2 C-1.34 2 -0.68 2 0 2 C0 1.34 0 0.68 0 0 Z " fill="#1E1E1E" transform="translate(119,120)"/>
<path d="M0 0 C0.33 0 0.66 0 1 0 C1 2.64 1 5.28 1 8 C1.99 8 2.98 8 4 8 C4 8.66 4 9.32 4 10 C2.35 9.67 0.7 9.34 -1 9 C-0.67 6.03 -0.34 3.06 0 0 Z " fill="#CACACA" transform="translate(146,111)"/>
<path d="M0 0 C1.67542976 0.28604898 3.34385343 0.61781233 5 1 C5.33 2.32 5.66 3.64 6 5 C4.35 5.33 2.7 5.66 1 6 C1.66 5.01 2.32 4.02 3 3 C1.68 2.34 0.36 1.68 -1 1 C-0.67 0.67 -0.34 0.34 0 0 Z " fill="#E9E9E9" transform="translate(123,109)"/>
<path d="M0 0 C0.66 0.66 1.32 1.32 2 2 C1.67 2.33 1.34 2.66 1 3 C1.99 4.485 1.99 4.485 3 6 C0.50907189 7.24546405 -0.41080733 6.7767578 -3 6 C-2.42655063 3.13275314 -2.1385485 2.1385485 0 0 Z " fill="#1C1C1C" transform="translate(118,104)"/>
<path d="M0 0 C1.98 0 3.96 0 6 0 C6 0.99 6 1.98 6 3 C3.69 3 1.38 3 -1 3 C-0.67 2.01 -0.34 1.02 0 0 Z " fill="#F6A10F" transform="translate(154,85)"/>
<path d="M0 0 C2.8992226 0.46761655 3.86675182 0.86675182 6 3 C5.21625 3.309375 4.4325 3.61875 3.625 3.9375 C1.07669872 4.92875038 1.07669872 4.92875038 -1 6 C-1.042721 4.33388095 -1.04063832 2.66617115 -1 1 C-0.67 0.67 -0.34 0.34 0 0 Z " fill="#3D2208" transform="translate(163,73)"/>
<path d="M0 0 C1.32 0 2.64 0 4 0 C4.33 1.65 4.66 3.3 5 5 C3.68 4.67 2.36 4.34 1 4 C0.67 2.68 0.34 1.36 0 0 Z " fill="#F79A1A" transform="translate(164,54)"/>
<path d="M0 0 C0.66 0 1.32 0 2 0 C1.375 1.9375 1.375 1.9375 0 4 C-3.125 4.75 -3.125 4.75 -6 5 C-6 4.34 -6 3.68 -6 3 C-5.195625 2.690625 -4.39125 2.38125 -3.5625 2.0625 C-1.10919595 1.23664655 -1.10919595 1.23664655 0 0 Z " fill="#DADADA" transform="translate(201,116)"/>
<path d="M0 0 C0.33 0 0.66 0 1 0 C1 1.65 1 3.3 1 5 C2.32 5.66 3.64 6.32 5 7 C5 7.99 5 8.98 5 10 C4.34 9.67 3.68 9.34 3 9 C3 8.34 3 7.68 3 7 C2.01 7 1.02 7 0 7 C0 4.69 0 2.38 0 0 Z " fill="#3C3C3C" transform="translate(175,112)"/>
<path d="M0 0 C-1.75 2.0625 -1.75 2.0625 -4 4 C-6.25 3.75 -6.25 3.75 -8 3 C-5.53387212 -0.1151089 -3.89156016 -0.31553191 0 0 Z " fill="#2D2D2D" transform="translate(143,115)"/>
<path d="M0 0 C4.67692308 1.47692308 4.67692308 1.47692308 6.3125 4.125 C6.539375 4.74375 6.76625 5.3625 7 6 C6.34 6 5.68 6 5 6 C5 5.34 5 4.68 5 4 C2.69 3.34 0.38 2.68 -2 2 C-1.34 1.34 -0.68 0.68 0 0 Z " fill="#CE9834" transform="translate(156,51)"/>
<path d="M0 0 C0.33 0.99 0.66 1.98 1 3 C-2 5 -2 5 -4.6875 4.625 C-5.450625 4.41875 -6.21375 4.2125 -7 4 C-7 3.67 -7 3.34 -7 3 C-5.5459375 2.5359375 -5.5459375 2.5359375 -4.0625 2.0625 C-1.15934208 1.30476658 -1.15934208 1.30476658 0 0 Z " fill="#E1E1E1" transform="translate(128,116)"/>
<path d="M0 0 C2 1.375 2 1.375 4 3 C4 3.66 4 4.32 4 5 C2.68 5.33 1.36 5.66 0 6 C-0.66 5.01 -1.32 4.02 -2 3 C-1.34 2.01 -0.68 1.02 0 0 Z " fill="#1F1F1F" transform="translate(191,117)"/>
<path d="M0 0 C-1.32 1.32 -2.64 2.64 -4 4 C-5.32 3.34 -6.64 2.68 -8 2 C-4.77208445 -0.1519437 -3.71599191 -0.20086443 0 0 Z " fill="#2A2A2A" transform="translate(203,115)"/>
<path d="M0 0 C1.65 0.33 3.3 0.66 5 1 C4.67 1.66 4.34 2.32 4 3 C0.9375 3.625 0.9375 3.625 -2 4 C-1.34 2.68 -0.68 1.36 0 0 Z " fill="#393939" transform="translate(122,111)"/>
<path d="M0 0 C1.32 0.66 2.64 1.32 4 2 C2.68 3.32 1.36 4.64 0 6 C-0.66 4.68 -1.32 3.36 -2 2 C-1.34 2 -0.68 2 0 2 C0 1.34 0 0.68 0 0 Z " fill="#252525" transform="translate(150,105)"/>
<path d="M0 0 C1.65 0 3.3 0 5 0 C5 1.65 5 3.3 5 5 C4.01 5 3.02 5 2 5 C2 4.34 2 3.68 2 3 C1.34 3 0.68 3 0 3 C0 2.01 0 1.02 0 0 Z " fill="#1A1A1A" transform="translate(176,105)"/>
<path d="M0 0 C1.35015859 4.05047576 0.62084998 6.7920168 0 11 C-0.66 10.67 -1.32 10.34 -2 10 C-2.1953125 3.9453125 -2.1953125 3.9453125 -2 2 C-1.34 1.34 -0.68 0.68 0 0 Z " fill="#040404" transform="translate(133,61)"/>
</svg>
