<?xml version="1.0" encoding="UTF-8"?>
<svg version="1.1" viewBox="0 0 900 900" width="1280" height="1280" xmlns="http://www.w3.org/2000/svg">
<path transform="translate(0)" d="m0 0h900v900h-900z" fill="#FBFBFB"/>
<path transform="translate(447,22)" d="m0 0 2 2 5 12 10 19 8 12 3 3v2l4 2 11 12 5 6 5 5 10 11 10 13 8 11 10 15 10 17 1 5h2l8 16 13 30 8 22 4 13 8 37 3 20 1 16v42l-2 24-5 26-8 28-10 25-12 26-10 17-11 16-9 11-11 13-17 17-7 8-13 10-7 5-6-3-6-7-4-8v-2l-3 1-3 6-3 11-4 2-2-1-3 7-4-1-14-13-11-9-19-19-7-8-12-14-14-19-10-14-6-11-7-12-13-29-9-27-5-21-4-23-2-23v-27l3-36 4-25 7-30 9-27 13-32 15-29 12-20 15-20 10-13 14-15 31-31 7-11 3-9z" fill="#59A444"/>
<path transform="translate(447,22)" d="m0 0 2 2 5 12 10 19 8 12 3 3v2l4 2 11 12 5 6 5 5 10 11 10 13 8 11 10 15 10 17 1 5h2l8 16 13 30 8 22 4 13 8 37 3 20 1 16v42l-2 24-5 26-8 28-10 25-12 26-10 17-11 16-9 11-11 13-17 17-7 8-13 10-6 1v2l-4-1-4-4-4-6-6-17-3-14-2-16-1-4-2-1 1-3h3l1-33 1-5v-29l2-60v-142l2-2 1-4v-2h7l3 2h3l2-3 7 1 3-4 8-2h2v2l4-1 2-4 4-1 2 3 4-1 1-5 3-1 7 2 2-5h5l3-1 1-3 2 2-1 5h4l5-2 2 6 4-2 2 4 3-1 6 3 8 1 1-2-2-7-1-9-5-11-2-5-5-12-14-28v-3h-2l-3-5-1-6-3-1 1-3h-3l-2-5-4-4v-3l-4-2-3-3-1-5h-2v-3h-2l1-2 1-1h-3l-4-6v-2h-2l-6-7-5-4-7-9v-2l-4-2-5-6v-2l-4-2-5-4-1-4h-2l-4-8-2-5-2-8-2-4-3-3-1-7-4-3-1-4z" fill="#4D9539"/>
<path transform="translate(661,695)" d="m0 0h22l20 2 14 5 9 6 10 10 8 14 4 13 1 5v16l-3 16-7 14-9 11-10 8-16 8-17 4-11 1h-56l-3-1v-6l4-4 9-3 2-2 1-36v-54l-1-11-4-3-13-3-1-5 1-3 2-1z" fill="#9D8571"/>
<path transform="translate(792,695)" d="m0 0h30l14 2 12 4 8 7 4 7 2 8v7l-3 9-8 9-5 3h-2l1 2 9 4 8 6 6 7 3 8v15l-4 10-6 8-8 7-10 5-16 4-10 1h-51l-5-2-1-1v-6l16-5h2v-105l-10-3-7-3v-5l7-2z" fill="#9E8672"/>
<path transform="translate(444,739)" d="m0 0h20l14 4 15 1 4-4 3 1v8h-2l-2 4-4 4h-6l-2-1 1 4v12l-3 9-4 4-2 5-2 2-7 3-9 4-13 2-4 2v9l22 1 20 3 5 2v2l4 1 1 4h2v3h2l1 11-2 12-9 11-11 8h-2v2l-9 4-9 2h-16l-12-3-8-5-4-4-1-6h-2l-1-2v-13l4-5h2l1-3 7-5 5-2 1-3-7-5-5-5v-6l8-6 6-2-1-3-6-3-6-7-2-1-2-8h-2l-1-11 2-9 6-10 9-7z" fill="#5D4234"/>
<path transform="translate(662,707)" d="m0 0h20l13 3 12 7 8 8 6 10 3 9 2 13v11l-2 14-4 11-8 11-11 8-7 3-5 1h-20l-8-4-5-5-1-31v-57l1-9 2-2z" fill="#FCFCFC"/>
<path transform="translate(545,739)" d="m0 0h22l12 5 9 8 3 7 1 4h2l3 8v19l-3 11h-2l-2 5-7 10-6 5h-4v2l-13 5h-18l-13-5-1-3-4-2-5-5-3-4v-2h-2l-3-7-1-21 2-11 8-16 14-8 5-1v-2z" fill="#5E4335"/>
<path transform="translate(241,739)" d="m0 0h16l10 4 2 3 5 3 6 7 2 7h2l3 10v18l-3 10h-2l-2 6-3 3-3 5-9 6-9 4-15 2h-7l-11-3-10-6-4-5-2-5h-2l-4-9-1-7v-17l4-12 4-8 3-1 1-3h2l1-3 5-1 1-3 4-2z" fill="#593D2F"/>
<path transform="translate(57,739)" d="m0 0h4v14l5-2v-2l7-5h4v-2l7-3h13l6 2v2l4 2 3 3v2h2v2l4-1 5-2 1-3 7-3 4-2h3v-2h17l2 1v2l5 2 7 9v2h2l2 7 1 13v37l1 3 9 3v2h2v4l-10 1h-30l-2-1 1-4 8-4 2-2 1-11v-28l-2-14-3-1-3-5-9-2-15 2-6 4v23l1 31 4 4 7 2 4 7h-45l-1-4 3-3 8-3 1-1v-51l-1-4h-2v-3h-2l-1-2-6-3h-11l-5 3-7 3-1 2v55l10 3 1 6-8 1h-22l-11-1v-4l7-3 3-2 1-6v-52l-7-3v-2l-7-2-1-3 19-4 4-2h6z" fill="#583C2E"/>
<path transform="translate(356,738)" d="m0 0h14l5 2v2l5 1 8 16 1 7 1 50 12 3 1 5-2 1-37 1-4-2v-6l9-3 1-3v-43l-3-9-6-5-3-1h-10l-10 3-3 2v52l2 4 9 2 2 2v6l-5 2h-38l-3-2v-6l2-2 9-3 1-10v-44l-8-5-2-1v-2l-5-1v-4l14-3 16-4h4v13l3-1 5-5 4-3h2l1-3z" fill="#5A3E30"/>
<path transform="translate(444,739)" d="m0 0h20l14 4 15 1 4-4 3 1v8h-2l-2 4-4 4h-6l-2-1 1 4v12l-3 9-4 4-2 5-2 2-7 3-9 4-17 2h-7l-7-4-6-7-2-1-2-8h-2l-1-11 2-9 6-10 9-7z" fill="#664C3E"/>
<path transform="translate(238,748)" d="m0 0 9 1 6 2 7 6 6 11 1 4 1 20-2 12-3 6-4 6-5 3h-14l-6-3v-2l-4-2-3-3v-2h-2v-3h-2l-2-4-3-16v-18l4-10h2l2-4 4-3z" fill="#F9F8F8"/>
<path transform="translate(547,748)" d="m0 0 10 1 9 4 3 3v3l3 1 3 9 3 16-1 15-4 10-5 5-5 3h-11l-14-7-3-4-6-18-1-7v-9l2-13h2l2-5 6-5z" fill="#FBFBFA"/>
<path transform="translate(801,762)" d="m0 0h23l11 4 8 6 4 6 2 6v11l-4 10-4 5-8 5-10 2h-12l-7-4-3-5-1-7v-38z" fill="#FCFCFC"/>
<path transform="translate(351,155)" d="m0 0 1 2-6 13-7 16-3 5-4 11-1 7-2 2-1 12-1 2h-2l1 3-2 10-1 1-1 9-3 15-2 12-3 20-1 5-2 12-1 24v21l3 27 1 2v11l3 9 2 10 2 3 1 6 3 11 3 5 2 6 4 10 5 11 6 12v5l2 1 2 2v5l4 2v2l2 1 2 5 4 4v2h2l4 7v3l4 2 4 10 14 17 7 7 6 5v2l4 2v2h2l1 4 4 2 2 3-4-1-19-19-7-8-12-14-14-19-10-14-6-11-7-12-13-29-9-27-5-21-4-23-2-23v-27l3-36 4-25 7-30 9-27 13-32 11-21z" fill="#4E973A"/>
<path transform="translate(455,571)" d="m0 0h3l7 13 6 5 3 1 12-9 6-5 2 1-9 8-6 5-6 7-4 8-2 7-3 29-2 26-2 5h-10l-2-10-2-16-6-36-3-10-7-8-2-3 4 2 5 5h3l3-7 3 1 2-1 3-11z" fill="#C3BDB1"/>
<path transform="translate(136,739)" d="m0 0h17l2 1v2l5 2 7 9v2h2l2 7 1 13v37l1 3 9 3v2h2v4l-10 1h-30l-2-1 1-4 8-4 2-2 1-11v-28l-2-14-3-1-3-5-9-2h-9v-2l-5-3-2-1 12-6h3z" fill="#5B4032"/>
<path transform="translate(442,829)" d="m0 0h23l7 2v2l7 2 2 2 2 8-2 10-2 5-5 4-12 3h-11l-12-2-7-5-4-6-1-10 4-8h2l1-3z" fill="#F7F6F5"/>
<path transform="translate(57,739)" d="m0 0h4v14l-1 4h2v58l10 3 1 6-8 1h-22l-11-1v-4l7-3 3-2 1-6v-52l-7-3v-2l-7-2-1-3 19-4 4-2h6z" fill="#5A3F30"/>
<path transform="translate(545,739)" d="m0 0h22l12 5 9 8 3 7 1 4h2l3 8v19l-3 11h-2l-2 5-7 10-6 5-2-1 1-4h-3l-6 3h-16l-8-4 2-1 7 3h11l7-4 5-10 2-11-1-15-4-15-3-3-3-5-9-4-10-1-8 3-5 4-3 4 1-5 7-6h2l1-3 14-1 11-2 1-2h-22l-7 1 2-2z" fill="#664B3D"/>
<path transform="translate(801,708)" d="m0 0h22l8 3 7 8 1 3v16l-3 6-7 6-6 1h-23v-26z" fill="#FCFCFC"/>
<path transform="translate(250,739)" d="m0 0h7l10 4 2 3 5 3 6 7 2 7h2l3 10v18l-3 10h-2l-2 6-3 3-3 5-4 2-5-2-9 5-2-2 6-4 5-10 2-12-1-20-6-15-4-2-4-4-10-2h-10l3-2 10-2 2-2 8 1 1-3-6-1z" fill="#5F4436"/>
<path transform="translate(443,748)" d="m0 0h12l7 3 5 12v16l-3 9-8 4h-9l-6-3-6-7-2-5-1-6v-8l2-9z" fill="#FBFBFA"/>
<path transform="translate(440,740)" d="m0 0 4 1-5 1v2l14 1v2l5 1 1 2-4-1h-12l-6 4-3 1-1 17 2 9 4 6 5 4 3 1h9l5-1-3 3-4 1h-7l1 5-5 2h-9l-7-4-6-7-2-1-2-8h-2l-1-11 2-9 6-10 9-7z" fill="#654B3D"/>
<path transform="translate(426,832)" d="m0 0h2l-1 5 3 1-2 6 1 10 4 6 6 4 12 2h11l10-2-2 2-7 2h-12v4 2l15-1 5-2 3 1-9 4-9 2h-16l-12-3-8-5-4-4-1-6h-2l-1-2v-13l4-5h2l1-3z" fill="#664C3E"/>
<path transform="translate(484,842)" d="m0 0h1l1 6 3 2v2l3 1-1 4-5 6-10 7-10 4h-15v-2l-2-1 2-3 16-2 10-5 5-7z" fill="#44271E"/>
<path transform="translate(304,753)" d="m0 0 5 1 6 4 1 1v52l-2 5-9 4-1 5 42-1v-5l-10-2-2-1-1-3-1-32v-15l1-5h1l1 50 2 4 9 2 2 2v6l-5 2h-38l-3-2v-6l2-2 9-3 1-10v-44l-8-5z" fill="#AA9886"/>
<path transform="translate(451,544)" d="m0 0 2 3 2 8 1 11 2 5-3 1-3 6-3 11-4 2-3-1 1-6 2-2 1-14 3-12v-7z" fill="#9B826D"/>
<path transform="translate(630,708)" d="m0 0 4 2 1 3v94l-2 8-6 3-7 2-1 6h53l19-2 12-3 3 1-9 3-10 2-11 1h-56l-3-1v-6l4-4 9-3 2-2 1-36v-54l-1-11z" fill="#C4BEB2"/>
<path transform="translate(387,756)" d="m0 0 2 2 2 16 1 40 10 3 3 4-1 5-2 1h-42l-1-5 5 3 39-1-1-4-12-4-1-4-1-46z" fill="#AA9886"/>
<path transform="translate(546,740)" d="m0 0h20l2 1-1 3-11 2-15 1-9 3-2-1v-3l12-5z" fill="#43261C"/>
<path transform="translate(241,739)" d="m0 0h9l7 2 1 3-5 1-6-1-3 2-11 1-9 1-1-2 5-4 6-2z" fill="#44271E"/>
<path transform="translate(661,695)" d="m0 0h22l20 2 14 5 1 2-10-3-6-2-9-1h-77v5l9 2-4 1-7-2 1-7 2-1z" fill="#C4BEB2"/>
<path transform="translate(151,761)" d="m0 0 2 2 2 12v28l-1 11-4 4-7 2-1 4h42l1-4v5l-7 1h-39l3-7 8-4 2-3v-45z" fill="#B2A494"/>
<path transform="translate(468,787)" d="m0 0 1 2h4l-1 3-14 7-11 1-1-4 1-2 11-2 9-4z" fill="#44271E"/>
<path transform="translate(351,155)" d="m0 0 1 2-6 13-7 16-3 5-4 11-1 7-5 3 1-5 11-28 10-20z" fill="#4F983A"/>
<path transform="translate(415,70)" d="m0 0v3l-5 6h-2l-1 4-3 1-2 4-12 13-7 11-4-1 8-11 12-14z" fill="#4F983A"/>
<path transform="translate(776,814)" d="m0 0 2 1-16 6 2 4 13 1h34l21-1v1l-15 2h-51l-5-2-1-1v-6z" fill="#C4BEB2"/>
<path transform="translate(265,814)" d="m0 0 5 2v2l-14 7-10 1-1-4h4v-2l8-1z" fill="#44271D"/>
<path transform="translate(77,743)" d="m0 0 3 1 1 3-4 1v3l-7 4-8 3-2-1v-4l6-2v-2l7-5z" fill="#4C3025"/>
<path transform="translate(373,531)" d="m0 0 4 2 11 14 8 8 6 5v2l4 2v2h2l1 4 4 2 2 3-4-1-19-19-7-8-12-14z" fill="#509A3C"/>
<path transform="translate(575,814)" d="m0 0 2 2-1 4-9 4-2 1h-8l-2-2 1-3 13-3z" fill="#44271D"/>
<path transform="translate(454,552)" d="m0 0 2 1 4 15 5 12 3 3 1 3 6 3v-2l3 1-5 3-6-4-6-8-5-11-1-2z" fill="#5BA445"/>
<path transform="translate(444,740)" d="m0 0h19l2 2-12 4-14-2v-2z" fill="#43261D"/>
<path transform="translate(371,121)" d="m0 0 3 1h-2l-1 5-2 1-7 16-7 9-3 1 2-6 12-20z" fill="#4E983A"/>
<path transform="translate(123,747)" d="m0 0 6 1-1 2 3 2h-3v2l-8 2-6 1-2-3h3l2-4z" fill="#4D3026"/>
<path transform="translate(37,817)" d="m0 0 2 1-3 2h-4v4h41l-1-5h2l1 6-1 1h-36l-7-1-1-5z" fill="#B2A494"/>
<path transform="translate(434,827)" d="m0 0h5l1 3-6 4-4 4-3-1 1-5z" fill="#45281E"/>
<path transform="translate(328,739)" d="m0 0h6l1 10 2 1-1 3h-3v-13l-27 7h-5l4-2z" fill="#B1A191"/>
<path transform="translate(451,544)" d="m0 0 2 3 1 4v14l-2-3-3-6v-7z" fill="#9B826D"/>
<path transform="translate(128,820)" d="m0 0 4 5v1h-45v-1l39-1 2-1z" fill="#AA9887"/>
<path transform="translate(359,822)" d="m0 0 5 3 38 1v1h-42z" fill="#BEB6A8"/>
<path transform="translate(447,22)" d="m0 0 2 2 5 12 1 4-3-1-3-5-3-1z" fill="#54993E"/>
<path transform="translate(437,800)" d="m0 0h6v2l-2 1-2 7h-3l-2-5z" fill="#42251C"/>
<path transform="translate(497,742)" d="m0 0h2v7l-4 5h-2l2-9z" fill="#45281E"/>
<path transform="translate(373,531)" d="m0 0 4 2 11 14v3l-11-12-4-5z" fill="#519B3D"/>
<path transform="translate(331,196)" d="m0 0h2l-2 13-5 3 1-5z" fill="#50993B"/>
<path transform="translate(314,810)" d="m0 0h1v5l-4 3-6 2-1 6-2-1v-6l2-2 9-3z" fill="#B2A393"/>
<path transform="translate(439,582)" d="m0 0 1 4-2 6h-6l-1-3h5v-2h2z" fill="#4D9639"/>
<path transform="translate(271,749)" d="m0 0 4 4 5 3-1 4v-2h-2v-2l-5-1-3-5z" fill="#46291F"/>
<path transform="translate(31,746)" d="m0 0h8l-3 2h-2v3l-6-2v-2z" fill="#674E42"/>
<path transform="translate(451,552)" d="m0 0h2l1 3v10l-2-3-1-3z" fill="#C4BEB2"/>
<path transform="translate(415,70)" d="m0 0v3l-5 6-3-1z" fill="#4D9639"/>
</svg>
