<?xml version="1.0" encoding="UTF-8"?>
<svg version="1.1" viewBox="0 0 2048 1024" width="1280" height="1280" xmlns="http://www.w3.org/2000/svg">
<path transform="translate(0)" d="m0 0h2048v1024h-2048z" fill="#043126"/>
<path transform="translate(565,181)" d="m0 0h91l1 1 1 13v36l-1 102 90-12 56-7 17-3 4 32 5 38 2 17v10l-53 8-90 12-23 3h-8v119l55-7 75-10 33-4 1 1 3 34 7 51 1 11-54 6-91 13-23 3h-7v165h-97l-1-33v-25l1-95-36 6-57 8-26 3 1 12-2 153-72 1h-24l-1-1-1-28 1-118 1-6-48 7-82 11-30 4h-3l-6-45-7-49 1-3 73-10 32-4 38-5 24-3 4-1v-60l1-58-48 6-72 10-31 4h-13l-1-1-6-50-4-32v-10l7-2 54-8 66-9 45-7h2v-165h24l72 1v151l43-5 68-9 14-1-1-9v-153l1-3z" fill="#00870D"/>
<path transform="translate(565,181)" d="m0 0h91l1 1 1 13v36l-1 102 90-12 56-7 17-3 4 32 5 38 2 17v10l-53 8-90 12-23 3h-8v119l-16 3-44 6-29 3h-7l-1-21v-97l-26 4-92 13h-6v-98l9-2 41-5 61-8 14-1-1-9v-153l1-3z" fill="#A7CA0B"/>
<path transform="translate(434,462)" d="m0 0 3 1v116l77-10 42-6 4 1v96l-36 6-57 8-26 3 1 12-2 153-72 1h-24l-1-1-1-28 1-118 1-6-48 7-82 11-30 4h-3l-6-45-7-49 1-3 73-10 32-4 38-5 24-3 4-1v-60l1-58 6-2 43-5z" fill="#A7CA0B"/>
<path transform="translate(673,916)" d="m0 0 10 1 11-1 13 1 7-1h13l21 2h10l20 5 14 3 10 1 14 5 6 4 16 6 4 4 15 5 5 3 1 2 9 4 10 6 12 6v2l4 2 8 7 5 3 18 18v2h2l3 9-1 2 4 2 1 5h-515l-1-5 4-6 2-1 2-5 1-2h2l2-5 5-7 5-5 8-6h2l2-4 9-7 7-4 9-6 12-6 7-5 14-6 8-2 10-5 16-5 8-3 16-4 18-2 16-4 13-2 13 1h18l10-1z" fill="#1B4A37"/>
<path transform="translate(0)" d="m0 0h36l2 8 4 2 8 16 7 11 6 13 2 6 3 1v5l3 1 3 7 3 3 2 7 2 3 1 9h2l7 23 2 3 3 11 1 12 5 18 3 23 1 16 1 10 2 25v13l1 5v12l-3 15 1 18-2 10v7l-2 10-4 15-2 10-3 6-3 9-2 9-4 8-9 21-8 20-9 15-9 12-4 6-2 5-8 11h-2l-2 4-8 9-9 11-3 5-3 2-10 1z" fill="#1B4A37"/>
<path transform="translate(340,210)" d="m0 0h24l72 1v151l2 1h-2l1 70v30l-31 3-53 6-18 3-35 4-79 11-31 4h-13l-1-1-6-50-4-32v-10l7-2 54-8 66-9 45-7h2z" fill="#00880D"/>
<path transform="translate(2044,588)" d="m0 0h4v436h-39l-1-3-10-10-4-13-3-7-5-15-3-8-3-9-3-7-4-15-3-10-2-9-2-17-4-18-1-22-1-5-1-37-1-27v-22l1-8 1-22 3-18 3-12 4-7 4-10 2-6 5-14 4-12 5-12 3-5 2-5 5-7 8-16 6-9 7-8 5-3 5-5z" fill="#1B4A37"/>
<path transform="translate(1022,418)" d="m0 0 7 1 4 5 11 23 18 38 11 23 9 19 7 12 3-4 16-34 17-35 13-28 6-11 6-8h48l3 2v194l-1 1-31 1-2-1-1-83v-65l-3 3-12 25-15 29-21 42-15 29-4 4h-9l-7-2-5-6-34-68-10-19-18-36-2-1v147l-1 1-33 1v-196l3-2z" fill="#FEFEFE"/>
<path transform="translate(1682,464)" d="m0 0h27l15 4 14 7 9 7 8 8 8 13 4 14 2 21v15l-4 2h-73l-41 1 2 9 6 9 7 7 8 5 13 4h21l12-3 9-5 10-8 5 2 11 12 2 5-3 5-8 7-16 8-9 3-13 2h-28l-16-4-14-7-12-10-10-14-6-15-3-12-1-8v-18l3-14 5-12 6-10 9-10 8-7 17-9z" fill="#FEFEFE"/>
<path transform="translate(556,444)" d="m0 0h4l1 97v35h-1l-1-12-25 3-43 6-54 7-1-4 1-115 54-8z" fill="#033025"/>
<path transform="translate(164,403)" d="m0 0 2 3 5 37 6 50h13l39-5 50-7 37-5 19-2h6v118l-5 2-56 7-29 4-61 8-21 3 4 30 8 57v9l16-3 63-8 79-11h5l-1 124 1 28h96v-81l1-78-1-4 1-2 11-2 66-9 37-6h5v153h31l66 1-3 2-14 1-62 1h-8l-6 1-6-3-2-6h-2l-1-12v-78l-2-18-2-12-2-8-4-3-4-1h-15l-26 4-33 4-7 4-6 10-3 11-1 17-1 61v36l-1 7v11l-4 5-9 2-13 1-32-1-32 2h-15l-4-2-3-6-2-11-1-15v-13l3-34v-31l-6-21-4-9-1-2-10-1h-3l-4-1-1 2-13 2-27 1-15 2-9 2-27 3-11 2-11 1h-11l-4-2-6-8-3-6-4-16v-11l-2-7-1-22v-29l2-5 2-2 13-4 13-5h2v-2l7-3 22-3 9-2 38-2 10-3 15-1 17-4 2-1v-3l7-6 7-13 5-11 1-7v-32l-1-18-14-2-1 1-12 1-35 1-17 2-26 2-31 4-14 2h-6l-4-12-3-17-2-31-3-25z" fill="#042821"/>
<path transform="translate(607,169)" d="m0 0 7 1 7 2 17 2 5 1h11l5 3 4 5 4 12v50l1 11 1 34 2 8 5 10 3 2 15 3-1 2 11 2 13-1 11-3h36l14-3 4-2 6-1 4-3h14l13 3 6 5 3 10 2 3 2 8 1 16 1 6 1 18 3 16 1 20-3 5-4 3h-7l-1 3-11 1-50 8-41 5-38 6-8 3-4 5-5 15-1 6v23l2 17 1 2-1 5h2l2 8 4 7 4 4v2l8 2h12l20-4 30-3 15-3 10-1 2-2 5-1h37l2 3h-2v2l-55 7-75 10-24 3h-8v-119l91-12 71-10 12-1-6-52-5-35-1-9-24 4-79 10-53 7h-6v-138l-1-13h-95v165l-3 1-35 4-60 8-18 2h-9v-70l1-81 2 1 2 12 1 23 1 3 2 21 4 21 1 12 2 4 1 28 5 5-1 2 9 3 7 3 11-1 5-2 15-3h20l5-2 3-3-1-2 6-3 4-1 7-15 3-9 2-16v-23l-1-4 1-4-1-4 1-3 1-63 3-9 2-3 8-2 14-1 5-1v-1h10l8-1-5-1 2-2z" fill="#042821"/>
<path transform="translate(1274,465)" d="m0 0 5 1 1 1 1 94 4 13 6 8 4 3 9 3 6 1h8l9-2 8-4 9-7 7-12 2-8 1-88 2-3 29 1 2 3v86l-1 60-1 1h-29l-2-2v-19l-8 6-10 9-12 6-9 2h-23l-12-3-12-7-10-10-7-14-3-14-1-8v-93l2-3z" fill="#FEFEFE"/>
<path transform="translate(1517,418)" d="m0 0 23 1 9 2v45h39v25l-1 1h-38l1 84 4 8 12 6h7l8-3 6-5 4 1 5 8 5 9v6l-10 6-8 4-17 3h-7l-12-3-9-5-10-9-7-10-4-13-1-6-1-78-1-2h-13l-3-3-1-21 3-3 15-1 1-46z" fill="#FEFEFE"/>
<path transform="translate(1434,407)" d="m0 0h29l3 3v205l-1 1h-31l-1-5v-203z" fill="#FEFEFE"/>
<path transform="translate(1873,464)" d="m0 0h8l2 3v27l-26 8-8 6-6 9-6 15-2 13-1 71h-31l-1-2v-116l1-31 1-1h30l1 24 5-3 7-8 9-7 14-7z" fill="#FEFEFE"/>
<path transform="translate(1924,33)" d="m0 0 5 2 5 6 2 4 1 7 1 55 1 14v16l-5 6-14 6-13 9h-8l-14-8-10-6-9-7-8-5v-2h-3l-1 3v-33h1l1 10 5-5h2l1-3h2v-2h3v-2l7-4 5-5 13-9 17-9 4-5 1-12v-10l5-10z" fill="#1C362E"/>
<path transform="translate(1717)" d="m0 0h243l-2 4-5 6-6 5-9 3-13 2-6 2-6-1-13 3h-12l-2-1-12 1-16 2-13 1-7 2-13-1-6 1h-7l-6 2-13-1-5-2-12-1-6-2-12-2-7-2-13-6-10-4v-2l-8-1-4-5z" fill="#1B4A37"/>
<path transform="translate(556,444)" d="m0 0h4l1 97v35h-1l-1-12-25 3-43 6-54 7-1-4 1-115 54-8zm-29 17-4 2-29 2h-11l-16 2-9 2-7 5-4 8-2 10v7h-1l1 29 2 15 4 9 3 3 5 3 12 1 17 2v2h7l3 2h8l16-4 6-2v-2l7-2v-2l7-4 5-6 4-2 1-7 1-6-1-2 2-1v-31l-3-16-2-6 1-5-5-4-12-2z" fill="#042721"/>
<path transform="translate(1732,75)" d="m0 0 9 1 14 9 11 11 6 9v28l-3 15-3 1-5-3-10-11-12-22v-2l-3-1h-7l-2 6-2 14-3 8-4 3h-7l-6-4-4-8 1-31 5-5 9-5 10-8z" fill="#1C362E"/>
<path transform="translate(1979,78)" d="m0 0h11l20 8 12 6 2 6-1 5-6 8-8 4h-11l-2-1-1 2-3 1-2 4-5-1-4-4-2 1-1 4 3 5 9 5 10 4 3 2-1 7-12 7-11-1-11-7-8-7-7-12-1-3v-11l3-10 5-9 4-5 9-6z" fill="#1D372D"/>
<path transform="translate(1817,78)" d="m0 0h6l16 8 12 7 2 3-1 14-8 1v2h-3l-1 11 1 12 2 4-6 5-8 4-7 4-4-1-3-4-5-12-12-23v-2l-4-1-5 1-1-13 3-5 13-8z" fill="#71AC37"/>
<path transform="translate(1198,418)" d="m0 0 5 1 7 14 2 13 1 84 1 39v17l-2 17-3 4-3 13-5 5-1 2-12 2h-9l-9-2-4-1-3-4 1-8h2v2l34-1v-194l-2-1z" fill="#072A22"/>
<path transform="translate(1684,492)" d="m0 0h21l10 3 10 6 7 9 5 16-1 3-10 1h-20l-54-1-2-1 2-9 6-12 9-8 13-6z" fill="#043126"/>
<path transform="translate(1438,404)" d="m0 0h22l7 2 5 6 4 10 1 4v63l2 49v52h-2l1 9-7 20-6 4h-2v2l-13 1-9-2-5-2-1-3h-2l1-2 10 1h21v-210l-3-1-27-1z" fill="#082B23"/>
<path transform="translate(823,543)" d="m0 0 3 3 1 6v9l4 15 2 9 2 12 2 13v10l3 9-2 6-5 4-4 1h-19l-23 2-26 5h-8l-8 2h-14l-4 2h-12l-35 4-10 4-5 1-2 3-2 5-1 8h-3v-28l121-17 45-5h9l-6-39-1-24-2-15z" fill="#042722"/>
<path transform="translate(1357,463)" d="m0 0h24l6 2 3 3 4 15 1 6v34l1 44-1 9-1 29-4 10-7 7-2 1-14 1-12-3-7-3-9 1-12 2-4 2h-3l-13 2v1h-20l-17-6-7-5-6-9-2-8h-3l-6-17v-14l2 4 6 18 6 10 8 8 12 7 12 3h23l11-3 11-6 12-11 5-2 1 19 1 1h29l1-60v-86l-2-3-25-1z" fill="#0E3122"/>
<path transform="translate(1029,416)" d="m0 0 4 1 5 6 5 4 6 9 7 14 5 8 4 8 4 11 5 11 5 14 4 4 5 2h8l-1-3 5-4 7-23 11-23 10-16 7-10 10-5-1 5-8 15-13 28-20 41-12 26h-3l-7-12-11-23-14-29-13-28-11-23-3-4-3-1v-2z" fill="#092C21"/>
<path transform="translate(1854,150)" d="m0 0h11l10 4 11 8 6 5 3 5 1 12-1 8 1 3-2 9-4 6-11 8-10 5-6 1h-10l-6-4v-1h14l12-4 10-5 6-9 1-3-6-1-8 7-7 2-9-1-3-3v-2l-3 1-4 10-4 1-1-1v-18l3-7 3-6-4 2-2 4-2-1v-6l5-3 7 1 1-3 3-1h14l6 2 5 3 1-3 3-3-5-6-11-7-4-2h-12l-10 5-10 7-3 5-1 9v10l2 11 1 3 6 4 3 6-5-1-9-7-4-6-1-4v-24l5-8 6-6h2l1-3 5-3h4v-2z" fill="#053925"/>
<path transform="translate(1164,468)" d="m0 0h2l1 65v83l-1-2-3-1-2-20v-13l-2-46-2-6-5-2v2l-7 2-4 8-4 5-3 6-2 1-3 9-9 19-5 9-9 10-6 3-2-1 48-96 8-15 9-19z" fill="#0E3121"/>
<path transform="translate(976,421)" d="m0 0h1v196l9-1 24-1 1-147 4 2 17 35 6 12v2l-4-2-6-9-5-1h-5l-3 9v13l1 27v53l-1 8-5 5h-2v2h-2v2l-6 2h-11l-10-2-3-2-1-8v-183z" fill="#153D25"/>
<path transform="translate(1975,79)" d="m0 0h13l1 2-1 3-8 5h-3l-1 4-5 3-5 15v9l1 3h2v2l10 3 7 3 2 2h8l7 4-1 7-12 7-11-1-11-7-8-7-7-12-1-3v-11l3-10 5-9 4-5 9-6z" fill="#1B4936"/>
<path transform="translate(1257,462)" d="m0 0h15l10 2 3 2 6 12 1 13-1 62 2 13 6 10 5 6v2l5 2 2 2h-11l-8-4-7-8-4-10-1-5-1-94-1-1-28-1 4-2z" fill="#062922"/>
<path transform="translate(1508,492)" d="m0 0h6l2 3 1 78 4 16 5 9 9 10 10 6 9 3 5 1 15-1 11-3 15-8v-6l-8-16 3-1 8 10 2 10-1 5-5 3-3 6-9 3-5 2-2 2-19 2h-13l-11-5-6-5-7-12-3-5-3-3-2-6-3-14-3-10v-53l-1-9-4-7-6-3v-1z" fill="#143722"/>
<path transform="translate(1549,422)" d="m0 0h1v43l40-1 4 8v12l-2 7-2 4-13 4-10 2-5 4-2 3-2 16v26l-1 5v7l3 14 2 11 2 1-7-1-5-4-3-7v-84l38-1 1-25h-39z" fill="#0F3323"/>
<path transform="translate(1620,562)" d="m0 0 2 3 6 16 7 11 5 6 13 10 14 6 13 3h28l17-3 16-7 10-7 4-4 1-5-7-8-5-6v-2l5 1 2 1v2h2l6 8 1 9-8 11-9 6-13 6-15 5-17 2-1 1h-25l-17-5-8-6-8-8-7-10v-3h-2l-7-16-3-6z" fill="#113422"/>
<path transform="translate(1856,156)" d="m0 0h12l11 6 10 9-2 4h-2l-1 4-6-4-5-1h-14l-3 1-1 2h-7l-5 1-2 9 3 1v23l-6-1-4-3-2-6-1-8v-10l1-9 5-7 14-9z" fill="#052C23"/>
<path transform="translate(1840,187)" d="m0 0m3-10 2 1-1 1v6l4-5 4-1-2 5-3 5-1 4v18h3l5-12 3 1 3 4 9 1 9-3 5-6h3v2h4l-1 5-6 8-12 6-10 3h-13l5 3h10l8-2 8-4 9-6h2v6l-6 3h-3v2l-8 4-11 2-16-1-11-4-6-5-4-9 1-3 5 3 8 6h3l-1-4h3l-1-22-2-2v-7z" fill="#063221"/>
<path transform="translate(1854,150)" d="m0 0h11l10 4 11 8 6 5 3 5 1 12-1 8 1 3-2 9-4 6-11 8-10 5-6 1h-10l-6-4v-1h14l12-4 10-5 6-9 2-4 1-17-3-8-10-9-11-6h-12l-10 5-10 7-3 5-1 9v10l2 11 1 3 6 4 3 6-5-1-9-7-4-6-1-4v-24l5-8 6-6h2l1-3 5-3h4v-2z" fill="#00880D"/>
<path transform="translate(1353,465)" d="m0 0h1v91l-3 10-7 11-9 7-6 3-10 1 5-7 10-8 5-3 1-2h2v-2h2v-2h2v-40l-1-21 2-24 4-12z" fill="#123521"/>
<path transform="translate(1719,498)" d="m0 0 4 2 5 4 5 8 4 16-1 1-10 1h-20l-54-1-2-1 2-9 6-12 7-6h3l-1 12 2 2v5l9 3 23 2h9l7-2 3-2-2-4 4-3h6v-3l-2 1-1-6-4-2-2-3z" fill="#0E3122"/>
<path transform="translate(1930,803)" d="m0 0 2 1 1 5-1 7 1 3 1 16 1 10 1 16 2 17v11l2 6 1 14 1 5v12l2 3 2 9 2 5 1 11h2l1 7 4 7 2 15v8l-3-2v-6l-5-10-3-11-4-7-1-7-4-9-3-14 1-6-3-27-1-16-1-2v-8l1-3-3-16v-19l-1-2 1-20z" fill="#1B4A37"/>
<path transform="translate(1687,459)" d="m0 0 11 1h11l17 4 9 3 8 5 2 2 9 6 9 13 4 6 3 9-1 12 1 8v26l-2-1v-15l-2-21-5-16-7-11-10-10-15-9-15-5-5-1h-27l-16 4-17 9-12 11-8 11-5 10-3 9-2-2v-8l6-12 10-11 13-13 14-8 13-5z" fill="#173B22"/>
<path transform="translate(1855,502)" d="m0 0h5l-3 5-7 11h-2l-3 10-3 11-1 13 3 23v16l-2 14-3 10-4 4-2-1 1-73 2-13 6-15 4-6 5-5z" fill="#113420"/>
<path transform="translate(1924,33)" d="m0 0 4 2 6 10 2 8-1 31-1 6h-2l-1 4h-3l-5-13-1-11 3-9v-5l-1-3h-5l-3-5 1-6 4-8z" fill="#1B4936"/>
<path transform="translate(1787,100)" d="m0 0 2 4 1 5-1 2 6-2 4 4 15 29 4 9 4 3-6-1-2-3-12-5-11-8-5-9-1-2v-11z" fill="#00870D"/>
<path transform="translate(1859,173)" d="m0 0h14l6 2 2 4-15-1-5 3-4 4-5 1 2 9 8-6 4-1h15v2l-9 2-11 1-2 2 1 4 5 2 7-1 4-1 2-5 4-2 2 1-1 5-7 6-7 2-9-1-3-3v-2l-3 1-4 10-4 1-1-1v-18l3-7 3-6-4 2-2 4-2-1v-6l5-3 7 1 1-3z" fill="#04870F"/>
<path transform="translate(1655,557)" d="m0 0 86 1-2 2-11 3h-9l-14-1-31-1-5 1v4l-2 1 2 6 5 5 3 1 4 5v3l2 1-9-1-10-7-8-8-4-7v-7z" fill="#062921"/>
<path transform="translate(1855,130)" d="m0 0h3v2l3 1 3 4-1 6-10 6-1 3-4 1v2l-7 3-8 3-10-1-4-4 3-1v-3l12-7 7-2 11-7z" fill="#052D22"/>
<path transform="translate(1733,76)" d="m0 0h8l14 9 3 5-1 6-12-4-10-1-9 4h-2l-2 4-5 2h-6l-2-4 5-4 6-3 9-11z" fill="#1B4936"/>
<path transform="translate(1547,418)" d="m0 0 5 2 3 5 4 9 4 24 9 2 16 3 1 2h-39l-1-43-2-1z" fill="#032521"/>
<path transform="translate(1883,196)" d="m0 0h3v2h4l-1 5-6 8-12 6-10 3h-9l-1-4-2-1 2-9 3-7 3 1 3 4 9 1 9-3z" fill="#042E21"/>
<path transform="translate(1864,154)" d="m0 0 12 1 10 7 6 5 3 5 1 12-1 8 1 3-2 9-4 6-11 8-10 5-6 1h-10l-6-4v-1h14l12-4 10-5 6-9 2-4 1-17-3-8-10-9-15-8z" fill="#70AC36"/>
<path transform="translate(330,367)" d="m0 0h9l1 8-13 3-47 7-24 1 2-2 13-2 15-3 13-3 23-4z" fill="#042823"/>
<path transform="translate(1853,98)" d="m0 0h1v37l-6 5-9 5-2-1 5-4-2-4-1-18 2-5h3v-2l8-1v-7z" fill="#00880D"/>
<path transform="translate(1040,523)" d="m0 0 3 3 34 68 4 4 11 1-2 5-9-1-7-5-5-7-11-23-6-14-13-28z" fill="#1B3E21"/>
<path transform="translate(1514,418)" d="m0 0h1v48h-16v-2l3-3 1-9 7-20 2-3 1-9z" fill="#072A21"/>
<path transform="translate(1833,464)" d="m0 0 6 1 6 3v2l9 1 4-4 7-2v3l-12 7-10 9-5 5-4 2v-25l-9 1h-13l-8-1v-1z" fill="#1D4223"/>
<path transform="translate(1692,554)" d="m0 0h76v2l-4 1-49 1h-63l-1 4-1-6 1-1z" fill="#507C2B"/>
<path transform="translate(1817,78)" d="m0 0h6l4 2v2l-10 1-11 6h-2l-2 10 1 5 6 14-1 5-5-3-5-13-4-12-4 1 1-3 13-8z" fill="#A6CA10"/>
<path transform="translate(657,700)" d="m0 0h2l2 21v32l-1 46h-2v6h-1l-1-103z" fill="#032521"/>
<path transform="translate(1964,86)" d="m0 0 2 1-6 9-3 7-2 3v10l1 4 2 1v7l7 8 8 6 10 3h8l9-3 2-5h1l-1 7-12 7-11-1-11-7-8-7-7-12-1-3v-11l3-10 5-9z" fill="#1D362E"/>
<path transform="translate(1432,411)" d="m0 0h1l1 205h31v2l-27 1-5-2-1-2z" fill="#71AC37"/>
<path transform="translate(1430,417)" d="m0 0h1v168h-1l-1-19v-96l-1-20v-17l1-14z" fill="#032521"/>
<path transform="translate(1838,160)" d="m0 0 2 1-5 5-4 7-2 7 1 1 1 22 7 6 3 2 3 6-5-1-9-7-4-6-1-4v-24l5-8z" fill="#74AD34"/>
<path transform="translate(121,114)" d="m0 0 2 2 4 12 2 13 1 1 4 33 3 23v16l-2-1-1-17-2-13-2-14v-7l-1-2-1-13h-2l-2-7v-12l-4-11z" fill="#1B4A37"/>
<path transform="translate(1900,106)" d="m0 0 4 1 2 5 4 2 2 3-1 5-3 3h-6l-5-4-3-7 2-5z" fill="#043126"/>
<path transform="translate(1801,616)" d="m0 0 33 1-4 5-9 2h-12l-5-3-3-3z" fill="#072823"/>
<path transform="translate(1872,191)" d="m0 0 7 1-2 5-3 3-4 2-7-1-5-3 1-4 2-2z" fill="#032D22"/>
<path transform="translate(1684,492)" d="m0 0h21l5 1v1h-7l-7 2-8 2-10 2h-8l-1-2 11-5z" fill="#173C24"/>
<path transform="translate(1886,207)" d="m0 0v3l-5 4h-2l-2 5-8 4-6 1h-10l-6-4v-1h14l12-4 10-5z" fill="#98C217"/>
<path transform="translate(1863,178)" d="m0 0 3 1-2 1 1 5 1 1 8 1v1l-12 2-8 6-3-7 1-4 7-2z" fill="#164A32"/>
<path transform="translate(1854,150)" d="m0 0h11l10 4v2l-10-1v1l-13 1-5 2h-3l2-4h2v-2z" fill="#00880D"/>
<path transform="translate(1870,173)" d="m0 0 8 1 3 3v2l-15-1-5 3-3 2h-5l3-6 4-3z" fill="#77AF31"/>
<path transform="translate(1881,192)" d="m0 0 3 1-1 5-7 6-7 2h-6l-5-5v-2l7 2 7-1 4-1 2-5z" fill="#82B529"/>
<path transform="translate(1843,177)" d="m0 0 2 1-1 1v6l4-5 4-1-2 5-3 5-1 4v18h4l1 7-5-2-3-5v-23l-2-1v-7z" fill="#174B33"/>
<path transform="translate(1786,122)" d="m0 0 1 3 6-1 4 4 1 7-5 2-5-5-2-4z" fill="#71AC37"/>
<path transform="translate(1617,524)" d="m0 0h1v32l-4-4-1-3v-17z" fill="#032521"/>
<path transform="translate(1905,162)" d="m0 0 5 1 2 4v5l-3 2-5-1-3-2v-6z" fill="#1A4936"/>
<path transform="translate(1593,583)" d="m0 0h2l8 10 2 10h-2v2h-2l-3-9-6-12z" fill="#1B3F23"/>
<path transform="translate(1889,95)" d="m0 0h1v10l-3 5-5-1-1-7 5-5z" fill="#1B4A37"/>
<path transform="translate(1432,608)" d="m0 0 2 3v5h31v2l-27 1-5-2-1-2z" fill="#557B23"/>
<path transform="translate(1869,150)" d="m0 0 6 1 8 4 4 5 3 3-3 1-9-7-9-6z" fill="#063122"/>
<path transform="translate(1986,112)" d="m0 0 5 1 2 4-3 4-5-1-2-2 1-4z" fill="#FEFEFE"/>
<path transform="translate(1866,188)" d="m0 0h15v2l-9 2h-12l2-3z" fill="#8FBD1E"/>
<path transform="translate(822,546)" d="m0 0 2 2 2 15v16h-1l-3-24z" fill="#0F3D2E"/>
<path transform="translate(823,543)" d="m0 0 3 3 1 6v12l-2-1-2-15z" fill="#032521"/>
<path transform="translate(1889,173)" d="m0 0 3 3 1 10-1 10-3-3v-6h2l-1-6z" fill="#16552F"/>
<path transform="translate(1854,152)" d="m0 0h5l1 2-13 5h-3l2-4z" fill="#71AC37"/>
<path transform="translate(1731,577)" d="m0 0h3l-2 4-10 6-4 1 5-6z" fill="#224725"/>
<path transform="translate(1881,464)" d="m0 0h2l1 2 1 29-3 2-5-1 4-2h2l-1-27z" fill="#2B552D"/>
<path transform="translate(1847,219)" d="m0 0h5v2h9l5 1-3 2h-10l-6-4z" fill="#B3D25B"/>
<path transform="translate(1891,202)" d="m0 0 1 2-4 8-9 6-2-1 4-4 5-4v-3h3z" fill="#68A932"/>
<path transform="translate(1873,174)" d="m0 0h5l3 3v2l-13-1v-2z" fill="#99C216"/>
<path transform="translate(248,385)" d="m0 0h7v2l-7 2h-14l3-2z" fill="#042923"/>
<path transform="translate(1844,196)" d="m0 0h1l1 15h4l1 7-5-2-3-5v-14z" fill="#1B4A37"/>
<path transform="translate(1893,195)" d="m0 0h1v9l-4 6-1-2 1-4-1 2-2-1 5-9z" fill="#A1C710"/>
<path transform="translate(1896,173)" d="m0 0h1l1 12-1 9-3-1 1-9z" fill="#0C6A21"/>
<path transform="translate(1854,199)" d="m0 0 3 1 4 6h-5l-3 3h-2l1-5z" fill="#0F412D"/>
<path transform="translate(1858,199)" d="m0 0 12 3-2 2 1 2h-6l-5-5z" fill="#71AC37"/>
<path transform="translate(1861,192)" d="m0 0 3 1-3 3 4 3 4 1 4-1-3 3-7-1-5-3 1-4z" fill="#11532B"/>
<path transform="translate(1832,81)" d="m0 0h6l8 6 1 2-6-1-3-3-6-3z" fill="#042C21"/>
<path transform="translate(1841,211)" d="m0 0 4 2 6 6-6 1-4-3 2-1-2-2z" fill="#00880D"/>
<path transform="translate(1850,201)" d="m0 0h2l-1 8-3 1-2-3 1-5z" fill="#71AC37"/>
<path transform="translate(1892,59)" d="m0 0 6 1-1 4-2 2-5-2 1-4z" fill="#1B4A37"/>
<path transform="translate(1864,465)" d="m0 0 1 3-10 6h-2l2-4 3-3z" fill="#224724"/>
<path transform="translate(1864,154)" d="m0 0 9 1 5 5 1 2-5-2-10-5z" fill="#82B628"/>
<path transform="translate(1040,523)" d="m0 0 3 3 3 6-1 2-4-4-2-5z" fill="#284C23"/>
<path transform="translate(1881,160)" d="m0 0 4 1 5 4 1 4-4-2z" fill="#9FC611"/>
<path transform="translate(1734,518)" d="m0 0 2 4 1 6-5 1z" fill="#487926"/>
<path transform="translate(1855,502)" d="m0 0 2 1-11 11-2-1 5-6z" fill="#325826"/>
</svg>
