<?xml version="1.0" encoding="UTF-8"?>
<svg version="1.1" xmlns="http://www.w3.org/2000/svg" width="612" height="612">
<path d="M0 0 C201.96 0 403.92 0 612 0 C612 201.96 612 403.92 612 612 C410.04 612 208.08 612 0 612 C0 410.04 0 208.08 0 0 Z " fill="#FEFEFE" transform="translate(0,0)"/>
<path d="M0 0 C0.66 0 1.32 0 2 0 C2 75.24 2 150.48 2 228 C-7.9 228 -17.8 228 -28 228 C-37.62582781 217.30463576 -37.62582781 217.30463576 -42.1953125 212.05078125 C-44.22958141 209.73911203 -46.3022231 207.4646857 -48.375 205.1875 C-51.48528851 201.74621795 -54.46478312 198.23678702 -57.375 194.625 C-61.53211371 189.48674931 -65.93629155 184.63371579 -70.42578125 179.7890625 C-75.77465285 173.99377521 -80.86770252 167.98768039 -86 162 C-86.33 196.98 -86.66 231.96 -87 268 C-51.21169865 273.65078442 -23.63131888 269.85178959 5.875 248.96484375 C26.60971445 233.18702197 40.49288398 207.91008302 44.49609375 182.32421875 C48.16443675 154.29083211 41.39082208 127.06714968 24.6875 104.3125 C23.34489633 102.57750213 22.11319184 101.09591878 20.43852234 99.67680359 C18.59440526 97.5272213 18.63532659 96.42367382 18.65942383 93.62036133 C18.65965042 92.73967484 18.65987701 91.85898834 18.66011047 90.95161438 C18.67559433 90.00465195 18.69107819 89.05768951 18.70703125 88.08203125 C18.71127609 87.10965012 18.71552094 86.13726898 18.71989441 85.13542175 C18.73669685 82.02750034 18.77435221 78.92022566 18.8125 75.8125 C18.8275448 73.70638957 18.84123356 71.60026898 18.85351562 69.49414062 C18.88660556 64.32917762 18.93839891 59.16469849 19 54 C22.53474155 55.34907427 25.02041534 56.61878212 27.8125 59.1875 C28.50085938 59.81398437 29.18921875 60.44046875 29.8984375 61.0859375 C30.93871094 62.03339844 30.93871094 62.03339844 32 63 C33.31209439 64.10464863 34.62459108 65.20881959 35.9375 66.3125 C54.36447249 82.548351 68.99653067 106.16680963 75 130 C75.19174805 130.72461426 75.38349609 131.44922852 75.58105469 132.19580078 C84.93713892 168.75779063 78.23737827 206.854455 59.37890625 239.11328125 C48.57451783 257.06795514 33.08311712 273.39640673 15 284 C14.11417236 284.53391357 14.11417236 284.53391357 13.21044922 285.07861328 C-10.02202525 299.05388611 -34.58843266 305.09447105 -61.6875 305.25 C-62.80350586 305.2593457 -63.91951172 305.26869141 -65.06933594 305.27832031 C-72.02204234 305.25171296 -78.52366465 304.55991278 -85.34350586 303.18457031 C-88.2985562 302.66476485 -88.2985562 302.66476485 -90.875 305.5 C-91.21273437 306.06589844 -91.55046875 306.63179688 -91.8984375 307.21484375 C-93.51976394 309.84231248 -95.78314296 311.4792083 -98.15625 313.41015625 C-100.56544856 315.48757959 -102.76564739 317.73581182 -105 320 C-108.66666667 323.66666667 -112.33333333 327.33333333 -116 331 C-116.58523437 331.60585938 -117.17046875 332.21171875 -117.7734375 332.8359375 C-119 334 -119 334 -120 334 C-120 258.43 -120 182.86 -120 105 C-91 105 -91 105 -84.375 110.1875 C-83.24905106 111.84896124 -82.12268374 113.51325503 -81.10253906 115.24169922 C-79.15403995 118.3491152 -76.6657207 121.00179996 -74.25 123.75 C-73.32383926 124.846445 -72.4005519 125.94532503 -71.48046875 127.046875 C-67.01361177 132.36489685 -62.43133167 137.54608899 -57.69628906 142.62573242 C-52.72949872 147.95754635 -47.94848286 153.35295439 -43.42578125 159.07421875 C-39.75539598 163.50114076 -35.84694661 167.72561487 -32 172 C-31.505 119.53 -31.505 119.53 -31 66 C-45.18402017 63.31284744 -45.18402017 63.31284744 -59.25 62.6875 C-60.80037964 62.70441895 -60.80037964 62.70441895 -62.38208008 62.72167969 C-69.40841333 62.84823028 -76.17129652 63.23448082 -83 65 C-84.00160156 65.24492187 -85.00320313 65.48984375 -86.03515625 65.7421875 C-95.29388359 68.28468128 -103.6133967 72.41526354 -112 77 C-112.9796875 77.53367187 -113.959375 78.06734375 -114.96875 78.6171875 C-139.08805313 92.875952 -153.52460778 116.67161594 -161 143 C-161.268125 143.93972656 -161.53625 144.87945312 -161.8125 145.84765625 C-167.14988738 169.23579121 -161.55673555 195.77494298 -150.75 216.6875 C-150.24895752 217.66601929 -150.24895752 217.66601929 -149.73779297 218.66430664 C-147.96813257 221.9389485 -146.29673072 224.68705396 -143.71704102 227.40771484 C-134.8602853 237.1306932 -135.94694916 246.72604165 -136.4375 259.25 C-136.48272565 261.26683707 -136.52377593 263.28377232 -136.56054688 265.30078125 C-136.65890661 270.20297896 -136.8137332 275.10038724 -137 280 C-140.1260271 279.29337894 -141.9178714 278.51793373 -144.35546875 276.41015625 C-144.97349365 275.87817627 -145.59151855 275.34619629 -146.22827148 274.7980957 C-146.87481689 274.22534912 -147.5213623 273.65260254 -148.1875 273.0625 C-148.856604 272.4749292 -149.52570801 271.8873584 -150.21508789 271.28198242 C-155.55940213 266.52437322 -160.43505204 261.5156051 -165 256 C-166.06154297 254.73349609 -166.06154297 254.73349609 -167.14453125 253.44140625 C-171.18793223 248.51280803 -174.8298922 243.52973497 -178 238 C-178.47050781 237.19175781 -178.94101563 236.38351562 -179.42578125 235.55078125 C-185.23375101 225.2705247 -189.71346778 214.83161714 -192.75 203.4375 C-193.04789429 202.32375 -193.04789429 202.32375 -193.35180664 201.1875 C-202.75799144 163.99782204 -196.35688251 126.67707274 -177 94 C-157.73968417 62.77755976 -125.82423593 40.28775203 -90.31860352 31.50390625 C-80.25622285 29.31703106 -70.46776285 28.67624027 -60.1875 28.75 C-58.8782959 28.75386719 -57.5690918 28.75773437 -56.22021484 28.76171875 C-47.01179752 28.84398777 -38.06987573 29.37727463 -29 31 C-28.67 30.01 -28.34 29.02 -28 28 C-25.66120226 25.46630245 -23.29615228 23.22780944 -20.5625 21.125 C-17.74816182 18.79115858 -15.60232268 16.24196727 -13.33203125 13.390625 C-12.89246094 12.93171875 -12.45289063 12.4728125 -12 12 C-11.34 12 -10.68 12 -10 12 C-9.62875 11.13375 -9.62875 11.13375 -9.25 10.25 C-7.81700012 7.67060021 -6.21575324 5.93878408 -4 4 C-3.34 4 -2.68 4 -2 4 C-1.34 2.68 -0.68 1.36 0 0 Z " fill="#22273B" transform="translate(365,139)"/>
<path d="M0 0 C0.66 0 1.32 0 2 0 C2.2519555 3.02346601 2.20421041 4.6402007 0.6875 7.3125 C0.130625 7.869375 -0.42625 8.42625 -1 9 C-1.99 9 -2.98 9 -4 9 C-3.34 9.33 -2.68 9.66 -2 10 C-2 10.99 -2 11.98 -2 13 C-2.60328125 13.04898438 -3.2065625 13.09796875 -3.828125 13.1484375 C-4.62734375 13.22320312 -5.4265625 13.29796875 -6.25 13.375 C-7.03890625 13.44460937 -7.8278125 13.51421875 -8.640625 13.5859375 C-11.085877 14.01507113 -12.84836903 14.78600638 -15 16 C-13.625 14 -13.625 14 -12 12 C-11.34 12 -10.68 12 -10 12 C-9.7525 11.4225 -9.505 10.845 -9.25 10.25 C-7.81700012 7.67060021 -6.21575324 5.93878408 -4 4 C-3.34 4 -2.68 4 -2 4 C-1.34 2.68 -0.68 1.36 0 0 Z " fill="#3E4252" transform="translate(365,139)"/>
<path d="M0 0 C0 3 0 3 -2 5.1875 C-2.66 5.785625 -3.32 6.38375 -4 7 C-2.92598892 4.08482708 -2.22189824 2.22189824 0 0 Z M-5 7 C-5 9.62113708 -5.31292445 11.50935112 -6 14 C-7.65 14.33 -9.3 14.66 -11 15 C-9.26440562 11.942048 -7.61527381 9.36620011 -5 7 Z M-12 15 C-12 18 -12 18 -13.3125 19.38671875 C-14.875 20.59114583 -16.4375 21.79557292 -18 23 C-16.55746343 19.63408134 -14.66735273 17.48952921 -12 15 Z " fill="#EAECEF" transform="translate(419,385)"/>
<path d="M0 0 C0.33 0 0.66 0 1 0 C1 11.55 1 23.1 1 35 C-0.32 34.67 -1.64 34.34 -3 34 C-3.33 33.34 -3.66 32.68 -4 32 C-2.68 32 -1.36 32 0 32 C0 21.44 0 10.88 0 0 Z " fill="#303342" transform="translate(227,384)"/>
<path d="M0 0 C0.33 0.66 0.66 1.32 1 2 C1.66 2 2.32 2 3 2 C3 2.99 3 3.98 3 5 C3.66 5 4.32 5 5 5 C4.67 5.99 4.34 6.98 4 8 C0.4375 9.1875 0.4375 9.1875 -3 10 C-2.49287967 6.28111761 -1.88391785 3.26545761 0 0 Z " fill="#2F3345" transform="translate(178,253)"/>
<path d="M0 0 C0.66 0.66 1.32 1.32 2 2 C4.10820797 1.6814823 4.10820797 1.6814823 6 1 C5.54917531 2.46067199 5.08906463 3.91848032 4.625 5.375 C4.36976563 6.18710937 4.11453125 6.99921875 3.8515625 7.8359375 C3 10 3 10 1 12 C0.66666667 10.66666667 0.33333333 9.33333333 0 8 C-0.20625 7.34 -0.4125 6.68 -0.625 6 C-1.05725887 3.69461938 -0.71120955 2.21265195 0 0 Z " fill="#2D3144" transform="translate(426,360)"/>
<path d="M0 0 C0.66 0.33 1.32 0.66 2 1 C1.26674793 2.48754006 0.51273922 3.96486192 -0.25 5.4375 C-0.66765625 6.26121094 -1.0853125 7.08492187 -1.515625 7.93359375 C-3 10 -3 10 -5.171875 10.78515625 C-6.07679688 10.89150391 -6.07679688 10.89150391 -7 11 C-7.33 9.02 -7.66 7.04 -8 5 C-7.236875 4.731875 -6.47375 4.46375 -5.6875 4.1875 C-3.12619116 3.05575888 -1.80307062 2.08776599 0 0 Z " fill="#2B3040" transform="translate(216,248)"/>
<path d="M0 0 C0.66 0 1.32 0 2 0 C2.24687966 2.9625559 2.21079991 4.62056017 0.75 7.25 C-1.18001672 9.18001672 -2.33246269 9.63206382 -5 10 C-5 8.35 -5 6.7 -5 5 C-4.01 4.67 -3.02 4.34 -2 4 C-0.79117904 1.99983534 -0.79117904 1.99983534 0 0 Z " fill="#333849" transform="translate(365,139)"/>
<path d="M0 0 C4.41393071 2.20696535 6.64950384 4.66062248 9 9 C8.67 9.99 8.34 10.98 8 12 C4.72257902 8.89973691 2.06895163 6.02901106 0 2 C0 1.34 0 0.68 0 0 Z " fill="#292D41" transform="translate(287,306)"/>
<path d="M0 0 C1.64826111 2.96687001 2.44271087 5.65626525 3 9 C1.02 9.66 -0.96 10.32 -3 11 C-2.53199289 6.94393835 -2.12046792 3.53411321 0 0 Z " fill="#323646" transform="translate(204,332)"/>
<path d="M0 0 C0 0.66 0 1.32 0 2 C-1.65 2.66 -3.3 3.32 -5 4 C-5 3.34 -5 2.68 -5 2 C-6.0725 2.185625 -7.145 2.37125 -8.25 2.5625 C-11.51946406 2.94393747 -12.99327978 2.89802485 -16 2 C-10.61972975 0.80911014 -5.54708616 -0.2919519 0 0 Z M-9 4 C-5 5 -5 5 -5 5 Z " fill="#404453" transform="translate(290,169)"/>
<path d="M0 0 C1.00016187 2.00032373 1.49396008 3.83125748 2 6 C0.35 6.33 -1.3 6.66 -3 7 C-3.66 5.35 -4.32 3.7 -5 2 C-2 0 -2 0 0 0 Z " fill="#2A2F43" transform="translate(242,184)"/>
<path d="M0 0 C0.66 0.33 1.32 0.66 2 1 C1.34 1.66 0.68 2.32 0 3 C-0.6425235 5.06874034 -0.6425235 5.06874034 -1 7 C-6.75 6.25 -6.75 6.25 -9 4 C-7.54618103 3.30300448 -6.08677047 2.61766134 -4.625 1.9375 C-3.40683594 1.36322266 -3.40683594 1.36322266 -2.1640625 0.77734375 C-1.44992187 0.52082031 -0.73578125 0.26429688 0 0 Z " fill="#393B4C" transform="translate(353,399)"/>
<path d="M0 0 C0.99 0.66 1.98 1.32 3 2 C2.34 2 1.68 2 1 2 C1.33 3.98 1.66 5.96 2 8 C0.68 8.33 -0.64 8.66 -2 9 C-2 8.01 -2 7.02 -2 6 C-2.99 5.34 -3.98 4.68 -5 4 C-3.35 2.68 -1.7 1.36 0 0 Z " fill="#2A2F41" transform="translate(221,197)"/>
<path d="M0 0 C0.66 0.33 1.32 0.66 2 1 C2 1.66 2 2.32 2 3 C1.34 3 0.68 3 0 3 C-0.66 4.32 -1.32 5.64 -2 7 C-3.98 7 -5.96 7 -8 7 C-5.42215154 4.35247996 -3.08351902 2.05567935 0 0 Z " fill="#323746" transform="translate(230,190)"/>
<path d="M0 0 C-0.33 0.99 -0.66 1.98 -1 3 C-1.66 3 -2.32 3 -3 3 C-3.33 3.99 -3.66 4.98 -4 6 C-5.32 4.35 -6.64 2.7 -8 1 C-5.29120665 -0.35439668 -2.99066732 -0.06501451 0 0 Z " fill="#313547" transform="translate(215,401)"/>
<path d="M0 0 C4.875 4.75 4.875 4.75 6 7 C5.34 7 4.68 7 4 7 C3.67 7.66 3.34 8.32 3 9 C3 8.34 3 7.68 3 7 C2.34 7 1.68 7 1 7 C1 6.34 1 5.68 1 5 C0.34 5 -0.32 5 -1 5 C-0.67 3.35 -0.34 1.7 0 0 Z " fill="#353949" transform="translate(221,368)"/>
<path d="M0 0 C1.515625 1.86328125 1.515625 1.86328125 3 4 C2.75203633 6.16968209 2.55766393 7.44233607 1 9 C0.30899447 10.99172182 -0.35902703 12.99161804 -1 15 C-2.20220203 11.46905698 -1.79532349 8.87101018 -1.0625 5.25 C-0.86785156 4.26515625 -0.67320312 3.2803125 -0.47265625 2.265625 C-0.31667969 1.51796875 -0.16070312 0.7703125 0 0 Z " fill="#434656" transform="translate(410,317)"/>
<path d="M0 0 C0.6875 2.8125 0.6875 2.8125 1 6 C-0.375 7.875 -0.375 7.875 -2 9 C-2.33 9 -2.66 9 -3 9 C-3 6.36 -3 3.72 -3 1 C-1 0 -1 0 0 0 Z " fill="#2B2D3E" transform="translate(248,464)"/>
<path d="M0 0 C0 1.98 0 3.96 0 6 C-1.65 5.67 -3.3 5.34 -5 5 C-5.33 4.01 -5.66 3.02 -6 2 C-3 0 -3 0 0 0 Z " fill="#2B3044" transform="translate(341,361)"/>
<path d="M0 0 C2.83374881 3.20336822 3.5205537 5.78087253 4 10 C3.01 9.67 2.02 9.34 1 9 C-0.25 5.5625 -0.25 5.5625 -1 2 C-0.67 1.34 -0.34 0.68 0 0 Z " fill="#333647" transform="translate(428,242)"/>
<path d="M0 0 C2.72426311 2.35277269 3.8141763 4.62496331 5 8 C3.33333333 8 1.66666667 8 0 8 C0 5.36 0 2.72 0 0 Z " fill="#303445" transform="translate(422,232)"/>
<path d="M0 0 C0.33 0.66 0.66 1.32 1 2 C1.66 2 2.32 2 3 2 C1.63016497 5.16115776 1.0109362 5.9927092 -2 8 C-2 6.68 -2 5.36 -2 4 C-1.34 4 -0.68 4 0 4 C0 2.68 0 1.36 0 0 Z " fill="#333849" transform="translate(412,388)"/>
<path d="M0 0 C2.5 2.3125 2.5 2.3125 5 5 C5 5.99 5 6.98 5 8 C4.01 7.67 3.02 7.34 2 7 C2 6.34 2 5.68 2 5 C1.34 5 0.68 5 0 5 C0 3.35 0 1.7 0 0 Z " fill="#343747" transform="translate(290,263)"/>
<path d="M0 0 C0.99 0.33 1.98 0.66 3 1 C3 1.66 3 2.32 3 3 C3.66 3 4.32 3 5 3 C5.33 2.01 5.66 1.02 6 0 C6 1.32 6 2.64 6 4 C4.02 4.99 4.02 4.99 2 6 C2 5.34 2 4.68 2 4 C1.34 3.67 0.68 3.34 0 3 C0 2.01 0 1.02 0 0 Z " fill="#35394C" transform="translate(257,453)"/>
<path d="M0 0 C1.32 0.66 2.64 1.32 4 2 C2.68 3.65 1.36 5.3 0 7 C0 6.01 0 5.02 0 4 C-0.66 3.67 -1.32 3.34 -2 3 C-1.34 2.01 -0.68 1.02 0 0 Z " fill="#2C3045" transform="translate(271,441)"/>
<path d="M0 0 C1.32 0 2.64 0 4 0 C4 0.66 4 1.32 4 2 C4.66 2.33 5.32 2.66 6 3 C5.34 4.32 4.68 5.64 4 7 C0 2.25 0 2.25 0 0 Z " fill="#2C3040" transform="translate(200,393)"/>
<path d="M0 0 C2.5 2.3125 2.5 2.3125 5 5 C5 5.99 5 6.98 5 8 C3.68 7.67 2.36 7.34 1 7 C0.67 4.69 0.34 2.38 0 0 Z " fill="#373B4D" transform="translate(312,288)"/>
<path d="M0 0 C4.875 1.75 4.875 1.75 6 4 C4.02 4.33 2.04 4.66 0 5 C0 3.35 0 1.7 0 0 Z " fill="#2E3145" transform="translate(384,193)"/>
<path d="M0 0 C0.66 0.33 1.32 0.66 2 1 C1.00102287 3.99693138 0.34869747 5.02709413 -2 7 C-2.66 7 -3.32 7 -4 7 C-4 5.68 -4 4.36 -4 3 C-2 1.25 -2 1.25 0 0 Z " fill="#E8E9EA" transform="translate(377,424)"/>
<path d="M0 0 C-4.75 4 -4.75 4 -7 4 C-6.625 2.0625 -6.625 2.0625 -6 0 C-3.50907189 -1.24546405 -2.58919267 -0.7767578 0 0 Z " fill="#343748" transform="translate(384,420)"/>
<path d="M0 0 C0.66 0.33 1.32 0.66 2 1 C1 4 1 4 -1.0625 5.1875 C-1.701875 5.455625 -2.34125 5.72375 -3 6 C-3.33 5.01 -3.66 4.02 -4 3 C-2.68 2.01 -1.36 1.02 0 0 Z " fill="#35394B" transform="translate(215,202)"/>
<path d="M0 0 C0.33 0.99 0.66 1.98 1 3 C-0.32 4.32 -1.64 5.64 -3 7 C-3.33 5.02 -3.66 3.04 -4 1 C-2 0 -2 0 0 0 Z " fill="#F3F3F4" transform="translate(365,136)"/>
<path d="M0 0 C0 1.32 0 2.64 0 4 C-2.31 4 -4.62 4 -7 4 C-2.25 0 -2.25 0 0 0 Z " fill="#3E4152" transform="translate(362,395)"/>
<path d="M0 0 C0.33 0.66 0.66 1.32 1 2 C1.66 2.33 2.32 2.66 3 3 C0.70572021 5.52370777 -0.76524552 6.38262276 -4 8 C-2.68 5.36 -1.36 2.72 0 0 Z " fill="#E4E6E9" transform="translate(426,373)"/>
<path d="M0 0 C0.66 0.33 1.32 0.66 2 1 C1.34 2.32 0.68 3.64 0 5 C-0.66 5 -1.32 5 -2 5 C-2.33 5.99 -2.66 6.98 -3 8 C-3.66 7.67 -4.32 7.34 -5 7 C-3.35 4.69 -1.7 2.38 0 0 Z " fill="#3C3E4C" transform="translate(392,365)"/>
<path d="M0 0 C0.66 0.99 1.32 1.98 2 3 C0.68 4.65 -0.64 6.3 -2 8 C-2.6875 5.6875 -2.6875 5.6875 -3 3 C-1.5625 1.1875 -1.5625 1.1875 0 0 Z " fill="#3E4153" transform="translate(205,211)"/>
</svg>
