<?xml version="1.0" encoding="UTF-8"?>
<svg version="1.1" viewBox="0 0 2048 1255" width="1280" height="1280" xmlns="http://www.w3.org/2000/svg">
<path transform="translate(0)" d="m0 0h2048v1255h-2048z" fill="#fff"/>
<path transform="translate(1369)" d="m0 0h12l11 7 26 14 23 13 24 13 36 21 7 6 2 5 1 9v566l-3 8-5 6-20 12-26 15-25 14-15 9-28 16-22 13-25 14-25 15-15 8-8 3-9-1-16-8-21-12-22-13-28-16-24-14-52-30-24-14-18-11-7-8-2-8v-229l2-9 7-8 29-17 24-14 28-16 52-30 48-28 18-10 10-4 7 1 16 8 27 15 12 7 10 2 2-6 1-17 1-290z" fill="#353536"/>
<path transform="translate(753,285)" d="m0 0h6l23 12 17 10 21 12 29 17 97 56 18 11 7 7 2 4v239l-3 8-11 8-25 14-24 14-26 15-24 14-26 15-24 14-23 13-24 13-5 2-7-1-16-8-10-6-53-31-28-16-25-14-17-10-26-15-22-13-12-9-3-7-1-9 1-229 3-8 11-8 22-12 27-16 25-14 24-14 21-12 24-14 32-19 18-10z" fill="#589546"/>
<path transform="translate(216,282)" d="m0 0h9l17 9 21 12 26 15 28 16 24 14 28 16 25 14 24 14 13 8 7 8 2 5v165l1 56v68l-1 23-7 9-9-2-50-28-24-14-23-13-20-12-8-6-4-7-1-5-1-145-2-9-2-5-4-2-11-8-24-14-22-12-3-1h-9l-16 8-27 16-13 8-9 8-3 9-1 149-2 7-5 5-11 8-25 14-27 15-22 13-25 14-15 8h-8l-4-6h-3v-313l1-5 5-5 7-6 26-15 15-9 70-40 24-14 28-16 24-14z" fill="#353536"/>
<path transform="translate(1824,284)" d="m0 0h6l16 8 27 15 72 42 52 30 24 14 16 10 5 5 3 7 1 35v-32h2v60h-1l-1-23-1 29-4 8-13 8-29 17-24 14-26 15-24 14-12 6h-6l-5-5-3-6v-52l-2-10-5-5-18-10-17-10-28-16-7 1-22 12-41 24-5 6v77l3 5 10 7 52 30 23 13 17 10 25 14 24 14 21 12 22 13 8 6 4 5-1 5-4 5-15 9-29 16-21 12-47 26-17 8-8-1-16-8-18-10-24-14-25-14-21-12-26-15-25-14-24-14-22-13-8-6-3-7-1-9v-218l1-14 3-6 5-4 26-15 22-13 28-16 71-41 29-17 21-12z" fill="#353536"/>
<path transform="translate(1006,748)" d="m0 0h10l12 4 27 15 24 14 23 13 24 14 21 12 26 15 22 13 20 12 10 8 7 9 2 8v232l-6 12-10 9-21 13-23 13-24 14-28 16-26 15-27 16-21 12-15 9-10 4-4 1h-9l-12-3-16-8-28-17-26-16v-4l12-6 17-8 6 1 13 8 22 13 12 8 6-2 16-9 26-15 15-9 78-45 17-10 27-15 5-3 1-2v-218l-5-5-25-14-27-16-25-14-24-14-23-13-26-15-28-16-7-3-29 16-23 13-24 14-26 15-21 12-29 17-25 14-10 6-2 2v216l3 5 9 6 28 16 12 7 10 4 5 1h12l9-5 5-5 4-10 1-218 1-1h31l1 1 1 25v187l-1 16-3 13-5 9-9 10-8 6-12 5-12 2h-9l-16-3-15-6-23-12-24-14-12-8-8-7-5-8-2-9-1-20 1-207 2-10 7-9 13-9 26-15 24-14 21-12 17-10 45-26 26-15 21-12 11-5z" fill="#589546"/>
<path transform="translate(1048,899)" d="m0 0h28l20 3 16 5 14 7 10 8 9 13 7 16 3 10v7l-7 2h-24l-3-2-6-16-5-7-11-7-10-3-11-1h-23l-20 2-10 4-6 5-4 7-1 7 2 7 5 5 9 4 35 6 34 5 25 6 12 5 9 6 7 7 8 16 2 12-1 14-4 12-6 10-9 10-10 7-12 6-14 4-14 3-9 1h-27l-22-3-21-6-14-7-10-8-6-7-7-12-4-12-1-7v-10l4-2h28l2 1 4 16 5 9 7 6 13 5 19 3h28l20-3 10-3 7-5 6-9 1-3v-11l-7-8-12-5-11-3-63-9-15-4-12-5-11-7-7-7-5-8-4-14v-16l3-12 6-11 8-9 13-9 14-6 18-4z" fill="#589546"/>
<path transform="translate(1289,454)" d="m0 0h6l18 10 24 14 20 12 6 5 1 5v78l-5 5-26 15-25 14-10 6-5 2-7-1-26-15-28-16-11-8-2-2-1-15v-25l1-42 5-5 17-10 26-15 17-10z" fill="#fff"/>
<path transform="translate(1827,485)" d="m0 0 12 6 20 12 9 6 1 1v44l-4 6-30 18-6 4-6-2-26-15-8-5v-2h-2l-3-6v-34l1-9 19-12 20-11z" fill="#589546"/>
<path transform="translate(1,409)" d="m0 0h2l1 222v96h-4v-313z" fill="#599647"/>
<path transform="translate(726,299)" d="m0 0 2 1-14 9-15 9-29 17-26 15-23 13-14 8-24 14-21 12-2-1 9-6 18-10 19-11 78-45 27-16z" fill="#3C4939"/>
<path transform="translate(2044,415)" d="m0 0h1l1 35v-32h2v60h-1l-1-23-1 29h-1z" fill="#599647"/>
<path transform="translate(557,397)" d="m0 0 2 1-12 8-3 3h-2l2-4z" fill="#3F523B"/>
<path transform="translate(620,361)" d="m0 0 1 2-14 8-3 1v-2z" fill="#3B4739"/>
</svg>
