<?xml version="1.0" encoding="UTF-8"?>
<svg version="1.1" viewBox="0 0 2048 1288" width="1280" height="1280" xmlns="http://www.w3.org/2000/svg">
<path transform="translate(0)" d="m0 0h2048v1288h-2048z" fill="#FEFFFF"/>
<path transform="translate(1142,170)" d="m0 0h28l22 2 23 4 17 5 21 9 17 9 18 12 11 9 10 9 10 11 9 14 5 11 4 17 1 8v30l-3 25-7 36-8 34-8 25-9 25-13 33-14 30-21 41-9 16 37-3 31-4h11l7 2 5 5 4 9v11l-4 16-7 13-7 9-11 11-14 9-13 6-15 5-16 3-22 2h-33l-8 66-6 38-5 23-6 17-6 11-9 11-7 7-15 10-23 9-21 6-10 2-10 1h-20l-14-2-16-5-13-7-12-11-7-8-8-14-6-20-3-23-2-28-2-51-1-17-14 7-13 4h-32l-25-4-22-6-10-6-8-6-6 1-9 8-13 6-7 2h-7l-14-4-13-7-12-11-9-10-11-16-9-16-13-27-13-32-10-28-9-29-15-52-10-44-7-40-2-17v-50l3-21 4-19 6-17 10-19 10-14 15-15 13-9 14-8 21-8 21-5 16-2 14-1h13l36 3 23 4 39 10 12 5 2-5 5-3 14-6 20-6 21-3h35l24 3 15 2 29-7 25-4z" fill="#FEFFFF"/>
<path transform="translate(998,219)" d="m0 0h29l26 4 21 6 21 9 19 10 17 12 15 13 9 9 9 11 10 13 12 19 8 16 6 15h-24l-19 3-13 5-11 7-8 9-5 11-3 11v21l3 15 5 17 10 25 12 25 13 25 12 22 8 14 9 14 6 8-2 3-10 5-5 4-5 7-4 12-1 5-3 39-5 39-6 41-7 39-5 20-7 14-5 6-14 9-14 6-16 4-7 1h-20l-12-3-11-6-10-9-7-11-5-15-4-25-2-28-1-27v-87l-2-14-6-12-9-7-13-6-12-2 2-9 12-30 10-24 6-22 3-22v-36l-3-26-5-24-8-17-8-9-10-6-9-3-13-2h-11l-15 2-15 4-16 7-9 3 1-14 4-23 6-21 6-16 8-16 9-16 8-11 9-10 14-11 14-8 11-5 17-4z" fill="#346394"/>
<path transform="translate(794,221)" d="m0 0h36l24 3 31 6 26 6-6 8-9 11-11 17-8 16-8 20-6 21-3 16-3 24-1 14-1 80-2 34v24l4 17 6 15 9 15 12 14 2 4-11 11-7 8-9 10-9 11-10 11-7 8-9 9-11 6-8-1-8-4-13-12-10-13-9-15-13-28-13-34-12-36-11-41-10-41-9-46-3-24v-25l2-22 4-20 6-16 9-17 8-10 12-12 14-9 19-8 18-4z" fill="#346394"/>
<path transform="translate(1142,170)" d="m0 0h28l22 2 23 4 17 5 21 9 17 9 18 12 11 9 10 9 10 11 9 14 5 11 4 17 1 8v30l-3 25-7 36-8 34-8 25-9 25-13 33-14 30-21 41-9 16 37-3 31-4h11l7 2 5 5 4 9v11l-4 16-7 13-7 9-11 11-14 9-13 6-15 5-16 3-22 2h-33l-8 66-6 38-5 23-6 17-6 11-9 11-7 7-15 10-23 9-21 6-10 2-10 1h-20l-14-2-16-5-13-7-12-11-7-8-8-14-6-20-3-23-2-28-2-51-1-17-14 7-13 4h-32l-25-4-22-6-10-6-8-6-6 1-9 8-13 6-7 2h-7l-14-4-13-7-12-11-9-10-11-16-9-16-13-27-13-32-10-28-9-29-15-52-10-44-7-40-2-17v-50l3-21 4-19 6-17 10-19 10-14 15-15 13-9 14-8 21-8 21-5 16-2 14-1h13l36 3 23 4 39 10 12 5 2-5 5-3 14-6 20-6 21-3h35l24 3 15 2 29-7 25-4zm-18 22-21 2-26 5-6 3v2l-17-3-15-2-14-1h-31l-18 2-15 4-16 8-14 8h-7l-25-8-24-6-31-5-12-1h-39l-20 3-19 5-18 8-12 7-13 12-9 10-7 11-8 16-5 14-5 25-2 18v41l4 33 8 42 13 52 12 42 10 30 12 29 11 24 13 22 13 16 11 11 10 6 11 4h14l12-4 16-12 7-7 7-9 11-12 9-11 11-13 10-11 4-4 9 3 8 3 21 3-3 6-7 7-14 8-10 4-27 7-11 6-6 7-2 5v6l5 10 9 7 12 6 17 5 9 1h21l15-3 17-6 13-9 7-5 1 84 3 32 4 21 4 12 8 15 8 10 8 7 10 6 15 5 6 1h26l17-3 20-6 14-7 9-7 6-5 8-10 9-17 6-21 5-30 7-56 4-38 22 1h14l22-2 21-5 21-8 15-9 10-9 7-7 5-8 1-3v-10l-3-5-6-5h-20l-27 4-13 1h-14l-14-3-3-1 5-9 9-14 10-18 14-27 12-25 13-32 10-28 8-25 6-24 6-30 3-26v-37l-3-18-5-14-6-10-10-12-8-7-15-12-21-13-17-8-18-6-26-5-10-1z" fill="#08090E"/>
<path transform="translate(1136,211)" d="m0 0h29l26 4 17 4 19 7 23 12 14 10 14 12 9 10 7 11 4 13 1 8v20l-2 22-5 30-8 33-7 23-14 38-11 26-12 25-7 12-8 16-8 15-8 11-2-4 10-25 3-14 1-19-2-31-2-18v-37l4-31 1-13v-15l-3-16-8-19-12-23-12-18-11-14-12-13-12-12-20-15-16-10-17-9 4-2 21-3z" fill="#346394"/>
<path transform="translate(928,381)" d="m0 0h22l9 4 5 5 5 8 5 17 3 20 2 24v14l-2 19-4 18-7 20-12 30-9 26h-7l-15-4-15-8-10-8-10-10-9-14-4-9-2-10-1-18 3-43 1-62 17-9 20-7z" fill="#346394"/>
<path transform="translate(1329,983)" d="m0 0h11l14 2 14 5 10 7 9 10 8 16 4 15 1 8v15l-3 15-5 12-6 9-8 9-13 9-9 4-10 2h-21l-12-2-9-4-11-7-8-8-9-14-5-16-1-9v-23l4-16 6-11 9-11 10-8 11-5 10-3z" fill="#FEFFFF"/>
<path transform="translate(1174,376)" d="m0 0h26l2 1 1 6-3 31-2 27 1 25 2 21v32l-2 15-4 15-4-1-8-16-12-23-8-16-12-25-10-26-4-17v-22l3-10 7-8 12-6 7-2z" fill="#346394"/>
<path transform="translate(1320,974)" d="m0 0h31l14 3 12 5 11 8 9 10 8 14 5 13 2 12 1 12v10l-2 14-5 15-9 14-7 7v3l8 7 10 9 1 7-5 3-4-1-7-6-9-9v-2l-6-1-13 6-21 4h-17l-14-2-14-5-14-8-13-13-8-15-5-17-1-6v-27l3-14 5-13 8-12 11-11 15-9 14-4zm9 9-13 2-13 5-11 7-10 11-6 10-4 10-2 10v23l2 13 5 14 9 13 7 7 12 8 12 4 8 1h21l13-3 11-6 11-9 8-10 7-14 3-11 1-7v-15l-3-17-5-13-6-10-10-11-10-6-12-4-14-2z" fill="#0D3A76"/>
<path transform="translate(1170,974)" d="m0 0h34l14 3 9 4 9 6 6 9 4 11 1 3v8l-4 1-7-1-2-2-3-12-6-10-8-5-13-4-7-1h-17l-17 4-9 6-6 9-1 4v8l3 12 4 5 12 6 25 6 28 6 16 5 7 5 6 10 3 8 1 6v12l-3 10-6 8-9 8-10 5-14 3-7 1h-20l-17-3-13-5-9-6-7-7-6-12-2-8v-11h10l6 3v3l-2 1 1 8 6 10 4 5 11 7 9 3 6 1h26l12-3 10-6 6-8 3-8v-16l-4-8-5-4-10-5-59-13-10-4-10-9-4-8-2-12 1-12 4-11 7-8 9-6 11-4z" fill="#0E3A76"/>
<path transform="translate(1059,1036)" d="m0 0h19l13 4 9 7 7 10 4 11 1 4v8l-2 1-17 1h-57v8l4 10 7 8 8 5 3 1h19l11-4 8-7 8-10 5-1v7l-4 8-9 9-8 4-11 3h-18l-14-5-12-11-6-10-3-12 1-17 4-11 7-10 8-6 10-4z" fill="#090C12"/>
<path transform="translate(686,1043)" d="m0 0 12 1 10 4 8 7 4 8 2 10v12l-2 11-6 10-8 6-9 3h-18l-11-4-6-5-6-10-2-9v-17l4-9 6-8 7-6 8-3z" fill="#FEFFFF"/>
<path transform="translate(913,1043)" d="m0 0h9l11 4 9 6 5 7 3 10v15l-2 9-6 8-8 6-11 4h-11l-10-3-8-5-6-7-4-12v-15l5-12 8-9 8-4z" fill="#FEFFFF"/>
<path transform="translate(555 1e3)" d="m0 0h55l8 2 6 5 3 7 1 5v16l-3 8-4 5-6 3-4 1-22 1h-33l-1-1z" fill="#FEFFFF"/>
<path transform="translate(861,327)" d="m0 0h1l-1 11-4 31-1 14-1 80-2 34v24l4 17 6 15 9 15 12 14 2 4-11 11-7 8-9 10-9 11-10 11-7 8-9 9-5 2v-5l6-9h1l2-6 2 3 6-7 1-2h3v-2h2l2-5 1-4-4 1-1-3h3l1-4-3-1v2l-7 4-6 5 2-5 7-9 5-5 1-6 5-2 4-5 1-6-5-1-2-5-1-15h-2v-2h5l1 1 1-2h-2l-1-4h6l2 2-1 5-3 1v3l4 1 3-6 4 2 3 3 2-1-1-4-7-8v-2l-5-2-4-4-2-1-2-6v-18l-1-11-1-14-1-4 1-7-1-12-1-2v-8l2-5h2v-12l1-12v-27l-1-14 6-27 1-5 1-3 1-18 2-9 2-3h2z" fill="#27588A"/>
<path transform="translate(906,1036)" d="m0 0h20l10 4 9 6 5 4 2-13 5-1 3 5v83l-3 12-6 9-10 6-13 4-6 1h-12l-15-3-9-6-6-8-2-5v-5l6-2 5 6 6 9 6 4 9 2h12l10-2 10-6 4-5 3-11 1-7v-13l-9 8-10 5-8 2h-12l-15-3-10-6-6-7-5-11-2-9v-10l3-12 6-11 8-8 12-5zm7 7-13 4-9 8-6 12-1 3v15l4 12 7 8 12 6 5 1h11l11-4 9-7 5-7 2-9v-15l-4-12-6-7-14-7-4-1z" fill="#090C12"/>
<path transform="translate(544,996)" d="m0 0h76l7 4 7 8 4 10 1 5v18l-3 8-4 6-5 5-6 4-7 2-12 1h-46l-1 53-4 2h-7zm11 9v52l1 1h33l22-1 8-3 5-4 3-6 1-4v-16l-3-10-5-6-4-2-6-1z" fill="#08090E"/>
<path transform="translate(1428,976)" d="m0 0h9l1 1 1 139h94l1 4-2 6-13 1-60 1h-34v-151z" fill="#13477D"/>
<path transform="translate(966,611)" d="m0 0h7l9 4 5 6 2 6-1 7-6 9-10 10-14 9-11 4-9 2-9 1h-11l-16-2-12-4-3-3 4-3 18-3 18-6 14-8 8-8 7-9 8-10z" fill="#346394"/>
<path transform="translate(677,1036)" d="m0 0h23l11 4 6 4 5 5 6 9 3 9 1 19-3 14-6 9-9 8-10 4-10 2h-16l-13-4-8-6-7-8-4-9-2-8v-17l4-12 6-10 8-7 8-4zm9 7-10 2-8 4-7 7-5 8-2 6v17l3 11 6 9 9 6 7 2h18l11-4 6-5 6-10 2-11v-12l-2-10-4-8-8-7-10-4z" fill="#090B11"/>
<path transform="translate(776,1035)" d="m0 0 17 1 11 4 8 7 5 9 1 9-5-1-4-4-5-8-5-4-11-4h-19l-9 4-4 5-2 4 1 8 1 3 9 3 41 7 8 4 4 4 3 8-1 11-6 9-9 6-11 3h-25l-10-3-9-6-7-10v-9l2-3 4 2 7 12 7 6 5 2 6 1h17l9-2 6-4 3-5 1-10-2-4-10-4-36-6-10-4-5-5-2-6v-11l5-10 7-5 10-3z" fill="#090C12"/>
<path transform="translate(973,422)" d="m0 0 3 4 2 18 1 15v14l-2 19-4 18-7 20-12 30-9 26h-7l-15-4-15-8-10-8-6-6 1-2 4 4 4 1 5 5v2h2l1 2 3 1v2l6 2 6 3h5v-2h2l-2-4v-5h2v-2l6-4 1-3 4 1-1-7h2l1-5 3-3h3l-2-8 2-7 2-4 4-16 4-11 5-30 4-5h2l1-28-1-2z" fill="#27588A"/>
<path transform="translate(1377,983)" d="m0 0 9 5 8 8 9 14 6 13 3 16 1 12v10l-2 14-5 15-9 14-7 7v3l8 7 10 9 1 7-5 3-4-1-7-6-9-9v-2l-7-1 1-4 5-6h2v-2l-3 1v-2l-14 7-3-1 10-7 8-7 7-10 5-11 3-11 1-7v-15l-3-17-4-12h2v-6l-8-11-3-4v-3h-2v-2l-4-2-2-5z" fill="#12467C"/>
<path transform="translate(1201,608)" d="m0 0 12 3 16 5 14 2h27l24-3v2l-21 11-21 8-18 4-9 1h-23l-9-2-6-4-1-7 3-10 7-8z" fill="#346394"/>
<path transform="translate(1170,974)" d="m0 0h34l14 3 9 4 9 6 6 9 4 11 1 3v8l-4 1-7-1-2-2-3-12-6-10-8-5-13-4-7-1h-30l-2-1-10 3-7 8-4 10v16l4 11 4 4v2l4 2 2 2h-2v2l-8 1-8-7-4-6-3-15 1-12 4-11 7-8 9-6 11-4z" fill="#0C3875"/>
<path transform="translate(1060,1043)" d="m0 0h14l11 4 8 6 6 8 3 9-1 4-4 1h-62l1-10 6-11 7-6 8-4z" fill="#FEFFFF"/>
<path transform="translate(699,392)" d="m0 0 1 2 4 2 2 3 3 19 4 12 1 13 4 13 3 3 1 8 1 16 1 7-2 3h2l1 5 3 3 1 6-1 5 2 5 5 2 7 14 2 12 6 20 5 13 2 5 2 6 9 11 6 10 4 5v3l3 1 1 5 3-2 2 7-3 6-2 2-1 2-9-12-9-16-13-29-11-29-12-36-11-41-10-41-7-35z" fill="#265789"/>
<path transform="translate(847,1010)" d="m0 0 5 1 2 4-1 24h18l4 4-2 3-8 1h-11l1 60 2 4 13 4 2 2-1 4-1 1h-9l-9-2-6-4-2-3-1-12v-53h-9l-5-2-1-5 4-2 10-1 1-8v-17z" fill="#090C12"/>
<path transform="translate(794,221)" d="m0 0h36l24 3 31 6 26 6-6 8-4 4-4-2v-2h-4v-3l-3-1 4-2-10-3-22-4h-9l-13-1-29-1h-8l1 2-25 2-3-1-10 2-9 4-11 6-6 4-11 8-5 5-3 5h-2l-3 9-10 18h-2l-1 5-2 2 1-8 7-16 6-11 8-10 12-12 14-9 19-8 18-4z" fill="#265789"/>
<path transform="translate(889,314)" d="m0 0 2 1-1 10-3 8h-2v8l1 6 8 1 5 2h36l1 1 14 2 10 4 14 7 10 8 6 8 4 10 1 6-2 7-2-2-4-11-7-13-10-9-11-5-17-3h-11l-15 2-15 4-16 7-9 3 1-14 4-23 6-21z" fill="#255689"/>
<path transform="translate(998,219)" d="m0 0h29l26 4 21 6 21 9 19 10 14 10 1 2-4-2-6-2-3 1v-3l-5-1-13-8-16-8-3-2-7-1-5-4-5-1-11 1-18-4h-12l5 1 1 3h-21l-17 2-21 3-8 5-8 1-5 2 2-4-4 2-6 4-3 1-2 4-8 6h-4l2-4 10-9 15-10 17-8 17-4z" fill="#265789"/>
<path transform="translate(1010,631)" d="m0 0 1 2 2 1 2 11-1 22 1 20-2 5 2 13 5 25 3 9v8l1 9-1 3h-4l1 8-3 3v9l1 10-2 11-2-2-4-25-2-28-1-27v-74l1-11h2z" fill="#28598B"/>
<path transform="translate(1012,1036)" d="m0 0h8l4 3-1 5-1 1-15 2-10 4-6 7-2 6-1 9-1 47-1 2h-7l-2-5v-76l1-3 7 1 2 5 1 6 5-5 10-7z" fill="#080B11"/>
<path transform="translate(1178,273)" d="m0 0 5 2 6 7 5 3v2l5 1 6 9-2 1 1 3h3l5 8 4 11 2 5-3-1-1 1h-2l1 7 4 2 9 17 3 18v20l-2 11-1 21-3 11-4 4-1-1v-19l3-22 1-13v-15l-3-16-8-19-12-23-12-18-10-13z" fill="#27588A"/>
<path transform="translate(1227,458)" d="m0 0h3l3 4v15l-3 15 2 8 1 12 2 5 4 1-1 4-17 33-9 14-4 4-1-4 10-25 3-14 1-19-1-20v-17l2-1 1-3h2z" fill="#28588A"/>
<path transform="translate(1164,627)" d="m0 0h3v14l-4 40-8 56-8 45-4 17-4 1v-8l3-13v-19l4-12 2-14v-19l7-15 3-15 1-14-1-19 1-14 2-6h2z" fill="#265789"/>
<path transform="translate(935,390)" d="m0 0h18l6 4 2 3 1 7-3 6-4 3-7 2-10-1-8-5-4-6-1-7 3-4z" fill="#FEFFFF"/>
<path transform="translate(1118,384)" d="m0 0h3l-1 7-3 11v21l3 15 5 17 10 25 12 25 13 25 12 22-1 2-5-8v-2h-2l-4-6-3-7-6-9-1-7h-2l-6-12-5-7-3-7-1-4h-2l-8-18-2-5-2-8-4-9-1-10-1-5-3-9 3-15 1-12z" fill="#27588A"/>
<path transform="translate(699,392)" d="m0 0 1 2 4 2 2 3 3 19 4 12 1 13 4 13 3 3 1 8 1 16 1 7-2 3h2l1 5 3 3 1 6-1 5 1 5h-2l-11-41-10-41-7-35z" fill="#28588A"/>
<path transform="translate(1184,343)" d="m0 0h5l4 6 5 1 2 6h-24l-19 3-13 5-11 7-7 8h-2l-1-6 3-6 8-7 13-5 25-5 7-3 2-3z" fill="#265789"/>
<path transform="translate(1171,384)" d="m0 0 12 1 2 3-1 7-4 6-5 3-11 1-9-2-4-4v-6l5-4 11-4z" fill="#FEFFFF"/>
<path transform="translate(1178,273)" d="m0 0 5 2 6 7 5 3v2l5 1 6 9-2 1 1 3h3l5 8 4 11 2 5-3-1-1 1h-2l4 11-1 2-10-19-8-14-10-15-10-13z" fill="#265789"/>
<path transform="translate(1136,211)" d="m0 0h29l26 4 17 4 19 7 2 2h-9l-14-4-9-2h-5v1l-9-1-14-5-26-1h-23l-2-2 6-2z" fill="#27588A"/>
<path transform="translate(1165,982)" d="m0 0 9 2-4 2-11 4-7 6-4 7-1 4v8l3 12 4 5 12 6 16 4-1 4-9-1-7-1 7 3v4l-10-1-13-5 1-2h6l-1-4-5-5-4-5-3-9v-16l4-10 8-9z" fill="#14487E"/>
<path transform="translate(928,381)" d="m0 0h18l2 4 9 3v2h2l4 6v6h-2l-2-7-6-4h-18l-9 2-4-2h-11l-10 1-9 4-11 4-3-1 15-8 20-7z" fill="#27588A"/>
<path transform="translate(922,650)" d="m0 0h6l-1 6-3 5-2 4-4 1h-20l-10-4v-3l3-2 18-3z" fill="#265789"/>
<path transform="translate(1236,1074)" d="m0 0h3l2 6v11l-2 13 4 1 3 6-9 9-10 6h-3l-2-6v-4l5-4 6-7 4-10v-16z" fill="#12477C"/>
<path transform="translate(1385,1115)" d="m0 0 2 3-1 2h4v-4l4 1 14 13 1 7-5 3-4-1-7-6-9-9v-2l-3-1v-3z" fill="#0E3B77"/>
<path transform="translate(1287,386)" d="m0 0h1l-1 9-7 26-11 31-13 33-2 1-1-3 2-8h2l2-5 1-1 1-11 6-12 2-7 4-11 2-10 2-4h2l3-11 4-16z" fill="#28598A"/>
<path transform="translate(794,221)" d="m0 0h36l24 3 20 4v1l-16-1v-2l-8 1-21-2h-34l-16 2-9 1 2-3 14-3z" fill="#13477D"/>
<path transform="translate(1291,615)" d="m0 0h3v2l-21 11-18 7h-5l3-2 4-2-2-3 10-3h4l-1-2-13-1v-2l13-1 9-2z" fill="#114079"/>
<path transform="translate(1428,976)" d="m0 0h9l1 1v32l-1 5-6-5-1-8 1-8-2-13h-3v-3z" fill="#0C3875"/>
<path transform="translate(1436,1059)" d="m0 0h1v57l3 1-1 4-5 1-2-1-3-6 3-3 1-17v-25h2z" fill="#0B3774"/>
<path transform="translate(1069,228)" d="m0 0 13 4 29 14 16 11 2 3-4-2-6-2-3 1v-3l-5-1-13-8-16-8-3-2-7-1-4-3z" fill="#255689"/>
<path transform="translate(1136,1079)" d="m0 0 6 1 3 2v3l-2 1 1 8 6 10 4 5 11 7 9 3-4 3-10-3-6-4-5-5-7-8-2-8-1-6-1-5h-2z" fill="#14487E"/>
<path transform="translate(1427,1028)" d="m0 0h2l1 5 1 21v32l-1 7-3-1z" fill="#0B3774"/>
<path transform="translate(1238,619)" d="m0 0h30v1h-13v2h13l1 3-12 3-1 1 3 2-7 4-4 2-9 1v-2l4-1 1-5 5-3 6-2-1-2-16-3z" fill="#28598B"/>
<path transform="translate(1174,215)" d="m0 0h10l1 1 8 1v2h7l3 1h8l16 6 2 2h-9l-14-4-9-2h-5v1l-9-1-9-3z" fill="#27588A"/>
<path transform="translate(1440,1117)" d="m0 0 23 1 9 3 1 2-3 1-26 1-6-1 1-5z" fill="#27588A"/>
<path transform="translate(946,381)" d="m0 0 7 1 7 4 5 5 5 10 1 7-2 2h-4v-4h-3v-10l-3-4v-2h-2v-2l-9-2-2-4z" fill="#29598B"/>
<path transform="translate(1398,1068)" d="m0 0h1v11l-3 11-6 9h-2v2h-2l-2 4-8 6-8 4-3-1 10-7 8-7 7-10 5-11z" fill="#316192"/>
<path transform="translate(998,219)" d="m0 0h29l26 4 6 2v1h-6l-2-1-13-2-15-1h-22l-12 1-2 1-12 1 3-3z" fill="#184B80"/>
<path transform="translate(1223,1052)" d="m0 0 7 1 8 4 5 5 3 5h-2l-1 2-3-2-1 2-5-3-3-5-1-1-2 1v-3l-5-2-1-3z" fill="#12467C"/>
<path transform="translate(1136,211)" d="m0 0h29l26 4 17 4 2 2h-7l-10-2v-2h-8l-1-1-16-2h-41l4-2z" fill="#174B80"/>
<path transform="translate(883,271)" d="m0 0 1 3-12 24-3-1v-6l8-15 3-3h3z" fill="#28598B"/>
<path transform="translate(1268,621)" d="m0 0h11l-1 3-6 3h-2v2l-15 6h-5l3-2 4-2-2-3 10-3h4z" fill="#15497E"/>
<path transform="translate(1218,548)" d="m0 0h1l2 7-9 14-4 4-1-4 8-19z" fill="#356495"/>
<path transform="translate(892,558)" d="m0 0 5 4 4 1 5 5v2h2l1 2 3 1v2l6 2 6 3 8 2 10 1v2l2 1-11-1-12-4-13-7-10-8-6-6z" fill="#1E5184"/>
<path transform="translate(985,541)" d="m0 0 1 4-8 20-5 8-4 9-1-3 11-28 4-8z" fill="#28588B"/>
<path transform="translate(1158,698)" d="m0 0h1v12l-5 33-2 2 1-18 3-23z" fill="#15497E"/>
<path transform="translate(1244,1007)" d="m0 0h2l1 3v8l-4 1-7-1-2-2v-4l8-1z" fill="#13467C"/>
<path transform="translate(996,377)" d="m0 0 4 4 2 7v9l-1 2h-2v-4h-2l-4-17z" fill="#27588A"/>
<path transform="translate(878,355)" d="m0 0 1 2h5v12l-1 2h-4v2l-3 1z" fill="#356495"/>
<path transform="translate(1222,499)" d="m0 0h1l3 14 1 13-2 6h-3z" fill="#10457B"/>
<path transform="translate(946,381)" d="m0 0 7 1 7 4 4 4v6l-3-1-2-5h-2v-2l-9-2-2-4z" fill="#346394"/>
<path transform="translate(970,611)" d="m0 0 9 2 5 4v2l-5-1-4-1v-2l-5 1-2 4-3 2-1-4 3-5z" fill="#27588A"/>
<path transform="translate(1177,563)" d="m0 0 4 4 8 13 6 8-2 3-6 1v-11l-10-16z" fill="#26578A"/>
<path transform="translate(1520,1123)" d="m0 0h12v3h-36l3-2z" fill="#0B3672"/>
<path transform="translate(889,314)" d="m0 0 2 1-1 10-3 8h-2l-2 4-1-2 6-20z" fill="#29598B"/>
<path transform="translate(1251,490)" d="m0 0 1 4-9 19-2 1v-7l3-4 3-9z" fill="#295A8B"/>
<path transform="translate(722,493)" d="m0 0h2l1 5 3 3 1 6-1 5 1 5h-2l-5-18z" fill="#29598B"/>
<path transform="translate(1151,746)" d="m0 0h1v8l-4 24-2 2v-8l4-24z" fill="#164A7F"/>
<path transform="translate(873,578)" d="m0 0 8 1 5 5-2 4-3-1-1-2-3 3-1-5z" fill="#336394"/>
<path transform="translate(1136,1079)" d="m0 0 6 1 3 2v3l-2 1v8l-3-4-2-4v-3h-2z" fill="#306091"/>
<path transform="translate(1154,252)" d="m0 0 4 2 12 12h4l2 4v4l-3-1-7-8-12-12z" fill="#255689"/>
<path transform="translate(990,220)" d="m0 0h13l-2 2-12 1-2 1-12 1 3-3z" fill="#14487E"/>
<path transform="translate(1236,1074)" d="m0 0h3l2 6v11h-2l-1 3-1-15z" fill="#1B4E82"/>
<path transform="translate(1287,386)" d="m0 0h1l-1 9-5 19-2-3 3-10 3-14z" fill="#2A5B8C"/>
<path transform="translate(1e3 460)" d="m0 0 2 3 1 4v9l-2 6h-1z" fill="#27588A"/>
<path transform="translate(949,237)" d="m0 0 3 1-3 1-2 5-7 6-1-4 5-5z" fill="#2E5E8F"/>
<path transform="translate(976,482)" d="m0 0h1v10l-2 11-2 1 1-16z" fill="#184C80"/>
<path transform="translate(1260,471)" d="m0 0 1 2-5 12-2 1-1-3 2-8z" fill="#295A8C"/>
<path transform="translate(1230,1054)" d="m0 0 5 1 7 5-1 3-6-2-3-3v-3z" fill="#2A5A8C"/>
<path transform="translate(889,658)" d="m0 0 6 2v2l4 2-4 1-8-4z" fill="#356495"/>
<path transform="translate(924,581)" d="m0 0 8 1 10 1v2l2 1-11-1-9-3z" fill="#12457B"/>
<path transform="translate(1160,536)" d="m0 0 4 1 8 15-1 2-5-8v-2h-2l-4-6z" fill="#295A8C"/>
<path transform="translate(1224,980)" d="m0 0 5 2 2 2v3h-5l-3-3z" fill="#11467B"/>
<path transform="translate(922,382)" d="m0 0h11v1l-16 3h-5l1-2z" fill="#194D81"/>
<path transform="translate(1523,1116)" d="m0 0h10l1 4h-3l-5-1z" fill="#0E3B77"/>
<path transform="translate(865,309)" d="m0 0h2l-1 8-2 5h-1v-7z" fill="#295A8B"/>
<path transform="translate(908,236)" d="m0 0 3 1-5 5h-4l2-5z" fill="#336293"/>
<path transform="translate(1153,389)" d="m0 0 2 1-4 4-1 5-3-3 2-5z" fill="#28598B"/>
<path transform="translate(1388,1112)" d="m0 0 4 4-2 4h-4l1-6z" fill="#164A7F"/>
<path transform="translate(1234,1103)" d="m0 0 2 4-4 5-3-1z" fill="#295A8C"/>
<path transform="translate(1396 1e3)" d="m0 0 5 5 4 9h-2l-7-12z" fill="#0E3C77"/>
<path transform="translate(1170,212)" d="m0 0 16 2v1h-14v-2z" fill="#184B80"/>
</svg>
