<?xml version="1.0" encoding="UTF-8"?>
<svg version="1.1" viewBox="0 0 2048 1146" width="1280" height="1280" xmlns="http://www.w3.org/2000/svg">
<path transform="translate(0)" d="m0 0h2048v1146h-2048z" fill="#FDFDFD"/>
<path transform="translate(484,286)" d="m0 0h29l20 3 19 5 19 7 23 12 17 12 13 11 18 18 13 17 10 15 9 16 11 23 9 25 8 31 7 41 1 8-7-1-44-13-1-1-3-21-6-25-8-23-11-24-9-16-11-16-9-11-14-14-15-11-16-9-12-5-17-4-7-1h-30l-26 5-24 8-17 8-21 14-12 11-7 7-15 20-12 20-8 16-7 16-7 21-7 30-3 22-2 33v20l2 27 5 33 6 25 6 20 8 21 8 18 12 24 6 8 3 1 17 1 12 4 10 6 9 8 9 14 5 15 1 12-4 15-7 13-10 11-13 8-12 4-5 1h-12l-16-4-12-7-11-11-7-12-4-13-1-5v-11l4-13 2-5-1-6-12-21-13-28-12-31-9-29-6-26-4-22-3-23-1-11v-41l3-28 5-29 8-32 11-33 11-24 11-19 13-18 9-11 14-15 12-11 17-13 16-10 21-11 25-9 22-5z" fill="#7448BE"/>
<path transform="translate(445,514)" d="m0 0h18l13 4 10 5 12 11 7 8 49 2 28 3 29 5 30 7 26 8 28 11 29 14 18 10 19 12 17 12 11 9 15 13 28 28 9 11 10 12 16 24 12 23 8 19 8 26 5 27 1 9v33l-4 25-5 19-6 15-8 15-12 16-9 10-12 12-17 13-19 12-17 9-23 9-25 7-28 5-7 1h-34l-29-4-24-5-24-7-30-11-6-2 2-4 12-10 16-12 7-6 5-5 9 2 26 8 25 6 22 3 18 1 25-2 20-4 18-6 16-8 15-10 15-13 12-14 12-18 8-16 4-10 4-18 2-16-1-17-4-23-9-27-11-24-14-23-12-16-10-11-7-8-13-13-11-9-13-10-24-16-15-9-29-15-27-11-24-8-24-6-21-4-25-3-15-1h-38l-12 14-8 7-10 6-10 4-12 2-11-1-13-4-11-7-7-6-8-11-4-8-3-11v-18l4-13 7-12 9-9 13-8z" fill="#7448BE"/>
<path transform="translate(230,632)" d="m0 0 2 2 8 29 5 16-1 4-11 9-11 10-13 13-9 11-11 15-9 15-10 21-6 18-4 19-1 10v19l3 19 5 18 7 16 7 13 10 14 12 14 11 9 14 9 19 9 21 6 21 4 22 2h15l23-2 30-5 23-6 20-7 18-8 16-8 18-10 22-14 16-11 17-13 13-11 10-9 7-8 7-7 7-8 12-15 14-21 12-20 2-4-1-4-7-9-5-10-2-9v-17l5-16 9-13 9-8 16-8 9-2h16l12 3 13 7 11 11 8 14 4 13v16l-4 13-6 11-8 9-10 7-11 5-10 4-4 5-8 16-13 21-14 20-13 16-12 14-26 26-11 9-13 11-19 13-19 12-24 13-15 7-28 11-29 9-39 9-30 5-9 1h-32l-30-4-28-7-20-7-21-10-19-12-11-9-10-9-11-12-11-16-12-23-9-27-4-21-2-15v-29l3-25 5-22 7-21 8-18 10-18 12-18 9-12 12-14 15-15 8-7 10-9z" fill="#7448BE"/>
<path transform="translate(952,622)" d="m0 0h42l14 3 9 6 7 9 4 11 1 12-3 12-5 8-9 10-5 5 7 12 11 15 12 16-1 2-21 4-8-1-12-20-11-20-1-1h-17l2 38-1 1-26 1v-122z" fill="#7448BE"/>
<path transform="translate(1214,612)" d="m0 0h2l1 40v73l1 3 7 1 2 3v6l-8 7-3 1h-10l-6-4-5-7v-2l-14 10-5 3h-12l-12-5-8-8-5-8-3-10v-24l3-12 7-11 7-6 10-5 8-2h21v-41l2-1z" fill="#7448BE"/>
<path transform="translate(1585,655)" d="m0 0h19l11 4 10 9 5 8 3 11v26l-4 13-6 9-10 7-9 4-4 1h-19l-11-4-8-6-6-8-4-10-2-11v-10l2-12 5-12 6-8 7-6 10-4z" fill="#7448BE"/>
<path transform="translate(1679,655)" d="m0 0h20l11 4 8 7 6 10 4 13v24l-3 10-6 10-9 8-11 5-4 1h-19l-11-4-8-6-6-8-4-10-1-4v-24l4-13 5-9 4-5 9-6z" fill="#7448BE"/>
<path transform="translate(1810,612)" d="m0 0h12l1 59v26l5-5 9-15 11-16 5-5h23l-2 5-8 11-9 11-7 10-1 4 6 12 12 16 10 14 1 6-8 1h-17l-3-3-13-20-8-14-3-6-2-3-1 4-1 40-1 1h-19l-4-1v-130l1-1z" fill="#7448BE"/>
<path transform="translate(1080,655)" d="m0 0h18l10 4 9 9 5 10 2 9v14l-4 2-13 1h-40l3 12 4 6 6 5 8 2 14-1 12-5h6l1 1v7l-5 8-14 7-5 1h-18l-14-5-10-9-7-11-3-9-1-15 2-12 5-12 9-10 9-6z" fill="#7448BE"/>
<path transform="translate(1252,657)" d="m0 0h14v60l3 7 6 2 9-1 9-3 1-63 7-2h16v67l1 4 7 3 1 6-3 7-8 3-9-1-7-6-4-8-8 6-11 7-3 1h-11l-10-4-5-4-4-8-1-10v-46l1-15 1-1z" fill="#7448BE"/>
<path transform="translate(1458,622)" d="m0 0h82l2 1v12l-1 7-2 1-30 1v100l-3 1h-21l-1-1v-100l-32-1v-11l1-9z" fill="#7448BE"/>
<path transform="translate(1335,656)" d="m0 0h24l4 5 11 21 4 3 2-6 7-11 7-9 2-2 4-1h12l4 2-7 12-10 15-7 11v6l8 15 11 17 5 9v2l-23 1-4-2-11-23-3-4-3 1-8 13-7 10-4 3-4 1h-12l-2-2 14-25 8-15v-7l-11-17-9-15-3-7z" fill="#7448BE"/>
<path transform="translate(1965,636)" d="m0 0h5v21h18l5 5-2 9-1 2h-11l-10-1v50l5 5 10-1 5-2 4 1-1 8-3 6-6 4-10 3h-7l-9-3-7-5-4-7-1-4v-54h-9l-3-2-1-9 4-4 9-2v-13l6-3z" fill="#7448BE"/>
<path transform="translate(1761,612)" d="m0 0h12v31l-1 101-5 1h-19v-131l1-1z" fill="#7448BE"/>
<path transform="translate(1898,657)" d="m0 0h19l1 86-5 2h-19l-1-1v-86z" fill="#7448BE"/>
<path transform="translate(1588,671)" d="m0 0 10 1 6 4 4 5 2 5 1 6v20l-2 8-4 7-7 4h-10l-6-3-5-6-3-10-1-7v-12l3-12 7-8z" fill="#FDFDFD"/>
<path transform="translate(1682,671)" d="m0 0h7l7 3 5 5 3 6 2 15v10l-2 10-4 7-8 4h-10l-5-3-5-6-3-8-1-5v-20l4-10 8-7z" fill="#FDFDFD"/>
<path transform="translate(1173,672)" d="m0 0 14 1 5 2 1 4v38l-1 5-10 6h-9l-8-4-5-10-1-5v-21l4-10 6-5z" fill="#FDFDFD"/>
<path transform="translate(971,641)" d="m0 0h13l9 3 6 5 3 6v12l-5 10-9 6-3 1h-15l-3-2-1-4v-32z" fill="#FDFDFD"/>
<path transform="translate(1902,614)" d="m0 0h8l6 4 2 5v9l-5 5-7 3-8-1-6-7v-8l4-7z" fill="#7448BE"/>
<path transform="translate(1083,671)" d="m0 0h9l5 3 4 8v7l-1 1h-32l1-6 3-5 7-6z" fill="#FDFDFD"/>
</svg>
