<?xml version="1.0" encoding="UTF-8"?>
<svg version="1.1" viewBox="0 0 1882 820" width="1882" height="820" xmlns="http://www.w3.org/2000/svg">
<path transform="translate(0)" d="m0 0h1882v820h-1882z" fill="#F5F5F8"/>
<path transform="translate(601,727)" d="m0 0h671l2 2v32l-2 2h-671l-2-2v-32z" fill="#4CAF50"/>
<path transform="translate(601,680)" d="m0 0h671l2 2v32l-2 2h-671l-2-2v-32z" fill="#4CAF50"/>
<path transform="translate(601,328)" d="m0 0h671l2 2v32l-2 2h-671l-2-2v-32z" fill="#4CAF50"/>
<path transform="translate(733,71)" d="m0 0h16l5 5-1 6-4 4 7 11h-6l-8-10-4-1v11h-5z" fill="#4CAF50"/>
<path transform="translate(871,77)" d="m0 0 7 1 1-1h5v21l-3 5-2 1h-8l-4-3v-3l11 1v-3l-7 1-4-4-1-2v-8l3-5z" fill="#4CAF50"/>
<path transform="translate(997,77)" d="m0 0h5 3l7 1 3 4v10l-5 5h-5l-3-2v9h-5z" fill="#4CAF50"/>
<path transform="translate(975,77)" d="m0 0h5 3l7 1 3 4v10l-5 5h-5l-3-2v9h-5z" fill="#4CAF50"/>
<path transform="translate(956,71)" d="m0 0h7l5 12 4 12v2h-5l-2-6-11 1-2 5h-5l3-10z" fill="#4CAF50"/>
<path transform="translate(1107,77)" d="m0 0h6l5 4 1 2v8l-4 5-2 1h-6l-5-3-2-5 1-7 4-4z" fill="#4CAF50"/>
<path transform="translate(821,71)" d="m0 0h19v4h-14v6h13v4h-13v8h14v4h-19z" fill="#4CAF50"/>
<path transform="translate(1063,77)" d="m0 0h8l3 3 1 17-6-1-2 1h-6l-3-3 1-7 10-4v-2l-8 2-2-1 2-4z" fill="#4CAF50"/>
<path transform="translate(963,425)" d="m0 0h13l3 4-1 6-3 2 4 5 1 3-5-1-3-4v-2l-5-1v8h-4z" fill="#4CAF50"/>
<path transform="translate(955,135)" d="m0 0h12l3 2v7l-3 3 5 7v1h-5l-5-7-3-1v8h-4z" fill="#4CAF50"/>
<path transform="translate(925,77)" d="m0 0h6l5 4 1 7h-13l1 4h5l4-1 2 1-2 4-2 1h-7l-5-5v-10z" fill="#5EB661"/>
<path transform="translate(795,77)" d="m0 0h6l5 4 1 7h-13l1 4h5l4-1 2 1-2 4-2 1h-7l-5-5v-10z" fill="#5EB661"/>
<path transform="translate(1123,77)" d="m0 0h5 3 6l3 3v17h-5l-1-15h-4l-1 2-1 13h-5z" fill="#4CAF50"/>
<path transform="translate(759,77)" d="m0 0h5l1 15h4l1-2 1-13h5v20h-5-3-6l-3-4z" fill="#4CAF50"/>
<path transform="translate(899,77)" d="m0 0h4v2l4-2 7 1 2 4v15h-5l-1-16-5 2-1 14h-5z" fill="#4CAF50"/>
<path transform="translate(845,77)" d="m0 0h4v2l4-2 7 1 2 4v15h-5l-1-16-5 2-1 14h-5z" fill="#4CAF50"/>
<path transform="translate(900,425)" d="m0 0h4v6l6-1 3 3 1 6-2 5-6 1h-6z" fill="#4CAF50"/>
<path transform="translate(876,430)" d="m0 0h10l2 1 6-1 2 2v13h-3l-1-11h-3l-1 11h-4v-12l-3 1-1 2-1 9h-3z" fill="#4CAF50"/>
<path transform="translate(1044,77)" d="m0 0h7l4 4v2l-5 1-1-2h-4l-1 2v6l1 2 5-1 1-2 5 1-3 5-2 2h-7l-5-5-1-7 3-6z" fill="#4CAF50"/>
<path transform="translate(863,430)" d="m0 0h6l4 4v7l-4 4h-6l-4-4v-7z" fill="#4CAF50"/>
<path transform="translate(845,425)" d="m0 0h7l4 4v2l-4 1-1-2h-5l-2 3 1 6 5 1h2l1-3 3 1-2 5-3 2h-6l-5-5v-10z" fill="#4CAF50"/>
<path transform="translate(868,135)" d="m0 0h7l4 4-1 3-4-2h-5l-2 6 2 4h5l2-3 3 1-1 4-4 3h-6l-5-5v-9l2-4z" fill="#4CAF50"/>
<path transform="translate(1082,72)" d="m0 0h3v5h3v4h-3v12h3l1 3-1 1h-6l-2-2v-14h-2v-4h2l1-4z" fill="#4CAF50"/>
<path transform="translate(1010,430)" d="m0 0h5l3 3 1 6-9 1 8 2-2 3h-6l-4-4v-7z" fill="#5DB661"/>
<path transform="translate(944,430)" d="m0 0h5l3 3 1 6-9 1 8 2-2 3h-6l-4-4v-7z" fill="#5DB661"/>
<path transform="translate(1e3 140)" d="m0 0 7 1 2 3v5h-9l1 2h6l2 2-3 2h-6l-3-3-1-6 3-5z" fill="#5EB662"/>
<path transform="translate(935,140)" d="m0 0 7 1 2 3v5h-9l1 2h6l2 2-3 2h-6l-3-3-1-6 3-5z" fill="#5EB662"/>
<path transform="translate(896,140)" d="m0 0 7 1 2 3v5h-9l1 2h6l2 2-3 2h-6l-3-3-1-6 3-5z" fill="#5EB662"/>
<path transform="translate(911,140)" d="m0 0h6l2 2 1 13h-10l-3-3 1-4 8-2-1-2-7 1 2-4z" fill="#5FB763"/>
<path transform="translate(1019,71)" d="m0 0h5v26h-5z" fill="#4CAF50"/>
<path transform="translate(781,71)" d="m0 0h5v26h-5z" fill="#4CAF50"/>
<path transform="translate(661,479)" d="m0 0h9l3 3-2 5v2l2 5-4-1-3-4-3-1v6h-2z" fill="#5E6060"/>
<path transform="translate(924,430)" d="m0 0h10l2 1 1 3v11h-4l-1-11h-3l-1 11h-4z" fill="#4CAF50"/>
<path transform="translate(975,140)" d="m0 0h3l1 11h3l1-11h4v15h-10l-2-2z" fill="#4CAF50"/>
<path transform="translate(796,479)" d="m0 0h3l1 4 5 1 1 1v7l-2 2h-8z" fill="#444746"/>
<path transform="translate(1024,430)" d="m0 0h6l3 3-4 1-5-1v2l7 1 2 2v5l-3 2h-7l-2-3 8-2-8-3v-5z" fill="#4CAF50"/>
<path transform="translate(601,479)" d="m0 0h11v3h-9v3h8v3h-8v3h9v3h-11z" fill="#444746"/>
<path transform="translate(983,430)" d="m0 0h3l1 12 4-2 1-10h3v15h-10l-2-2z" fill="#4CAF50"/>
<path transform="translate(886,738)" d="m0 0 7 1v2l-6-1-1 6 1 2 4-1 3-1 1-4 1-1h5l1 1v7l-6 1-2-2-3 2h-5l-3-5 2-6z" fill="#C1DFC4"/>
<path transform="translate(777,483)" d="m0 0h14l2 2v9h-3v-9h-3l-1 9h-2l-1-8h-2l-1 8h-3z" fill="#444746"/>
<path transform="translate(1091,77)" d="m0 0h5v20h-5z" fill="#4CAF50"/>
<path transform="translate(1029,77)" d="m0 0h5v20h-5z" fill="#4CAF50"/>
<path transform="translate(889,77)" d="m0 0h5v20h-5z" fill="#4CAF50"/>
<path transform="translate(767,483)" d="m0 0h5l3 4-1 5-2 2h-5l-3-3v-5z" fill="#444746"/>
<path transform="translate(733,483)" d="m0 0h5l3 3v5l-3 3h-5l-3-4 1-5z" fill="#444746"/>
<path transform="translate(1108,81)" d="m0 0 5 1 2 6-3 5-6-1-1-2v-6z" fill="#F6F6F9"/>
<path transform="translate(910,691)" d="m0 0h3l4 10 1-7h6l1 2v7h-2l-1-7-2-1-1 8-5-1v-3h-5l-1 4h-2l3-10z" fill="#E7EFEA"/>
<path transform="translate(1e3 81)" d="m0 0 5 1 2 3-1 7-5 1-3-3v-6z" fill="#F6F6F9"/>
<path transform="translate(982,81)" d="m0 0 5 1 2 3-1 7-5 1-3-3v-6z" fill="#F6F6F9"/>
<path transform="translate(873,81)" d="m0 0 5 1 1 1v8l-2 2-5-1-1-1v-8z" fill="#F6F6F9"/>
<path transform="translate(967,691)" d="m0 0h8l1 1v5l-1 2 2 4h-3l-2-5h-3v5h-2z" fill="#ADD7B1"/>
<path transform="translate(753,479)" d="m0 0 7 1v4l-7-1-1 5 1 2h5 3l-1 3-2 1h-6l-3-4v-7z" fill="#444846"/>
<path transform="translate(976,741)" d="m0 0 7 1 1-1h5v2l-4-1 1 2 4 2-1 4h-5l-1-2 5 1-1-2-4-2-1 1h-6l1 2 5-1-2 3-5-1-1-1v-5z" fill="#E1EDE4"/>
<path transform="translate(951,738)" d="m0 0h8l1 1v5 3l1 3-4-2-1-2-3-1v5h-2z" fill="#C2E0C5"/>
<path transform="translate(947,339)" d="m0 0h8l1 1v5 3l1 3-4-2-1-2-3-1v5h-2z" fill="#C2E0C5"/>
<path transform="translate(624,599)" d="m0 0h6l2 2v6l-2 2h-4v4h-2z" fill="#444D46"/>
<path transform="translate(999,425)" d="m0 0h4v20h-4z" fill="#4CAF50"/>
<path transform="translate(925,136)" d="m0 0h2v4h3v3h-3l1 8 2 1v3h-5l-1-1v-11h-2v-3h2z" fill="#4CAF50"/>
<path transform="translate(991,135)" d="m0 0h4v20h-4z" fill="#4CAF50"/>
<path transform="translate(829,483)" d="m0 0h5l3 4v2h-7v3l6-2-2 4h-5l-2-3 1-7z" fill="#555A57"/>
<path transform="translate(636,483)" d="m0 0h5l3 4v2h-7v3l6-2-2 4h-5l-2-3 1-7z" fill="#555A57"/>
<path transform="translate(615,597)" d="m0 0 5 2 1 5-2 3-4 1-3-2v-7z" fill="#F6F6F9"/>
<path transform="translate(900,691)" d="m0 0h2v12h-6l-2-2v-5l2-2h4z" fill="#BDDEC0"/>
<path transform="translate(696,483)" d="m0 0 6 1 1 5h-7l1 2 3 1v-2l3 1-3 3-5-1-2-3 1-5z" fill="#555857"/>
<path transform="translate(601,256)" d="m0 0h8l2 5-4 3h-4l-1 5h-1z" fill="#444E46"/>
<path transform="translate(601,187)" d="m0 0h8l2 5-4 3h-4l-1 5h-1z" fill="#444E46"/>
<path transform="translate(611,533)" d="m0 0h8l2 5-4 3-5-1v6h-1z" fill="#444946"/>
<path transform="translate(815,483)" d="m0 0h8l2 3v8h-3l-1-8h-2l-1 8h-3z" fill="#444746"/>
<path transform="translate(883,140)" d="m0 0h8v3l-3 1-1 11h-4z" fill="#4CAF50"/>
<path transform="translate(738,75)" d="m0 0h9l2 4-2 3h-9z" fill="#F6F6F9"/>
<path transform="translate(891,691)" d="m0 0h2v12h-6l-2-5 2-4h4z" fill="#BFDFC2"/>
<path transform="translate(917,738)" d="m0 0h2v3l5 1v7l-7 1z" fill="#BDDEC0"/>
<path transform="translate(903,741)" d="m0 0h11l1 1v8h-2v-8l-2 1-1 7h-2v-8h-2l-1 8h-2z" fill="#F6F6F9"/>
<path transform="translate(928,694)" d="m0 0 5 1 1 1v5l-2 2-6-1v-7z" fill="#B4DAB7"/>
<path transform="translate(707,483)" d="m0 0 7 1v2h-5l6 3-1 4-1 1h-6l-2-3 7 1v-2l-5-1-2-3z" fill="#444746"/>
<path transform="translate(879,691)" d="m0 0 3 1 3 8v3h-2l-1-3h-4l-1 3-3-1 4-10z" fill="#DCEBDF"/>
<path transform="translate(634,634)" d="m0 0 3 1 3 5 1-6h2v11l-3-1-3-5-1 6h-2z" fill="#444746"/>
<path transform="translate(922,342)" d="m0 0h5l1 1v8h-7l-1-4 5-3-5 1z" fill="#D5E8D8"/>
<path transform="translate(864,433)" d="m0 0 5 1 1 5-2 3-5-1-1-5z" fill="#F6F6F9"/>
<path transform="translate(651,599)" d="m0 0h5l2 2v8h-7l-1-4 5-2 1-2-6 1z" fill="#6B706D"/>
<path transform="translate(656,190)" d="m0 0h5l2 2v8h-7l-1-4 5-2 1-2-6 1z" fill="#6B706D"/>
<path transform="translate(676,483)" d="m0 0h2l1 8 3 1 1-9h2v11h-8l-1-1z" fill="#444746"/>
<path transform="translate(615,483)" d="m0 0h8l1 1v10h-2l-1-8-3-1-1 9h-2z" fill="#444746"/>
<path transform="translate(646,635)" d="m0 0h5l1 1v7l-1 1h-5z" fill="#F6F6F9"/>
<path transform="translate(959,76)" d="m0 0 2 2 2 9h-8l3-10z" fill="#F6F6F9"/>
<path transform="translate(939,741)" d="m0 0 6 1v4h-6l1 2 3 1v-2h2l-1 3h-5l-2-2 1-6z" fill="#D6E8D9"/>
<path transform="translate(905,433)" d="m0 0 5 1v7l-4 1-2-1v-7z" fill="#F6F6F9"/>
<path transform="translate(935,342)" d="m0 0 6 1v4h-6l1 2 3 1v-2h2l-1 3h-5l-2-2 1-6z" fill="#D6E8D9"/>
<path transform="translate(913,342)" d="m0 0 6 1v4h-6l1 2 3 1v-2h2l-1 3h-5l-2-2 1-6z" fill="#D6E8D9"/>
<path transform="translate(992,694)" d="m0 0 5 1 1 4h-6l1 2 5-1-2 3-5-1-1-1v-5z" fill="#D2E7D5"/>
<path transform="translate(950,694)" d="m0 0 5 1 1 4h-6l1 2 5-1-2 3-5-1-1-1v-5z" fill="#D2E7D5"/>
<path transform="translate(627,634)" d="m0 0 3 1 3 10h-2v-3h-6v3l-2-1z" fill="#707272"/>
<path transform="translate(972,342)" d="m0 0 5 1 1 4h-6l1 2 5-1-2 3-5-1-1-1v-5z" fill="#D2E7D5"/>
<path transform="translate(636,599)" d="m0 0 5 1 1 4h-7l3 3 3 1-5 1-2-2v-6z" fill="#666C68"/>
<path transform="translate(639,536)" d="m0 0 5 1 1 4h-7l3 3 3 1-5 1-2-2v-6z" fill="#666C68"/>
<path transform="translate(725,481)" d="m0 0h2v2h2v2h-2v7h2v2l-5-1-1-10z" fill="#444746"/>
<path transform="translate(629,481)" d="m0 0h2v2h2v2h-2v7h2v2l-5-1-1-10z" fill="#444746"/>
<path transform="translate(629,259)" d="m0 0 5 1 1 4h-7l3 3 3 1-5 1-2-2v-6z" fill="#666C68"/>
<path transform="translate(682,190)" d="m0 0 5 1 1 4h-7l3 3 3 1-5 1-2-2v-6z" fill="#666C68"/>
<path transform="translate(629,190)" d="m0 0 5 1 1 4h-7l3 3 3 1-5 1-2-2v-6z" fill="#666C68"/>
<path transform="translate(917,430)" d="m0 0h3v15h-3z" fill="#4CAF50"/>
<path transform="translate(643,187)" d="m0 0 5 5 2 3 1-8h1v13l-5-5-2-3-1 8h-1z" fill="#444B46"/>
<path transform="translate(646,483)" d="m0 0h7v2l-3 1-1 8h-3z" fill="#444746"/>
<path transform="translate(962,741)" d="m0 0h2l1 7 2 1v-8h2v9h-6l-1-1z" fill="#F6F6F9"/>
<path transform="translate(929,741)" d="m0 0h6l1 1v8h-2v-8l-2 1-1 7h-2z" fill="#F6F6F9"/>
<path transform="translate(978,694)" d="m0 0h2v8l2-1 1-7h2v9h-6l-1-1z" fill="#F6F6F9"/>
<path transform="translate(958,342)" d="m0 0h2l1 7 2 1v-8h2v9h-6l-1-1z" fill="#F6F6F9"/>
<path transform="translate(668,600)" d="m0 0 4 2-1 5-3 1-2-2 1-5z" fill="#F6F6F9"/>
<path transform="translate(809,483)" d="m0 0h3v11h-3z" fill="#444746"/>
<path transform="translate(782,483)" d="m0 0h7l-2 4-1 7h-2l-1-8-2-2z" fill="#444A46"/>
<path transform="translate(612,534)" d="m0 0 7 1-1 4h-6z" fill="#F6F6F9"/>
<path transform="translate(657,533)" d="m0 0h1v13h-2v-9l-3 1 1-3z" fill="#444A46"/>
<path transform="translate(768,485)" d="m0 0 4 1v5l-4 1-1-1v-5z" fill="#F6F6F9"/>
<path transform="translate(734,485)" d="m0 0 4 1v5l-4 1-1-1v-5z" fill="#F6F6F9"/>
<path transform="translate(603,257)" d="m0 0 6 1-1 4h-6z" fill="#F6F6F9"/>
<path transform="translate(603,188)" d="m0 0 6 1-1 4h-6z" fill="#F6F6F9"/>
<path transform="translate(1068,87)" d="m0 0h2l-1 5-5 1-1-4z" fill="#F6F6F9"/>
<path transform="translate(627,600)" d="m0 0 4 2-1 5-3 1-1-1v-6z" fill="#F6F6F9"/>
<path transform="translate(967,429)" d="m0 0h7v4h-7z" fill="#F6F6F9"/>
<path transform="translate(959,139)" d="m0 0h7v4h-7z" fill="#F6F6F9"/>
<path transform="translate(973,691)" d="m0 0 3 1v5l-1 2 2 4h-3l-2-3z" fill="#F6F6F9"/>
<path transform="translate(800,485)" d="m0 0h3l1 5-1 2-4-1v-5z" fill="#F6F6F9"/>
<path transform="translate(1224,637)" d="m0 0 6 2 5-2v2l-5 4-4-2z" fill="#444746"/>
<path transform="translate(936,691)" d="m0 0 1 3 2 1h-2v7l2 1-4-1-1-8z" fill="#F6F6F9"/>
<path transform="translate(930,339)" d="m0 0 1 3 2 1h-2v7l2 1-4-1-1-8z" fill="#F6F6F9"/>
<path transform="translate(896,741)" d="m0 0h5l1 1v7l-4 1 1-7-4-1z" fill="#F6F6F9"/>
</svg>
