<?xml version="1.0" encoding="UTF-8"?>
<svg version="1.1" viewBox="0 0 2048 976" width="1280" height="1280" xmlns="http://www.w3.org/2000/svg">
<path transform="translate(0)" d="m0 0h2048v976h-2048z" fill="#FEFFFE"/>
<path transform="translate(1308,296)" d="m0 0h19l22 4 15 5 19 9 15 10 14 12 9 11 10 13 11 19 9 20 6 18 6 25 4 28 1 11v24l-3 31-4 24-6 23-9 24-11 21-12 17-12 13-12 10-18 11-15 7-19 6-20 3h-18l-20-3-21-7-15-8-10-7-2-1-1 53v67l-8 3-100 22h-2v-510l31-1h40l27 1 2 25 7-3 14-10 10-6 19-8 21-5z" fill="#574FFE"/>
<path transform="translate(1644,296)" d="m0 0h20l26 4 17 5 23 11 12 8 11 9 8 8 10 13 9 14 11 21 9 25 6 24 4 26 1 12v58l-3 2-211 1 3 15 6 16 8 11 9 8 16 8 13 4 21 3h23l22-2 25-5 20-6 23-9h3l1 64v20l-5 4-19 9-27 9-29 6-18 2-16 1h-20l-27-3-21-5-20-7-16-8-15-9-15-13-10-10-10-13-8-13-10-19-8-22-6-26-4-31v-40l2-18 6-28 9-27 6-14 10-18 12-17 12-13 8-8 15-11 16-9 18-8 21-6z" fill="#574FFE"/>
<path transform="translate(371,296)" d="m0 0h29l28 3 29 6 25 7 9 4 1 2 1 38v63l-9-3-19-8-18-6-25-6-20-3-10-1h-19l-13 4-8 6-4 7v12l4 8 9 7 19 8 42 15 26 11 17 9 12 9 10 9 10 13 9 17 6 17 3 21v17l-5 25-6 15-8 15-10 13-10 10-10 7-17 10-20 8-22 6-19 3-12 1h-32l-27-3-25-5-29-8-18-7-4-4-1-100 5 1 30 12 36 12 24 5 14 2h24l15-4 8-6 5-8 1-3v-9l-3-7-7-8-16-9-27-11-26-10-25-11-14-8-16-12-9-9-10-14-8-17-3-11-2-16v-15l3-21 7-21 9-17 8-10 8-9 16-12 14-8 11-5 18-6 23-5z" fill="#574FFE"/>
<path transform="translate(637,210)" d="m0 0h5l1 95 17-1h64l1 1v92h-83l1 147 1 18 3 14 5 10 8 6 12 5 5 1h20l20-4 7-1 1 3 1 40v41l-5 5-14 6-20 5-25 3h-18l-21-3-16-5-14-6-14-9-12-10-9-11-9-14-6-13-5-16-3-20v-102l1-254 15-4 68-15z" fill="#574FFE"/>
<path transform="translate(910,300)" d="m0 0h30l9 1 2 1 1 7 1 93-1 1-13-1-10-1h-9l-16 3-11 5-12 7-5 5h-2l-4 8v258h-109l-1-1v-381l4-1h92l1 3 2 26 5-3 14-14 14-9 10-5z" fill="#574FFE"/>
<path transform="translate(982,304)" d="m0 0h106l1 1v382h-109l-1-37v-345z" fill="#574FFE"/>
<path transform="translate(1284,393)" d="m0 0 14 1 14 4 12 7 8 7 9 12 9 19 6 21 3 20v28l-4 22-7 21-8 15-9 11-9 8-14 7-9 2h-17l-18-4-12-5-8-6-3-4-1-3-1-11v-149l7-8 11-7 8-4 12-3z" fill="#FEFFFE"/>
<path transform="translate(1085,159)" d="m0 0h4l1 87-24 6-82 18h-4l-1-58v-29l9-3 78-17z" fill="#574FFE"/>
<path transform="translate(1646,385)" d="m0 0 16 1 15 5 10 7 8 8 8 16 3 9 2 12v11l-3 2h-108l-2-1-1-6 3-15 5-15 7-11 7-8 11-8 10-5z" fill="#FEFFFE"/>
</svg>
