<?xml version="1.0" encoding="UTF-8"?>
<svg version="1.1" viewBox="0 0 900 900" width="1280" height="1280" xmlns="http://www.w3.org/2000/svg">
<path transform="translate(0)" d="m0 0h900v900h-900z" fill="#FDFEFE"/>
<path transform="translate(558,192)" d="m0 0h28l19 4 15 5 16 8 15 9 14 12 4 3 16-4 30-10 28-13 6-3 3 1-9 19-10 16-9 11-7 8-14 11-5 5 40-10 21-7 6-3 3 1-2 5-8 9-9 11-14 15-10 10-11 9-9 8-1 38-4 33-6 31-7 25-8 23-9 21-8 17-11 20-8 13-13 19-10 13-12 14-12 13-15 15-11 9-10 9-18 13-19 12-20 11-24 11-28 10-24 7-28 6-19 3-26 2h-46l-35-4-34-7-27-8-28-11-27-13-10-6-12-6-3-2 1-3 21 1h16l28-2 26-5 22-6 21-8 16-8 20-11 16-11 2-3h-12l-14-3-18-6-16-8-13-9-11-9-10-10-10-14-8-14-7-15 1-3h44l7-1-2-2-19-7-15-8-12-9-10-9-8-8-10-13-10-18-7-18-5-25-1-12 3-1 21 8 32 8-3-5-8-6-7-8-9-10-10-15-8-17-5-15-3-14-1-9v-19l3-19 5-17 8-18 3-2 10 11 7 8 19 19 8 7 17 14 20 14 19 12 26 14 28 12 31 10 25 6 37 6 14 2h6l-2-16v-25l5-25 6-16 9-17 9-12 9-10 9-9 16-11 16-8 19-7z" fill="#16B0EB"/>
<path transform="translate(545,641)" d="m0 0 2 1-9 7-16 10-8 4-15 8-7 3-15 7-18 7-22 7-25 6-5 1-10 1 3-3h5v-2l9-4 14-3 10-4 13-4 12-5 10-3 10-5 6-2 28-14 8-3 3-2 7-2 5-5z" fill="#0CA8EC"/>
<path transform="translate(241,641)" d="m0 0 4 1-4 3-12 3-7 3-11 1v-2l-2-1 25-6z" fill="#0CA8ED"/>
<path transform="translate(719,251)" d="m0 0v3l-8 9-5 2h-3v-4h2v-3l8-4z" fill="#0DA8EC"/>
<path transform="translate(723,217)" d="m0 0 3 1-5 4-5 2-3 2h-7l-3 1v-2z" fill="#0CA8ED"/>
<path transform="translate(264,699)" d="m0 0 16 3v3l-15-2-4-1v-2z" fill="#0CA8ED"/>
<path transform="translate(246,696)" d="m0 0h8l7 3v1l-7 1-6-2-2-1z" fill="#0CA8EC"/>
<path transform="translate(518,205)" d="m0 0 3 1h-2v2l-6 1v2l-4 2-3-1 8-5z" fill="#0CA8ED"/>
</svg>
