<?xml version="1.0" encoding="UTF-8"?>
<svg version="1.1" xmlns="http://www.w3.org/2000/svg" width="650" height="365">
<path d="M0 0 C214.5 0 429 0 650 0 C650 120.45 650 240.9 650 365 C435.5 365 221 365 0 365 C0 244.55 0 124.1 0 0 Z " fill="#FEFEFE" transform="translate(0,0)"/>
<path d="M0 0 C1.83721619 0.00040787 1.83721619 0.00040787 3.71154785 0.00082397 C17.48883751 0.01488152 31.25117947 0.0339881 45 1 C46.01803711 1.07001221 47.03607422 1.14002441 48.08496094 1.2121582 C56.91776001 1.97457623 67.47627228 3.0588892 74.25 9.1875 C90.0920764 28.20564485 84.48373668 66.71800744 82.7890625 89.87109375 C82.58620835 91.87435556 82.36702027 93.87609183 82.125 95.875 C82.03250977 96.72545898 81.94001953 97.57591797 81.84472656 98.45214844 C80.82530975 105.31132692 77.62813349 111.30937445 72.30859375 115.84155273 C44.80082879 135.36211434 -23.4613384 124.16389587 -55.75 122.1875 C-56.6584668 122.13368164 -57.56693359 122.07986328 -58.50292969 122.02441406 C-75.71523058 120.89980083 -75.71523058 120.89980083 -81.75 115.1875 C-82.58724609 114.49914062 -82.58724609 114.49914062 -83.44140625 113.796875 C-92.67619909 104.9848799 -91.48033405 87.81249 -91.81356812 75.91860962 C-91.90947788 71.19035259 -91.93578014 66.46303239 -91.93530273 61.73388672 C-91.93749219 59.32111006 -91.95575636 56.90879053 -91.97460938 54.49609375 C-92.10238334 19.2856558 -92.10238334 19.2856558 -83.88671875 10.10546875 C-65.90073412 -6.52563945 -22.7670302 -0.0191005 0 0 Z " fill="#FC0000" transform="translate(139.75,121.8125)"/>
<path d="M0 0 C5.28 0 10.56 0 16 0 C16.33 12.87 16.66 25.74 17 39 C18.98 36.525 18.98 36.525 21 34 C25.86642034 30.71799558 30.30328434 30.26362024 36 31 C41.21344431 32.77060373 43.4793652 35.13877574 46 40 C47.79566893 45.94171471 48.28911071 51.7009506 48.23046875 57.875 C48.23001053 58.68437012 48.22955231 59.49374023 48.2290802 60.32763672 C48.22608267 62.02508018 48.21827239 63.72252151 48.20581055 65.41992188 C48.18754549 67.99359067 48.18530148 70.56689804 48.18554688 73.140625 C48.18063018 74.80208639 48.17480121 76.46354538 48.16796875 78.125 C48.16685593 78.88151855 48.1657431 79.63803711 48.16459656 80.41748047 C48.07374879 90.82761617 47.29111357 99.74338588 40.5 108.0625 C36.01677703 111.36773326 30.25920556 110.66462488 25 110 C20.68684158 108.45958628 18.04328571 106.39443406 15 103 C14.67 104.98 14.34 106.96 14 109 C9.38 109 4.76 109 0 109 C0 73.03 0 37.06 0 0 Z " fill="#2C2C2C" transform="translate(497,127)"/>
<path d="M0 0 C1.2684375 0.00386719 2.536875 0.00773438 3.84375 0.01171875 C10.05757775 0.52289902 14.58771219 2.4918317 19.5 6.3125 C25.69646123 15.39204363 25.97002152 26.14541048 25.83618164 36.80322266 C25.81252203 38.81063053 25.81565713 40.81670565 25.82226562 42.82421875 C25.69358988 66.52395156 25.69358988 66.52395156 18.5 74.3125 C11.56698654 79.82583079 5.21973983 80.9911288 -3.5 80.3125 C-9.70885598 79.22967552 -13.41863004 77.08279166 -17.30859375 72.12890625 C-23.22737356 63.10519277 -22.87306282 52.01987493 -22.87060547 41.57983398 C-22.87497324 39.51266618 -22.91141308 37.44765143 -22.94921875 35.38085938 C-23.03296271 25.42266535 -22.39805289 13.85838192 -16.125 5.625 C-11.00669338 1.1160156 -6.77819318 -0.0895493 0 0 Z " fill="#2C2C2C" transform="translate(315.5,157.6875)"/>
<path d="M0 0 C6.15898277 4.38235313 8.17968556 8.79390986 9.72265625 16 C11.11458323 25.27037083 10.40591743 35.00942687 10.25 44.3125 C0.68 44.3125 -8.89 44.3125 -18.75 44.3125 C-18.62625 47.055625 -18.5025 49.79875 -18.375 52.625 C-18.34100098 53.48520752 -18.30700195 54.34541504 -18.27197266 55.23168945 C-18.2363623 55.91448975 -18.20075195 56.59729004 -18.1640625 57.30078125 C-18.11693115 58.34552612 -18.11693115 58.34552612 -18.06884766 59.41137695 C-17.82881747 61.63782739 -17.82881747 61.63782739 -15.75 64.3125 C-12.16642759 64.56265873 -12.16642759 64.56265873 -8.75 64.3125 C-6.43205464 60.44925773 -6.46102537 58.28967761 -5.75 53.3125 C-0.8 53.3125 4.15 53.3125 9.25 53.3125 C9.57137011 61.23962945 9.15958371 65.63273236 4.125 72 C-3.18093046 77.87650929 -11.67211236 78.11107226 -20.75 77.3125 C-24.65858916 76.72305388 -26.96472901 75.33152607 -29.4296875 72.1328125 C-33.97508628 64.97761538 -36.00040553 58.38900402 -36.015625 49.8671875 C-36.01753845 49.17545441 -36.0194519 48.48372131 -36.02142334 47.77102661 C-36.02277623 46.31381871 -36.01914281 44.85659838 -36.01074219 43.39941406 C-36.00012823 41.21390358 -36.01061652 39.02923366 -36.0234375 36.84375 C-36.04881097 11.44796533 -36.04881097 11.44796533 -28.375 2.5625 C-21.40146757 -3.41481351 -8.26587563 -3.85949202 0 0 Z " fill="#2F2F2F" transform="translate(588.75,159.6875)"/>
<path d="M0 0 C5.61 0 11.22 0 17 0 C17.01981934 1.82692383 17.03963867 3.65384766 17.06005859 5.53613281 C17.12785507 11.57520315 17.20463234 17.61410717 17.28752708 23.65298843 C17.3374532 27.31403063 17.38378339 30.97504449 17.421875 34.63623047 C17.45877463 38.17009786 17.50514695 41.70372604 17.55806351 45.23738861 C17.58558963 47.24031257 17.60332811 49.24336327 17.62094116 51.24639893 C17.64081085 52.46736267 17.66068054 53.68832642 17.68115234 54.94628906 C17.69447601 56.02106506 17.70779968 57.09584106 17.7215271 58.20318604 C17.99695932 60.96946125 18.57465628 62.64160315 20 65 C24.05461428 65.38205912 24.05461428 65.38205912 27.67219543 63.86528015 C29.5649542 61.20636072 29.39944262 59.2149574 29.43237305 55.96801758 C29.45216721 54.72695755 29.47196136 53.48589752 29.49235535 52.20722961 C29.49912509 50.85299837 29.50557196 49.49876547 29.51171875 48.14453125 C29.52856405 46.75874739 29.54671409 45.37297882 29.56611633 43.98722839 C29.61363938 40.34258808 29.64343344 36.69800977 29.66955566 33.05316162 C29.69934983 29.33284254 29.745884 25.61273716 29.79101562 21.89257812 C29.87707499 14.59513969 29.94286068 7.29773268 30 0 C35.61 0 41.22 0 47 0 C47 25.41 47 50.82 47 77 C42.38 77 37.76 77 33 77 C32.34 74.36 31.68 71.72 31 69 C30.64808594 69.47050781 30.29617188 69.94101563 29.93359375 70.42578125 C26.42031582 74.85636413 23.57334516 77.33777425 18 79 C12.96544872 79.52081565 10.0075036 79.14101633 6 76 C0.1978883 70.36366292 -0.10603411 62.96675393 -0.22705078 55.28686523 C-0.2267371 52.71075304 -0.21561548 50.13462596 -0.1953125 47.55859375 C-0.19157457 46.18140368 -0.18873129 44.80421091 -0.18673706 43.42701721 C-0.17916194 39.83165935 -0.15956741 36.23646739 -0.1373291 32.64117432 C-0.11673747 28.96067549 -0.10770709 25.28014941 -0.09765625 21.59960938 C-0.07631458 14.39965579 -0.04118376 7.19987244 0 0 Z " fill="#2B2B2B" transform="translate(439,159)"/>
<path d="M0 0 C5.61 0 11.22 0 17 0 C17.02505615 1.82168701 17.0501123 3.64337402 17.07592773 5.52026367 C17.15991246 11.54729469 17.24817484 17.57425042 17.33933926 23.60117626 C17.39444191 27.25435148 17.44784115 30.90753488 17.49731445 34.56079102 C17.54514538 38.08809941 17.59749398 41.61531476 17.65294075 45.14251137 C17.68316034 47.13933026 17.70873284 49.13621774 17.73423767 51.13310242 C17.75418289 52.35399063 17.77412811 53.57487885 17.79467773 54.83276367 C17.81022202 55.90531906 17.8257663 56.97787445 17.84178162 58.08293152 C17.9902523 60.82028181 18.38545813 63.3325838 19 66 C23.5988675 65.68691796 23.5988675 65.68691796 27.70344543 63.83403015 C29.56854041 61.19577603 29.39978634 59.18106721 29.43237305 55.96801758 C29.45216721 54.72695755 29.47196136 53.48589752 29.49235535 52.20722961 C29.49912509 50.85299837 29.50557196 49.49876547 29.51171875 48.14453125 C29.52856405 46.75874739 29.54671409 45.37297882 29.56611633 43.98722839 C29.61363938 40.34258808 29.64343344 36.69800977 29.66955566 33.05316162 C29.69934983 29.33284254 29.745884 25.61273716 29.79101562 21.89257812 C29.87707499 14.59513969 29.94286068 7.29773268 30 0 C35.61 0 41.22 0 47 0 C47 25.41 47 50.82 47 77 C42.38 77 37.76 77 33 77 C32.505 73.04 32.505 73.04 32 69 C31.2575 69.763125 30.515 70.52625 29.75 71.3125 C25.28938738 75.67173506 22.91816929 77.37899192 16.5625 77.8125 C15.45003906 77.90144531 14.33757812 77.99039063 13.19140625 78.08203125 C9.65944621 77.99124648 7.96312324 77.94168889 5 76 C-1.08751244 68.68152496 -0.65525381 60.46287774 -0.48828125 51.46484375 C-0.47893848 49.97556249 -0.4718293 48.48626571 -0.46684265 46.9969635 C-0.44788737 43.10532082 -0.39888943 39.21463337 -0.34332275 35.32336426 C-0.2918796 31.34135861 -0.26927554 27.35919635 -0.24414062 23.37695312 C-0.1907559 15.58415258 -0.1029182 7.79233263 0 0 Z " fill="#2A2A2A" transform="translate(350,159)"/>
<path d="M0 0 C5.61 0 11.22 0 17 0 C19.9157899 10.09311889 22.16983568 20.26795738 24.25 30.5625 C24.38641907 31.22783752 24.52283813 31.89317505 24.66339111 32.57867432 C25.05817584 34.51076014 25.44328657 36.44481473 25.828125 38.37890625 C26.0540332 39.5088501 26.27994141 40.63879395 26.51269531 41.80297852 C26.98856038 44.92494896 27.0892726 47.84778445 27 51 C27.66 51 28.32 51 29 51 C29.04390869 50.34950684 29.08781738 49.69901367 29.13305664 49.02880859 C29.69975677 41.75261101 30.90700446 34.75541361 32.4375 27.625 C32.76331055 26.04525391 32.76331055 26.04525391 33.09570312 24.43359375 C34.08604357 19.74062913 35.17971195 15.44368515 37 11 C37.42148875 9.07207923 37.79676438 7.1334683 38.125 5.1875 C38.41375 3.475625 38.7025 1.76375 39 0 C44.61 0 50.22 0 56 0 C54.74870961 7.58787427 53.01776803 14.74105402 50.6875 22.0625 C50.05834715 24.08806128 49.43075897 26.11410919 48.8046875 28.140625 C48.49756836 29.13255859 48.19044922 30.12449219 47.87402344 31.14648438 C45.96952282 37.36430649 44.20885733 43.61433306 42.56298828 49.90527344 C42.02416804 51.91007727 41.43539903 53.89427204 40.83984375 55.8828125 C36.41062562 71.76857905 37.18200634 88.63763034 37 105 C31.06 105 25.12 105 19 105 C19.00902344 102.55851562 19.01804687 100.11703125 19.02734375 97.6015625 C18.97126793 78.66297976 17.8897862 61.81891114 11.88134766 43.70410156 C10.58189932 39.71720688 9.51732955 35.67559451 8.4375 31.625 C6.39106639 24.19411875 4.16411093 16.818141 1.87866211 9.45751953 C1.6338208 8.65813965 1.38897949 7.85875977 1.13671875 7.03515625 C0.91717529 6.3275415 0.69763184 5.61992676 0.47143555 4.89086914 C0 3 0 3 0 0 Z " fill="#2E2E2E" transform="translate(241,131)"/>
<path d="M0 0 C16.83 0 33.66 0 51 0 C51 4.62 51 9.24 51 14 C45.39 14 39.78 14 34 14 C34 44.03 34 74.06 34 105 C28.39 105 22.78 105 17 105 C17 74.97 17 44.94 17 14 C11.39 14 5.78 14 0 14 C0 9.38 0 4.76 0 0 Z " fill="#2C2C2C" transform="translate(393,131)"/>
<path d="M0 0 C5.28 0 10.56 0 16 0 C16.02505615 1.32241699 16.0501123 2.64483398 16.07592773 4.00732422 C16.16991165 8.90130754 16.27015418 13.79514593 16.37231445 18.68896484 C16.41569752 20.80937313 16.45737007 22.92981712 16.49731445 25.05029297 C16.55493543 28.09353408 16.61865325 31.1365949 16.68359375 34.1796875 C16.70030624 35.13181122 16.71701874 36.08393494 16.73423767 37.06491089 C16.75418289 37.94567291 16.77412811 38.82643494 16.79467773 39.73388672 C16.81799416 40.89970779 16.81799416 40.89970779 16.84178162 42.08908081 C16.88783251 44.08556935 16.88783251 44.08556935 18 46 C17.67 46.99 17.34 47.98 17 49 C16.88919761 50.50250065 16.8313003 52.00923822 16.80712891 53.515625 C16.79106598 54.42666992 16.77500305 55.33771484 16.75845337 56.27636719 C16.71398778 60.4225177 16.67297911 64.56851092 16.64990234 68.71484375 C16.63329996 70.90505568 16.60595424 73.0952125 16.56787109 75.28515625 C16.51329048 78.44039038 16.49126172 81.59435837 16.4765625 84.75 C16.45389313 85.73129883 16.43122375 86.71259766 16.40786743 87.72363281 C16.41576496 90.24816344 16.45932891 92.53399967 17 95 C19.2421295 97.19172042 19.2421295 97.19172042 22 98 C23.1446875 98.5878125 23.1446875 98.5878125 24.3125 99.1875 C24.869375 99.455625 25.42625 99.72375 26 100 C23.08291076 101.98362069 21.87619096 101.9876191 18.25 101.625 C17.1775 101.41875 16.105 101.2125 15 101 C14.67 103.64 14.34 106.28 14 109 C9.38 109 4.76 109 0 109 C0 73.03 0 37.06 0 0 Z " fill="#282828" transform="translate(497,127)"/>
<path d="M0 0 C4.35010863 1.45003621 7.99108518 2.90009224 12 5 C12 5.66 12 6.32 12 7 C13.299375 7.4021875 13.299375 7.4021875 14.625 7.8125 C17.91791964 8.97111987 20.91127875 10.38209839 24 12 C24 12.66 24 13.32 24 14 C24.82757813 14.23460937 25.65515625 14.46921875 26.5078125 14.7109375 C30.64334686 16.23747703 34.14159766 18.30971173 37.875 20.625 C38.56335938 21.04523438 39.25171875 21.46546875 39.9609375 21.8984375 C41.64391658 22.92692472 43.32242532 23.962721 45 25 C41.98122145 28.21205401 38.90939194 29.97549346 35 32 C34.01 32 33.02 32 32 32 C32 32.66 32 33.32 32 34 C31.32195312 34.36351562 30.64390625 34.72703125 29.9453125 35.1015625 C24.35520946 38.12114725 18.86421415 41.25273616 13.4296875 44.54296875 C10.96966519 46.01819113 8.4951512 47.46001809 6 48.875 C5.278125 49.28492188 4.55625 49.69484375 3.8125 50.1171875 C2 51 2 51 0 51 C0 34.17 0 17.34 0 0 Z " fill="#FCFBFA" transform="translate(118,158)"/>
<path d="M0 0 C2.67476265 1.58504453 3.06276426 3.18506225 4.0625 6.1328125 C5.51747114 12.23337233 5.33491437 18.49071387 5.31567383 24.72607422 C5.31251702 26.86347665 5.33601945 28.99948693 5.36132812 31.13671875 C5.43364533 46.3542925 5.43364533 46.3542925 2 53 C-1 55 -1 55 -4.5625 54.75 C-8 54 -8 54 -10 52 C-10.24723816 50.03334045 -10.24723816 50.03334045 -10.24291992 47.59790039 C-10.24599655 46.68677994 -10.24907318 45.77565948 -10.25224304 44.83692932 C-10.24505753 43.85046921 -10.23787201 42.86400909 -10.23046875 41.84765625 C-10.23001053 40.8365831 -10.22955231 39.82550995 -10.2290802 38.78379822 C-10.22605542 36.6427188 -10.21816243 34.50164163 -10.20581055 32.3605957 C-10.18759444 29.07951066 -10.18530056 25.79870837 -10.18554688 22.51757812 C-10.18063019 20.44010172 -10.17480121 18.36262724 -10.16796875 16.28515625 C-10.16685593 15.30072037 -10.1657431 14.31628448 -10.16459656 13.30201721 C-10.15821671 12.3877446 -10.15183685 11.47347198 -10.14526367 10.53149414 C-10.14145187 9.72700333 -10.13764008 8.92251251 -10.13371277 8.09364319 C-10 6 -10 6 -9 3 C-8.34 3 -7.68 3 -7 3 C-7 2.34 -7 1.68 -7 1 C-4.45132831 -0.27433584 -2.82594567 -0.27570202 0 0 Z " fill="#F2F2F2" transform="translate(523,170)"/>
<path d="M0 0 C2.64824722 0.35787125 4.55535876 0.68239911 6.75 2.25 C9.85992111 6.60388955 9.16067398 12.4191008 9.16796875 17.5546875 C9.17129715 18.37446075 9.17462555 19.19423401 9.17805481 20.03884888 C9.18310393 21.76856935 9.18546376 23.49829951 9.18530273 25.22802734 C9.1874869 27.8592146 9.20565748 30.48998069 9.22460938 33.12109375 C9.22754428 34.80729024 9.22952843 36.49348871 9.23046875 38.1796875 C9.23765427 38.95907684 9.24483978 39.73846619 9.25224304 40.54147339 C9.22930185 46.09008894 9.12254907 51.87745093 5 56 C2.0625 56.375 2.0625 56.375 -1 56 C-3.71355291 53.18187418 -4.37831702 51.17371459 -4.40405273 47.31079102 C-4.41673691 46.38625626 -4.42942108 45.4617215 -4.44248962 44.50917053 C-4.43955399 43.51743332 -4.43661835 42.52569611 -4.43359375 41.50390625 C-4.4388356 40.4782103 -4.44407745 39.45251434 -4.44947815 38.39573669 C-4.45589756 36.22794499 -4.45456242 34.06011846 -4.44604492 31.89233398 C-4.43753973 28.57798109 -4.46629099 25.2653543 -4.49804688 21.95117188 C-4.49965912 19.84375052 -4.49908092 17.73632611 -4.49609375 15.62890625 C-4.50732773 14.63919327 -4.51856171 13.64948029 -4.53013611 12.629776 C-4.4846329 8.12994145 -4.44860794 5.69893106 -1.96899414 1.83569336 C-1.31922607 1.22991455 -0.66945801 0.62413574 0 0 Z " fill="#F2F2F2" transform="translate(315,169)"/>
<path d="M0 0 C3.66735892 0.00540763 7.33459764 -0.00001118 11.00195312 -0.00634766 C23.08733073 -0.00940261 35.09495546 0.11092114 47.14257812 1.13037109 C47.14257812 1.46037109 47.14257812 1.79037109 47.14257812 2.13037109 C46.19806793 2.13845795 45.25355774 2.1465448 44.28042603 2.15487671 C35.25270817 2.23333942 26.22512283 2.32130226 17.19758034 2.41789818 C12.55964595 2.4672374 7.92172783 2.51355603 3.28369141 2.55224609 C-36.80731591 1.42577768 -36.80731591 1.42577768 -75.85742188 8.13037109 C-77.07612116 10.63484625 -77.07612116 10.63484625 -77.85742188 13.13037109 C-78.51742187 13.13037109 -79.17742187 13.13037109 -79.85742188 13.13037109 C-79.85742188 13.79037109 -79.85742188 14.45037109 -79.85742188 15.13037109 C-80.51742187 15.13037109 -81.17742187 15.13037109 -81.85742188 15.13037109 C-81.91800781 15.81744141 -81.97859375 16.50451172 -82.04101562 17.21240234 C-82.12480469 18.11345703 -82.20859375 19.01451172 -82.29492188 19.94287109 C-82.37613281 20.83619141 -82.45734375 21.72951172 -82.54101562 22.64990234 C-82.85742188 25.13037109 -82.85742188 25.13037109 -83.85742188 28.13037109 C-84.51742187 28.13037109 -85.17742187 28.13037109 -85.85742188 28.13037109 C-85.83421875 28.82904297 -85.81101563 29.52771484 -85.78710938 30.24755859 C-85.7690625 31.15763672 -85.75101563 32.06771484 -85.73242188 33.00537109 C-85.70921875 33.91029297 -85.68601563 34.81521484 -85.66210938 35.74755859 C-85.85742188 38.13037109 -85.85742188 38.13037109 -87.85742188 40.13037109 C-87.35670249 17.14735136 -87.35670249 17.14735136 -80.99023438 10.04833984 C-63.48602314 -6.16782566 -22.14644571 -0.03880105 0 0 Z " fill="#E52727" transform="translate(136.857421875,121.86962890625)"/>
<path d="M0 0 C0.89759977 -0.00407553 1.79519955 -0.00815105 2.71999931 -0.01235008 C7.48138049 -0.03305726 12.24273426 -0.04741824 17.00415039 -0.05688477 C20.86792046 -0.06568533 24.73132396 -0.08644056 28.5949707 -0.1184082 C79.22421231 -0.52800023 79.22421231 -0.52800023 96.77734375 4.23828125 C97.10734375 4.89828125 97.43734375 5.55828125 97.77734375 6.23828125 C99.09734375 6.23828125 100.41734375 6.23828125 101.77734375 6.23828125 C103.96680831 8.11496516 105.4861872 9.65596814 106.77734375 12.23828125 C107.76734375 12.73328125 107.76734375 12.73328125 108.77734375 13.23828125 C109.52734375 15.67578125 109.52734375 15.67578125 109.77734375 18.23828125 C109.11734375 18.89828125 108.45734375 19.55828125 107.77734375 20.23828125 C107.43703125 19.635 107.09671875 19.03171875 106.74609375 18.41015625 C102.75187378 11.82394248 99.20279871 8.74017186 91.78857422 6.68774414 C71.29416566 1.99321213 49.41181232 3.0497501 28.52734375 3.05078125 C27.33922089 3.04987488 26.15109802 3.04896851 24.92697144 3.04803467 C12.45730613 3.04910832 0.00342637 3.18628032 -12.45703125 3.6875 C-13.42771545 3.72599564 -14.39839966 3.76449127 -15.39849854 3.80415344 C-20.72524434 4.0433397 -25.93855046 4.53149003 -31.22265625 5.23828125 C-33.22182672 5.29953035 -35.22270399 5.32578065 -37.22265625 5.30078125 C-38.17140625 5.29175781 -39.12015625 5.28273438 -40.09765625 5.2734375 C-40.79890625 5.26183594 -41.50015625 5.25023438 -42.22265625 5.23828125 C-42.22265625 4.57828125 -42.22265625 3.91828125 -42.22265625 3.23828125 C-41.08828125 3.09390625 -39.95390625 2.94953125 -38.78515625 2.80078125 C-35.41488424 2.62656647 -35.41488424 2.62656647 -34.22265625 1.23828125 C-22.88281282 -0.0539351 -11.39694607 0.04464581 0 0 Z " fill="#FCCDC9" transform="translate(111.22265625,119.76171875)"/>
<path d="M0 0 C0.94137255 2.82411765 1.11725382 4.52918032 1.09765625 7.44921875 C1.09443359 8.29677734 1.09121094 9.14433594 1.08789062 10.01757812 C1.07951172 10.89865234 1.07113281 11.77972656 1.0625 12.6875 C1.05798828 13.58017578 1.05347656 14.47285156 1.04882812 15.39257812 C1.03705004 17.59508073 1.01911481 19.79754885 1 22 C-2.96 22 -6.92 22 -11 22 C-11.02688338 18.70827931 -11.0467821 15.41677646 -11.0625 12.125 C-11.07506836 10.71927734 -11.07506836 10.71927734 -11.08789062 9.28515625 C-11.09111328 8.38925781 -11.09433594 7.49335938 -11.09765625 6.5703125 C-11.10289307 5.74289551 -11.10812988 4.91547852 -11.11352539 4.06298828 C-11 2 -11 2 -10 0 C-6.30581799 -1.231394 -3.7943739 -0.64432764 0 0 Z " fill="#F6F6F6" transform="translate(581,171)"/>
<path d="M0 0 C0 0.66 0 1.32 0 2 C-5.76975988 4.47275423 -9.75410789 5.21172516 -16 5 C-16.99 5.33 -17.98 5.66 -19 6 C-21.99428841 6.12584908 -24.96721207 6.19590886 -27.96264648 6.22119141 C-29.3389045 6.23845024 -29.3389045 6.23845024 -30.7429657 6.25605774 C-33.78564082 6.29282411 -36.82833653 6.32243994 -39.87109375 6.3515625 C-41.99040508 6.37468825 -44.10971355 6.39807868 -46.22901917 6.42172241 C-50.68024064 6.4702257 -55.13148081 6.51513379 -59.58276367 6.55761719 C-65.26171125 6.61215338 -70.94050707 6.67605617 -76.61932278 6.74279213 C-81.00244846 6.79314821 -85.38561718 6.83815519 -89.76881599 6.88163376 C-91.86060451 6.90306783 -93.95237646 6.92619307 -96.04412651 6.9510994 C-124.37512527 7.28120729 -124.37512527 7.28120729 -134 4 C-134 3.67 -134 3.34 -134 3 C-133.10023438 3.03029297 -132.20046875 3.06058594 -131.2734375 3.09179688 C-87.26421679 4.52496288 -43.50509128 0 0 0 Z " fill="#FDCBC9" transform="translate(208,240)"/>
<path d="M0 0 C-29.0915828 17.12534061 -99.32186408 6.65532264 -132 3 C-132 2.67 -132 2.34 -132 2 C-130.16647728 2.00666183 -130.16647728 2.00666183 -128.2959137 2.01345825 C-116.66324239 2.05435539 -105.03058604 2.08415041 -93.39785862 2.10362434 C-87.42023742 2.11397324 -81.44267518 2.1279656 -75.46508789 2.15087891 C-69.6748848 2.17292996 -63.88473768 2.18463507 -58.09449577 2.18975449 C-55.90740009 2.19339334 -53.72030677 2.2004947 -51.53323555 2.21146011 C-36.75176362 2.28248731 -22.18640663 1.58712306 -7.46972561 0.18049431 C-4.9704413 -0.00216023 -2.50499467 -0.0308976 0 0 Z " fill="#E1272A" transform="translate(206,240)"/>
<path d="M0 0 C0.99 0.33 1.98 0.66 3 1 C2.34 1 1.68 1 1 1 C1 17.83 1 34.66 1 52 C4.63 50.02 8.26 48.04 12 46 C13.65 45.34 15.3 44.68 17 44 C16.3125 46.4375 16.3125 46.4375 15 49 C13.34178227 49.37309899 11.67422986 49.70700977 10 50 C8.81669817 51.86644906 8.81669817 51.86644906 8 54 C6.6875 55.8125 6.6875 55.8125 5 57 C0.57894737 56.57894737 0.57894737 56.57894737 -1 55 C-1.0987517 53.31744765 -1.12798904 51.63075972 -1.12939453 49.9453125 C-1.13254669 48.86749512 -1.13569885 47.78967773 -1.13894653 46.67919922 C-1.1369223 45.50631348 -1.13489807 44.33342773 -1.1328125 43.125 C-1.13376923 41.9302002 -1.13472595 40.73540039 -1.13571167 39.50439453 C-1.13639371 36.9723302 -1.13453778 34.44026412 -1.13037109 31.90820312 C-1.12502321 28.0168874 -1.13031533 24.12568711 -1.13671875 20.234375 C-1.13605797 17.78124974 -1.13477682 15.32812456 -1.1328125 12.875 C-1.13483673 11.70211426 -1.13686096 10.52922852 -1.13894653 9.32080078 C-1.13579437 8.2429834 -1.13264221 7.16516602 -1.12939453 6.0546875 C-1.12859894 5.10062012 -1.12780334 4.14655273 -1.12698364 3.16357422 C-1 1 -1 1 0 0 Z " fill="#EB2424" transform="translate(117,157)"/>
<path d="M0 0 C4.44067619 0.5163577 7.24568155 1.6288515 11 4 C13.19130534 4.69579454 13.19130534 4.69579454 15 5 C15.33 4.34 15.66 3.68 16 3 C17.32 3 18.64 3 20 3 C19.9131252 4.95917659 19.80495488 6.91741871 19.6875 8.875 C19.62949219 9.96554688 19.57148438 11.05609375 19.51171875 12.1796875 C19.34285156 13.11039063 19.17398438 14.04109375 19 15 C15.61362505 17.2575833 13.85400309 17.29774987 9.9375 17.4609375 C7.81465764 17.83838953 7.81465764 17.83838953 6.56640625 19.92578125 C4.5830508 22.55211976 3.07462732 22.94851943 -0.0625 23.8125 C-0.94035156 24.06644531 -1.81820312 24.32039063 -2.72265625 24.58203125 C-5 25 -5 25 -7 24 C-5.54462432 23.16151196 -4.08559627 22.32936066 -2.625 21.5 C-1.40683594 20.80390625 -1.40683594 20.80390625 -0.1640625 20.09375 C2 19 2 19 4 19 C4 18.34 4 17.68 4 17 C7.96 15.02 11.92 13.04 16 11 C8.32290439 5.44503228 8.32290439 5.44503228 0 1 C0 0.67 0 0.34 0 0 Z " fill="#ED0706" transform="translate(146,173)"/>
<path d="M0 0 C2.53319061 0.05333204 5.06639378 0.10607128 7.59960938 0.15820312 C13.75406768 0.28613344 19.90833061 0.42138535 26.0625 0.5625 C26.0625 0.8925 26.0625 1.2225 26.0625 1.5625 C25.35363647 1.58533554 24.64477295 1.60817108 23.91442871 1.63169861 C17.20623322 1.84845478 10.49816482 2.06876755 3.79021454 2.29299068 C0.34229923 2.40811905 -3.10564895 2.52191287 -6.55371094 2.63256836 C-10.52552924 2.76009262 -14.49713673 2.89358061 -18.46875 3.02734375 C-19.69613892 3.06593002 -20.92352783 3.1045163 -22.18811035 3.14427185 C-28.17104061 3.35029784 -34.01039723 3.7280853 -39.9375 4.5625 C-41.93667047 4.6237491 -43.93754774 4.6499994 -45.9375 4.625 C-46.88625 4.61597656 -47.835 4.60695313 -48.8125 4.59765625 C-49.51375 4.58605469 -50.215 4.57445313 -50.9375 4.5625 C-50.9375 3.9025 -50.9375 3.2425 -50.9375 2.5625 C-49.803125 2.418125 -48.66875 2.27375 -47.5 2.125 C-44.12972799 1.95078522 -44.12972799 1.95078522 -42.9375 0.5625 C-28.79258027 -1.39562834 -14.21731056 -0.3262258 0 0 Z " fill="#FEC9C7" transform="translate(119.9375,120.4375)"/>
<path d="M0 0 C0.33 0 0.66 0 1 0 C2.97378313 5.7714046 3.2930051 10.91836825 3.265625 16.9921875 C3.26753845 17.93756378 3.2694519 18.88294006 3.27142334 19.85696411 C3.27277897 21.84881864 3.26912616 23.84068219 3.26074219 25.83251953 C3.25005789 28.85860358 3.26064646 31.88409078 3.2734375 34.91015625 C3.27211533 36.85416796 3.26955175 38.7981793 3.265625 40.7421875 C3.26967346 41.63622284 3.27372192 42.53025818 3.27789307 43.4513855 C3.23529947 49.24581509 2.43179702 54.38158299 1 60 C0.67 60 0.34 60 0 60 C0 40.2 0 20.4 0 0 Z " fill="#FED6D5" transform="translate(222,152)"/>
<path d="M0 0 C0.33 0 0.66 0 1 0 C1.02505615 1.08007324 1.0501123 2.16014648 1.07592773 3.27294922 C1.16995572 7.27242312 1.27018754 11.27172147 1.37231445 15.27099609 C1.4156808 17.00337626 1.45735463 18.73579963 1.49731445 20.46826172 C1.55497594 22.95553627 1.61868198 25.44259293 1.68359375 27.9296875 C1.70030624 28.70682098 1.71701874 29.48395447 1.73423767 30.28463745 C1.76473429 34.27274216 1.76473429 34.27274216 3 38 C3.22372696 40.17550114 3.39282981 42.35672381 3.53515625 44.5390625 C3.62216797 45.84101563 3.70917969 47.14296875 3.79882812 48.484375 C3.88681112 49.86457745 3.97470053 51.24478587 4.0625 52.625 C4.15390401 54.01304676 4.24569609 55.40106802 4.33789062 56.7890625 C4.56242139 60.19247618 4.78295176 63.59610227 5 67 C5.66 67 6.32 67 7 67 C6.67 67.99 6.34 68.98 6 70 C-2.4132607 61.5867393 -0.07540966 39.44393007 -0.09765625 28.125 C-0.09497441 24.74993293 -0.07957484 21.37502013 -0.0625 18 C-0.05746748 16.2421888 -0.05290771 14.48437617 -0.04882812 12.7265625 C-0.03797851 8.48433894 -0.02081386 4.24218589 0 0 Z " fill="#E32627" transform="translate(48,162)"/>
<path d="M0 0 C5.91970827 5.91970827 5.0298568 19.4139021 5.11352539 27.2878418 C5.11337058 29.09164186 5.10793566 30.89544797 5.09765625 32.69921875 C5.0962413 33.6602803 5.09482635 34.62134186 5.09336853 35.61152649 C5.08783675 38.63688466 5.07529773 41.66216475 5.0625 44.6875 C5.05747616 46.75716038 5.05291481 48.82682193 5.04882812 50.89648438 C5.03788981 55.931019 5.02067362 60.96549633 5 66 C4.67 66 4.34 66 4 66 C3.98541748 64.97455078 3.97083496 63.94910156 3.95581055 62.89257812 C3.66401833 43.79649252 3.29558155 24.95116186 0.25952148 6.05419922 C0 4 0 4 0 0 Z " fill="#E13E40" transform="translate(218,138)"/>
<path d="M0 0 C4.35010863 1.45003621 7.99108518 2.90009224 12 5 C12 5.33 12 5.66 12 6 C6.25 6.125 6.25 6.125 4 5 C4 4.34 4 3.68 4 3 C3.01 3 2.02 3 1 3 C1 18.18 1 33.36 1 49 C1.99 49.33 2.98 49.66 4 50 C2.02 50.495 2.02 50.495 0 51 C0 34.17 0 17.34 0 0 Z " fill="#FFD3CC" transform="translate(118,158)"/>
<path d="M0 0 C0 0.66 0 1.32 0 2 C-5.76975988 4.47275423 -9.75410789 5.21172516 -16 5 C-16.99 5.33 -17.98 5.66 -19 6 C-21.06498892 6.08315752 -23.1325789 6.10735878 -25.19921875 6.09765625 C-26.40771484 6.09443359 -27.61621094 6.09121094 -28.86132812 6.08789062 C-30.7552832 6.07532227 -30.7552832 6.07532227 -32.6875 6.0625 C-34.59885742 6.05573242 -34.59885742 6.05573242 -36.54882812 6.04882812 C-39.69926564 6.03702873 -42.84960949 6.02056597 -46 6 C-46 5.67 -46 5.34 -46 5 C-44.53361084 4.87939209 -44.53361084 4.87939209 -43.03759766 4.75634766 C-39.36554544 4.45277187 -35.69417436 4.14153146 -32.02294922 3.828125 C-30.44239233 3.6942395 -28.8616644 3.56235592 -27.28076172 3.43261719 C-15.44408369 2.47106611 -15.44408369 2.47106611 -3.76318359 0.38037109 C-2 0 -2 0 0 0 Z " fill="#FEEDE3" transform="translate(208,240)"/>
<path d="M0 0 C0.33 0 0.66 0 1 0 C1.66 2.64 2.32 5.28 3 8 C6.04386724 8.08226668 8.07175348 7.97608217 11 7 C12.20882096 4.99983534 12.20882096 4.99983534 13 3 C15.97 3.495 15.97 3.495 19 4 C16.10964393 6.22283735 13.15601165 8.25703433 10.0625 10.1875 C9.22847656 10.71730469 8.39445312 11.24710938 7.53515625 11.79296875 C5 13 5 13 0 13 C0 8.71 0 4.42 0 0 Z " fill="#FDF0ED" transform="translate(119,194)"/>
<path d="M0 0 C0 0.33 0 0.66 0 1 C-16.36860992 1.12198574 -32.65572484 0.92545946 -49 0 C-49 -0.33 -49 -0.66 -49 -1 C-32.49849332 -1.83123568 -16.40295882 -2.49969524 0 0 Z " fill="#FEE1DA" transform="translate(195,122)"/>
<path d="M0 0 C2 3 2 3 1.85986328 4.90112305 C1.59278564 5.94586792 1.59278564 5.94586792 1.3203125 7.01171875 C1.13339844 7.76904297 0.94648437 8.52636719 0.75390625 9.30664062 C0.54636719 10.09232422 0.33882812 10.87800781 0.125 11.6875 C-0.07480469 12.48478516 -0.27460937 13.28207031 -0.48046875 14.10351562 C-0.97551863 16.07192823 -1.48627422 18.03637875 -2 20 C-2.33 20 -2.66 20 -3 20 C-3.08139142 17.60347472 -3.14067009 15.20974564 -3.1875 12.8125 C-3.22520508 11.80219727 -3.22520508 11.80219727 -3.26367188 10.77148438 C-3.32923478 6.29135252 -2.66743649 3.60559001 0 0 Z " fill="#ED0607" transform="translate(52,157)"/>
<path d="M0 0 C7.78961124 -0.46530864 14.52678392 0.84278299 22 3 C22 3.33 22 3.66 22 4 C16.72 4 11.44 4 6 4 C6 3.34 6 2.68 6 2 C4.35 2 2.7 2 1 2 C0.67 1.34 0.34 0.68 0 0 Z " fill="#E61A1F" transform="translate(186,124)"/>
<path d="M0 0 C3.93846154 3.32307692 3.93846154 3.32307692 4.25 6.75 C4.1675 7.4925 4.085 8.235 4 9 C3.34 8.34 2.68 7.68 2 7 C1.34 7.66 0.68 8.32 0 9 C-1.32 8.34 -2.64 7.68 -4 7 C-4 6.67 -4 6.34 -4 6 C-6.97 5.505 -6.97 5.505 -10 5 C-9.67 4.34 -9.34 3.68 -9 3 C-7.6078125 3.0928125 -7.6078125 3.0928125 -6.1875 3.1875 C-3.01604897 3.30894264 -3.01604897 3.30894264 -1.125 1.5 C-0.75375 1.005 -0.3825 0.51 0 0 Z " fill="#3C3C3C" transform="translate(468,221)"/>
<path d="M0 0 C0.66 0 1.32 0 2 0 C2 1.32 2 2.64 2 4 C1.01 4.495 1.01 4.495 0 5 C0 6.32 0 7.64 0 9 C-1.75 10.484375 -1.75 10.484375 -4 11.75 C-5.11375 12.39195312 -5.11375 12.39195312 -6.25 13.046875 C-6.8275 13.36140625 -7.405 13.6759375 -8 14 C-8.99 13.34 -9.98 12.68 -11 12 C-10.113125 11.505 -9.22625 11.01 -8.3125 10.5 C-4.77474482 8.19167747 -3.07859181 5.26356105 -1.078125 1.609375 C-0.72234375 1.07828125 -0.3665625 0.5471875 0 0 Z " fill="#FAD6D1" transform="translate(219,227)"/>
<path d="M0 0 C0.33 0 0.66 0 1 0 C1.17015625 0.95261719 1.3403125 1.90523437 1.515625 2.88671875 C1.75796875 4.14097656 2.0003125 5.39523438 2.25 6.6875 C2.48203125 7.92886719 2.7140625 9.17023438 2.953125 10.44921875 C4.04612272 14.15643863 5.39799082 16.18832479 8 19 C7.34 19.33 6.68 19.66 6 20 C6 19.34 6 18.68 6 18 C4.68 17.67 3.36 17.34 2 17 C0.4943096 11.19233704 -0.21824777 6.0018137 0 0 Z " fill="#FCC9C3" transform="translate(49,216)"/>
<path d="M0 0 C0.66 0.33 1.32 0.66 2 1 C-1.00274433 6.05007001 -4.37763106 7.10051914 -9.7578125 8.6171875 C-12 9 -12 9 -14 8 C-12.54462432 7.16151196 -11.08559627 6.32936066 -9.625 5.5 C-8.40683594 4.80390625 -8.40683594 4.80390625 -7.1640625 4.09375 C-5 3 -5 3 -3 3 C-3 2.34 -3 1.68 -3 1 C-2.01 0.67 -1.02 0.34 0 0 Z " fill="#E4393A" transform="translate(153,189)"/>
<path d="M0 0 C-3.73045584 2.48697056 -7.27014766 3.12634625 -11.6015625 4.12109375 C-12.39304687 4.41113281 -13.18453125 4.70117188 -14 5 C-14.33 5.99 -14.66 6.98 -15 8 C-16.32 7.67 -17.64 7.34 -19 7 C-12.63593398 1.37594166 -8.51977545 -0.28880595 0 0 Z " fill="#DE2D30" transform="translate(75,125)"/>
<path d="M0 0 C0 0.66 0 1.32 0 2 C-7.43579708 5.71789854 -13.87989719 4.94658502 -22 4 C-22 3.67 -22 3.34 -22 3 C-20.33710938 2.80083984 -20.33710938 2.80083984 -18.640625 2.59765625 C-17.1770673 2.41940243 -15.71352651 2.24100972 -14.25 2.0625 C-13.15558594 1.93198242 -13.15558594 1.93198242 -12.0390625 1.79882812 C-7.93037138 1.30274087 -7.93037138 1.30274087 -3.88183594 0.46655273 C-2 0 -2 0 0 0 Z " fill="#FDBCBA" transform="translate(208,240)"/>
<path d="M0 0 C2.64 0.33 5.28 0.66 8 1 C8.1875 3.875 8.1875 3.875 8 7 C5 9 5 9 2.8125 8.625 C2.214375 8.41875 1.61625 8.2125 1 8 C2.65 7.01 4.3 6.02 6 5 C5.01 4.360625 4.02 3.72125 3 3.0625 C2.01 2.381875 1.02 1.70125 0 1 C0 0.67 0 0.34 0 0 Z " fill="#E23536" transform="translate(156,179)"/>
<path d="M0 0 C4.23429756 1.31061591 8.07407404 2.94356259 12 5 C12 5.33 12 5.66 12 6 C6.25 6.125 6.25 6.125 4 5 C4 4.34 4 3.68 4 3 C3.01 3 2.02 3 1 3 C0.67 4.32 0.34 5.64 0 7 C0 4.69 0 2.38 0 0 Z " fill="#FECBC4" transform="translate(118,158)"/>
<path d="M0 0 C2.97 0.495 2.97 0.495 6 1 C2.76478258 3.48862878 -0.59260295 5.75421558 -4 8 C-4.66 7.67 -5.32 7.34 -6 7 C-5.34 6.01 -4.68 5.02 -4 4 C-3.34 4 -2.68 4 -2 4 C-1.34 2.68 -0.68 1.36 0 0 Z " fill="#FDDCD9" transform="translate(132,197)"/>
<path d="M0 0 C0.66 0.66 1.32 1.32 2 2 C-1.38583802 5.13107836 -3.71109462 5.33550778 -8.25 5.1875 C-9.86648438 5.14689453 -9.86648438 5.14689453 -11.515625 5.10546875 C-12.74539063 5.05326172 -12.74539063 5.05326172 -14 5 C-14 4.67 -14 4.34 -14 4 C-13.37351562 3.95101562 -12.74703125 3.90203125 -12.1015625 3.8515625 C-11.28429687 3.77679688 -10.46703125 3.70203125 -9.625 3.625 C-8.81289063 3.55539063 -8.00078125 3.48578125 -7.1640625 3.4140625 C-4.79665809 3.17107412 -4.79665809 3.17107412 -3 1 C-2.01 0.67 -1.02 0.34 0 0 Z " fill="#474747" transform="translate(536,232)"/>
<path d="M0 0 C2 3 2 3 1.625 5.1875 C1.41875 5.785625 1.2125 6.38375 1 7 C0.67 6.34 0.34 5.68 0 5 C-0.66 6.32 -1.32 7.64 -2 9 C-3.32 8.34 -4.64 7.68 -6 7 C-4.02 4.69 -2.04 2.38 0 0 Z " fill="#D4D4D4" transform="translate(470,227)"/>
<path d="M0 0 C0.99 0.66 1.98 1.32 3 2 C1.37829621 3.00533667 -0.24747237 4.00411907 -1.875 5 C-3.23238281 5.8353125 -3.23238281 5.8353125 -4.6171875 6.6875 C-7 8 -7 8 -9 8 C-9 7.34 -9 6.68 -9 6 C-7.68 5.67 -6.36 5.34 -5 5 C-5 4.34 -5 3.68 -5 3 C-3.68 3 -2.36 3 -1 3 C-0.67 2.01 -0.34 1.02 0 0 Z " fill="#FED8D5" transform="translate(160,182)"/>
<path d="M0 0 C0.99 0.33 1.98 0.66 3 1 C3 1.66 3 2.32 3 3 C4.98 2.67 6.96 2.34 9 2 C9 3.65 9 5.3 9 7 C2.29787234 5.06382979 2.29787234 5.06382979 0 2 C0 1.34 0 0.68 0 0 Z " fill="#E01C1F" transform="translate(119,155)"/>
<path d="M0 0 C0.33 0 0.66 0 1 0 C1.29296875 6.0546875 1.29296875 6.0546875 1 8 C-2.6441774 10.4294516 -4.71241272 10.16179575 -9 10 C-9 9.34 -9 8.68 -9 8 C-6.03 7.34 -3.06 6.68 0 6 C0 4.02 0 2.04 0 0 Z " fill="#EE0B11" transform="translate(164,180)"/>
<path d="M0 0 C2.31 0.33 4.62 0.66 7 1 C7 1.66 7 2.32 7 3 C7.99 3 8.98 3 10 3 C10 3.66 10 4.32 10 5 C10.66 5 11.32 5 12 5 C12 5.66 12 6.32 12 7 C10.68 6.67 9.36 6.34 8 6 C8 5.34 8 4.68 8 4 C7.05125 3.71125 6.1025 3.4225 5.125 3.125 C2 2 2 2 0 0 Z " fill="#E42F2F" transform="translate(134,166)"/>
<path d="M0 0 C3.98175544 2.10148204 6.35039045 4.36905358 9 8 C8.67 8.66 8.34 9.32 8 10 C7.6596875 9.0409375 7.6596875 9.0409375 7.3125 8.0625 C6.14749104 5.72806339 6.14749104 5.72806339 3.375 5.25 C2.59125 5.1675 1.8075 5.085 1 5 C0.67 3.35 0.34 1.7 0 0 Z " fill="#DC292C" transform="translate(209,128)"/>
<path d="M0 0 C0.66 0.33 1.32 0.66 2 1 C1.5 2.9375 1.5 2.9375 0 5 C-2.69658452 5.68790422 -5.2017019 5.81946464 -8 6 C-5.38485683 3.87961365 -2.80362384 1.86908256 0 0 Z " fill="#E72A2E" transform="translate(132,201)"/>
<path d="M0 0 C0.66 0.33 1.32 0.66 2 1 C-2.625 6.875 -2.625 6.875 -6 8 C-6 6.68 -6 5.36 -6 4 C-4.68 4 -3.36 4 -2 4 C-2 3.01 -2 2.02 -2 1 C-1.34 0.67 -0.68 0.34 0 0 Z " fill="#DA2225" transform="translate(215,231)"/>
<path d="M0 0 C1.65 0 3.3 0 5 0 C5 0.66 5 1.32 5 2 C5.66 2 6.32 2 7 2 C7.33 3.32 7.66 4.64 8 6 C4.08597051 4.73058503 2.20927127 3.48832306 0 0 Z " fill="#E62329" transform="translate(56,234)"/>
<path d="M0 0 C1.32 0.33 2.64 0.66 4 1 C4 1.66 4 2.32 4 3 C5.98 3.66 7.96 4.32 10 5 C10 5.99 10 6.98 10 8 C9.67 7.34 9.34 6.68 9 6 C7.865625 5.71125 6.73125 5.4225 5.5625 5.125 C2 4 2 4 0.5625 1.875 C0.376875 1.25625 0.19125 0.6375 0 0 Z " fill="#FCD2C8" transform="translate(138,169)"/>
<path d="M0 0 C2.64 0.33 5.28 0.66 8 1 C4.78817851 2.90608098 2.46117397 3.22266247 -1.25 3.125 C-2.14203125 3.10695312 -3.0340625 3.08890625 -3.953125 3.0703125 C-4.96632813 3.03550781 -4.96632813 3.03550781 -6 3 C-6 2.67 -6 2.34 -6 2 C-4.02 2 -2.04 2 0 2 C0 1.34 0 0.68 0 0 Z " fill="#6E6E6E" transform="translate(318,235)"/>
<path d="M0 0 C2.97 0.495 2.97 0.495 6 1 C6 1.66 6 2.32 6 3 C3.69 3.66 1.38 4.32 -1 5 C-0.67 3.35 -0.34 1.7 0 0 Z " fill="#FEEAE2" transform="translate(63,122)"/>
<path d="M0 0 C0.66 0.99 1.32 1.98 2 3 C0.35 4.65 -1.3 6.3 -3 8 C-3.33 7.01 -3.66 6.02 -4 5 C-3.34 5 -2.68 5 -2 5 C-2 4.01 -2 3.02 -2 2 C-1.34 2 -0.68 2 0 2 C0 1.34 0 0.68 0 0 Z " fill="#2F2F2F" transform="translate(379,225)"/>
<path d="M0 0 C1.32 0.33 2.64 0.66 4 1 C1.36 2.98 -1.28 4.96 -4 7 C-3.67 5.35 -3.34 3.7 -3 2 C-2.01 2 -1.02 2 0 2 C0 1.34 0 0.68 0 0 Z " fill="#FEDAD3" transform="translate(58,127)"/>
<path d="M0 0 C4.03174806 0.27489191 5.56894631 0.53491576 8.375 3.5625 C8.91125 4.366875 9.4475 5.17125 10 6 C6.66666667 4.33333333 3.33333333 2.66666667 0 1 C0 0.67 0 0.34 0 0 Z " fill="#E33D42" transform="translate(146,173)"/>
<path d="M0 0 C1.65 0 3.3 0 5 0 C4.67 0.66 4.34 1.32 4 2 C3.34 2 2.68 2 2 2 C2 2.66 2 3.32 2 4 C0.68 4.33 -0.64 4.66 -2 5 C-1.34 3.35 -0.68 1.7 0 0 Z " fill="#E31F22" transform="translate(55,133)"/>
<path d="M0 0 C0.66 0.33 1.32 0.66 2 1 C1.34 2.65 0.68 4.3 0 6 C-0.99 6 -1.98 6 -3 6 C-3 5.01 -3 4.02 -3 3 C-2.01 2.67 -1.02 2.34 0 2 C0 1.34 0 0.68 0 0 Z " fill="#363636" transform="translate(335,225)"/>
<path d="M0 0 C1.32 1.32 2.64 2.64 4 4 C3.01 4.495 3.01 4.495 2 5 C1.67 5.66 1.34 6.32 1 7 C0.34 6.67 -0.32 6.34 -1 6 C-1.042721 4.33388095 -1.04063832 2.66617115 -1 1 C-0.67 0.67 -0.34 0.34 0 0 Z " fill="#353535" transform="translate(514,166)"/>
<path d="M0 0 C0.66 0 1.32 0 2 0 C1.01 3.3 0.02 6.6 -1 10 C-1.33 10 -1.66 10 -2 10 C-2.25 3.375 -2.25 3.375 0 0 Z " fill="#FED3CF" transform="translate(52,134)"/>
<path d="M0 0 C0 0.66 0 1.32 0 2 C-0.99 2.33 -1.98 2.66 -3 3 C-3.33 3.99 -3.66 4.98 -4 6 C-5.32 5.67 -6.64 5.34 -8 5 C-2.25 0 -2.25 0 0 0 Z " fill="#D93534" transform="translate(64,127)"/>
</svg>
